<?xml version="1.0" encoding="utf-8"?>
<!-- Generator: Adobe Illustrator 25.2.1, SVG Export Plug-In . SVG Version: 6.00 Build 0)  -->
<svg version="1.1" id="Layer_1" xmlns="http://www.w3.org/2000/svg" xmlns:xlink="http://www.w3.org/1999/xlink" x="0px" y="0px"
	 viewBox="0 0 108.9 24.3" style="enable-background:new 0 0 108.9 24.3;" xml:space="preserve">
<style type="text/css">
	.st0{fill:#B89B2D;}
</style>
<g id="Atasay" transform="translate(-203 -1768)">
	<g id="HzSdil" transform="translate(203 1768)">
		<g id="Group_337" transform="translate(0 0)">
			<path id="Path_1001" class="st0" d="M13.1,16.9c-0.6,1.6-1.2,3.2-1.7,4.8c-0.3,0.8,0,1.3,1.3,2.4H5.7c2.9-1.9,3.3-5.1,4.7-8
				C6.9,15,3.4,14,0,16.3c0.3-0.8,1-1.4,1.9-1.6c0.8-0.3,1.6-0.7,2.4-1.1c0.9-0.5,2-0.7,3-0.7c1.2,0,2.4,0.1,3.6,0.3
				c0.4,0.1,0.8-0.1,0.9-0.4c0,0,0-0.1,0-0.1c1.3-3.3,2.6-6.5,3.8-9.8c0.6-1.4,0.5-1.8-0.7-2.9c1.9,0,3.8,0,5.6,0
				c0.2,0,0.4,0.4,0.5,0.6c1.1,2.7,2.2,5.3,3.3,8c0.1,0.4,0.5,0.8,1,0.8c1,0.1,2,0.4,3,0.7c1.5,0.4,2.5,1.8,2.5,3.3
				c-0.1,1.2-0.7,2.2-1.8,2.8c-0.4,0.3-0.8,0.5-1.2,0.7c0.3,1,0.3,1,1.2,0.7c2.3-0.7,4.2-2.3,5.3-4.4c0.1-0.1,0.1-0.2,0.2-0.3
				c0,0,0,0,0.1,0c-0.2,1.9-2,3.6-6.1,5.8c0.7,2.1,2,4,3.7,5.3h-7.8c0-0.1,0-0.1,0-0.2c1.5-1,1.5-1.2,0.9-2.9c-0.3-1.2-1.3-2-2.6-2
				c-3-0.4-6-1.3-8.9-1.9C13.7,17,13.5,17,13.1,16.9z M21.2,10.8l-2.6,1.8l-0.1-0.1l2.5-2.2l-2.8-6.9l-3.9,10.5
				c1.9,0.8,8.2,2.4,9.1,2.3L21.2,10.8z M27.6,16.2c0.6-0.3,1.2-0.6,1.7-1c1.1-0.8,1.3-2.3,0.5-3.4c-0.2-0.2-0.4-0.4-0.6-0.6
				c-1.2-0.7-2.6-1.1-4.1-1L27.6,16.2z M24.1,18.1l0.2-0.3c-0.3-0.2-0.5-0.4-0.9-0.5c-1.9-0.4-3.9-0.8-5.8-1.3
				c-1.2-0.3-2.4-0.7-3.7-1l-0.3,0.9C17.1,16.8,20.4,18.1,24.1,18.1L24.1,18.1z M4.3,14.1l6.6,0.8l0.3-0.7
				C8.8,13.5,5.4,13.2,4.3,14.1L4.3,14.1z"/>
			<path id="Path_1002" class="st0" d="M62.4,24H57c0.3-0.3,0.7-0.6,0.7-0.9c0-0.4-0.1-0.8-0.3-1.2c-0.5-1.4-1.1-2.8-1.6-4.1
				c-0.1-0.4-0.4-0.6-0.8-0.6c-1.9,0-3.9,0-5.8,0c-0.3,0-0.6,0.2-0.7,0.5C48,19,47.5,20.4,47,21.9c-0.4,0.7-0.2,1.6,0.5,2.1
				c0,0,0.1,0,0.1,0h-4.8c1.3-0.8,1.8-2.1,2.3-3.4c1.7-4.1,3.3-8.3,4.9-12.4c0.3-0.8,0.6-1.6-0.3-2.4h2.7c1.5,0,1.5,0,2.1,1.4
				c1.9,4.7,3.9,9.4,5.8,14.1C60.7,22.3,61.4,23.3,62.4,24z M49.5,15h5.3l-2.6-6.8L49.5,15z"/>
			<path id="Path_1003" class="st0" d="M83.1,5.7c1.3,0,2.6,0,3.9,0c0.2,0,0.5,0.4,0.6,0.6c1.8,4.3,3.5,8.5,5.2,12.8
				c0.3,0.8,0.7,1.6,1,2.4c0.3,1,1,1.8,1.9,2.4h-5.5c1-0.8,1-0.8,0.5-2c-0.6-1.6-1.2-3.1-1.8-4.7c-2.2,0-4.4,0-6.6,0
				c-0.2,0-0.4,0.2-0.5,0.3c-0.6,1.6-1.2,3.2-1.7,4.7c-0.2,0.7,0.1,1.4,0.7,1.7h-4.9c2.2-1.6,2.6-4.2,3.5-6.4
				c1.3-3.1,2.5-6.2,3.7-9.3C83.6,7.4,84.1,6.6,83.1,5.7z M82.7,15h5.3l-2.6-6.8L82.7,15z"/>
			<path id="Path_1004" class="st0" d="M63.5,19.8c0.8,0.5,1.5,1,2.3,1.5c1.7,0.9,3.7,1.2,5.6,0.6c1-0.2,1.9-0.9,2.1-2
				c0.2-1.1-0.2-2.2-1.1-2.8c-0.8-0.5-1.7-1-2.5-1.4c-1.3-0.7-2.6-1.5-3.9-2.4c-1.9-1.4-2.2-4.1-0.8-5.9c0.5-0.7,1.3-1.2,2.1-1.5
				c2.6-0.9,5.5-0.9,8.1,0c0.2,0.1,0.3,0.3,0.4,0.5c0,0.8,0,1.7,0,2.5c-1.1-0.6-2.3-1-3.5-1.4c-0.9-0.2-1.8-0.2-2.8,0
				c-1.2,0.2-2,1.2-1.8,2.4c0.1,0.5,0.3,0.9,0.7,1.3c0.8,0.8,1.7,1.4,2.7,1.9c1.2,0.8,2.6,1.3,3.8,2.2c2.4,1.8,2.7,4.3,0.8,6.6
				c-1.3,1.5-3.2,2.3-5.1,2.4c-2,0.2-4-0.1-5.9-0.8c-0.2-0.1-0.4-0.2-0.5-0.4C63.8,22,63.7,20.9,63.5,19.8z"/>
			<path id="Path_1005" class="st0" d="M103.6,24H98c0.9-0.6,1.3-1.6,1.2-2.7c0-1.6,0-3.1,0-4.7c0-0.4-0.1-0.8-0.3-1.1
				c-1.5-2.5-3-4.9-4.6-7.4c-0.6-0.8-1.2-1.6-1.9-2.4c1.1-0.1,2.2,0,3.3,0.1c0.5,0.1,0.9,0.7,1.2,1.2c1.3,2,2.6,4.1,3.9,6.2
				c0.1,0.1,0.2,0.2,0.3,0.5c1.3-2,2.5-3.8,3.7-5.8c0.5-0.8,0.2-1.5-0.8-2.1h4.9c-1,1.5-1.9,2.8-2.8,4.2c-1.2,1.8-2.5,3.6-3.7,5.5
				c-0.2,0.3-0.3,0.7-0.3,1.1c0,1.3,0,2.6,0,4C102.1,21.9,102.2,23.1,103.6,24z"/>
			<path id="Path_1006" class="st0" d="M45,5.6l-0.8,3.2c-0.5-0.8-1.4-1.2-2.3-1.1c-0.9,0-1.7,0-2.7,0v1c0,4.1,0,8.1,0,12.2
				c-0.1,1.2,0.5,2.4,1.5,3h-5.6c1.2-0.8,1.2-2,1.2-3.3c0-4,0-7.9,0-11.9v-1c-2,0-4-0.4-5.9,1.1l1-3.3L45,5.6z"/>
			<path id="Path_1007" class="st0" d="M24,18.1c-3.6,0-7-1.3-10.5-2.2l0.3-0.9c1.3,0.4,2.5,0.7,3.7,1c1.9,0.5,3.9,0.8,5.8,1.3
				c0.3,0.1,0.6,0.3,0.9,0.5L24,18.1z"/>
			<path id="Path_1008" class="st0" d="M4.3,14.1c1.1-0.9,4.5-0.6,6.9,0.1l-0.3,0.7L4.3,14.1z"/>
		</g>
	</g>
</g>
</svg>
