<svg xmlns="http://www.w3.org/2000/svg" xmlns:xlink="http://www.w3.org/1999/xlink" width="93.128" height="117.366" viewBox="0 0 93.128 117.366">
  <defs>
    <linearGradient id="linear-gradient" x1="0.842" y1="0.81" x2="-0.647" y2="-0.245" gradientUnits="objectBoundingBox">
      <stop offset="0" stop-color="#d2deff" stop-opacity="0"/>
      <stop offset="1" stop-color="#e5e5e5"/>
    </linearGradient>
    <linearGradient id="linear-gradient-2" x1="-1.869" y1="4.38" x2="2.878" y2="3.316" gradientUnits="objectBoundingBox">
      <stop offset="0" stop-color="#ea6424"/>
      <stop offset="0.458" stop-color="#d41c64"/>
      <stop offset="1" stop-color="#923c8c"/>
    </linearGradient>
  </defs>
  <g id="Group_537" data-name="Group 537" transform="translate(-356.678 -826.225)">
    <path id="Path_1201" data-name="Path 1201" d="M138.946,39.19a22.079,22.079,0,0,0-6.547-4.506,28.369,28.369,0,0,1-14.235-14.493A33.779,33.779,0,1,0,59.609,53.212,29.135,29.135,0,0,1,63.49,78.677c-3.822,12.279-2.49,23.917,4.782,31.188,12.742,12.742,38.893,7.251,58.41-12.265s25.007-45.667,12.265-58.41Z" transform="translate(303.989 826.855)" fill="url(#linear-gradient)"/>
    <g id="Group_509" data-name="Group 509" transform="translate(360.82 827.975)">
      <g id="Group_363" data-name="Group 363" transform="translate(16.325 37.658)">
        <g id="Group_362" data-name="Group 362">
          <path id="Path_1037" data-name="Path 1037" d="M149.112,128v50.607a1.633,1.633,0,0,1-1.633,1.633H111.565a1.633,1.633,0,0,1-1.633-1.633V128h-3.265v50.607a4.9,4.9,0,0,0,4.9,4.9h35.915a4.9,4.9,0,0,0,4.9-4.9V128Z" transform="translate(-106.667 -128)" fill="url(#linear-gradient-2)"/>
        </g>
      </g>
      <g id="Group_365" data-name="Group 365" transform="translate(22.855 68.675)">
        <g id="Group_364" data-name="Group 364">
          <path id="Path_1038" data-name="Path 1038" d="M178.718,330.667v6.665a9.823,9.823,0,0,0-8.027,8.027H160.625a9.823,9.823,0,0,0-8.027-8.027v-6.665h-3.265v8.162a1.633,1.633,0,0,0,1.633,1.633,6.53,6.53,0,0,1,6.53,6.53,1.633,1.633,0,0,0,1.633,1.633h13.06a1.633,1.633,0,0,0,1.633-1.633,6.53,6.53,0,0,1,6.53-6.53,1.633,1.633,0,0,0,1.633-1.633v-8.162Z" transform="translate(-149.333 -330.667)" fill="url(#linear-gradient-2)"/>
        </g>
      </g>
      <g id="Group_367" data-name="Group 367" transform="translate(52.24 83.368)">
        <g id="Group_366" data-name="Group 366">
          <rect id="Rectangle_421" data-name="Rectangle 421" width="3.265" height="3.265" fill="url(#linear-gradient-2)"/>
        </g>
      </g>
      <g id="Group_369" data-name="Group 369" transform="translate(22.855 83.368)">
        <g id="Group_368" data-name="Group 368">
          <rect id="Rectangle_422" data-name="Rectangle 422" width="3.265" height="3.265" fill="url(#linear-gradient-2)"/>
        </g>
      </g>
      <g id="Group_371" data-name="Group 371" transform="translate(22.855 37.658)">
        <g id="Group_370" data-name="Group 370">
          <path id="Path_1039" data-name="Path 1039" d="M165.658,128a16.325,16.325,0,1,0,16.325,16.325A16.325,16.325,0,0,0,165.658,128Zm0,29.385a13.06,13.06,0,1,1,13.06-13.06A13.06,13.06,0,0,1,165.658,157.385Z" transform="translate(-149.333 -128)" fill="url(#linear-gradient-2)"/>
        </g>
      </g>
      <g id="Group_373" data-name="Group 373" transform="translate(0 21.333)">
        <g id="Group_372" data-name="Group 372">
          <path id="Path_1040" data-name="Path 1040" d="M73.462,21.333H4.9A4.9,4.9,0,0,0,0,26.23V45.82a4.9,4.9,0,0,0,4.9,4.9H13.06V47.453H4.9A1.633,1.633,0,0,1,3.265,45.82V26.23A1.633,1.633,0,0,1,4.9,24.6H73.462a1.633,1.633,0,0,1,1.633,1.633V45.82a1.633,1.633,0,0,1-1.633,1.633H65.3v3.265h8.162a4.9,4.9,0,0,0,4.9-4.9V26.23A4.9,4.9,0,0,0,73.462,21.333Z" transform="translate(0 -21.333)" fill="url(#linear-gradient-2)"/>
        </g>
      </g>
      <g id="Group_375" data-name="Group 375" transform="translate(9.795 31.128)">
        <g id="Group_374" data-name="Group 374">
          <path id="Path_1041" data-name="Path 1041" d="M121.137,85.333h-55.5A1.633,1.633,0,0,0,64,86.966V93.5h3.265V88.6H119.5v4.9h3.265v-6.53A1.633,1.633,0,0,0,121.137,85.333Z" transform="translate(-64 -85.333)" fill="url(#linear-gradient-2)"/>
        </g>
      </g>
    </g>
    <g id="Group_518" data-name="Group 518" transform="translate(359.117 854.172)">
      <path id="Path_1079" data-name="Path 1079" d="M397.2,152.728a1.14,1.14,0,0,1-.806-1.946l2.28-2.28a1.14,1.14,0,0,1,1.612,1.612l-2.28,2.28A1.137,1.137,0,0,1,397.2,152.728Z" transform="translate(-338.121 -161.168)" fill="#923c8c"/>
      <path id="Path_1080" data-name="Path 1080" d="M389.682,403.877a1.14,1.14,0,0,1-.806-1.946l2.28-2.28a1.14,1.14,0,0,1,1.612,1.612l-2.28,2.28A1.136,1.136,0,0,1,389.682,403.877Z" transform="translate(-317.047 -356.056)" fill="#923c8c"/>
      <path id="Path_1081" data-name="Path 1081" d="M58.558,164.94a1.14,1.14,0,0,1-.806-1.946l2.28-2.28a1.14,1.14,0,0,1,1.612,1.612l-2.28,2.28A1.136,1.136,0,0,1,58.558,164.94Z" transform="translate(-50.577 -126.596)" fill="#923c8c"/>
      <path id="Path_1200" data-name="Path 1200" d="M58.558,164.94a1.14,1.14,0,0,1-.806-1.946l2.28-2.28a1.14,1.14,0,0,1,1.612,1.612l-2.28,2.28A1.136,1.136,0,0,1,58.558,164.94Z" transform="translate(-59.858 -102.596)" fill="#923c8c"/>
    </g>
    <g id="Group_519" data-name="Group 519" transform="translate(379.044 826.225)">
      <path id="Path_1083" data-name="Path 1083" d="M420.69,109.733a1.136,1.136,0,0,1-.806-.334l-1.474-1.474-1.474,1.474a1.14,1.14,0,0,1-1.612-1.612l2.28-2.28a1.14,1.14,0,0,1,1.612,0l2.28,2.28a1.14,1.14,0,0,1-.806,1.946Z" transform="translate(-414.99 -105.173)" fill="#923c8c"/>
    </g>
    <g id="Group_520" data-name="Group 520" transform="translate(390.044 926.369)">
      <path id="Path_1083-2" data-name="Path 1083" d="M420.69,109.733a1.136,1.136,0,0,1-.806-.334l-1.474-1.474-1.474,1.474a1.14,1.14,0,0,1-1.612-1.612l2.28-2.28a1.14,1.14,0,0,1,1.612,0l2.28,2.28a1.14,1.14,0,0,1-.806,1.946Z" transform="translate(-414.99 -105.173)" fill="#923c8c"/>
    </g>
  </g>
</svg>
