<?xml version="1.0" encoding="utf-8"?>
<!-- Generator: Adobe Illustrator 25.2.1, SVG Export Plug-In . SVG Version: 6.00 Build 0)  -->
<svg version="1.1" id="Layer_1" xmlns="http://www.w3.org/2000/svg" xmlns:xlink="http://www.w3.org/1999/xlink" x="0px" y="0px"
	 viewBox="0 0 139.1 19.3" style="enable-background:new 0 0 139.1 19.3;" xml:space="preserve">
<style type="text/css">
	.st0{fill:#FF2134;}
</style>
<g id="Boyner" transform="translate(-215 -1813.71)">
	<g id="I2gtNX" transform="translate(471.659 1462.292)">
		<g id="Group_332" transform="translate(-256.659 351.418)">
			<path id="Path_988" class="st0" d="M0,0.6c3.8,0,7.6-0.1,11.4,0c2.6,0.1,4.9,2,5.4,4.6C17,6.4,17,7.1,15.9,9.1
				c1.1,0.7,1.9,1.8,2.2,3.1c0.5,2.4-0.6,4.8-2.8,5.9c-1.1,0.6-2.3,0.9-3.6,0.9c-3.8,0-7.6,0-11.4,0c-0.1,0-0.2,0-0.4,0V0.6z
				 M4.2,15.3c2.7,0,5.3,0,7.9,0c1,0,1.9-0.8,2-1.8c0-0.1,0-0.2,0-0.3c-0.2-1-1.2-1.7-2.2-1.6c-2.4,0-4.8,0-7.2,0
				c-0.1,0-0.3,0-0.4,0.1L4.2,15.3z M4.2,7.9c2.3,0,4.5,0,6.6,0c1,0,1.8-0.9,1.8-1.9c0-0.1,0-0.1,0-0.2c-0.2-0.9-1-1.6-2-1.5
				c-2,0-3.9,0-5.9,0c-0.2,0-0.4,0-0.5,0.1V7.9z"/>
			<path id="Path_989" class="st0" d="M33,19.3c-3.2-0.1-6.3-1.6-8.2-4.2c-3-4-2.3-9.2,1.6-12.5c4.6-3.7,11.3-3.3,15.3,1
				c3.4,3.7,3.2,9.4-0.5,12.8c-0.3,0.3-0.6,0.5-0.9,0.7C38.2,18.6,35.6,19.4,33,19.3z M33.6,15.5c0.7-0.1,1.3-0.2,2-0.4
				c2.1-0.5,3.8-2.2,4.2-4.4c0.5-2-0.3-4-1.9-5.3c-2.5-2.1-6.1-2.1-8.6-0.1c-1.5,1.1-2.3,2.9-2.1,4.7C27.5,13.4,30.7,15.5,33.6,15.5
				L33.6,15.5z"/>
			<path id="Path_990" class="st0" d="M73.7,0.4c0.6,0.1,1.1,0.4,1.6,0.7c4,3.3,8,6.6,12,9.9c0.1,0.1,0.2,0.1,0.4,0.3V0.6H92v18.3
				c-0.6,0.1-1.1,0-1.6-0.3c-4.1-3.4-8.1-6.8-12.2-10.1c-0.1-0.1-0.2-0.1-0.3-0.1v10.6h-4.2L73.7,0.4z"/>
			<path id="Path_991" class="st0" d="M134.7,13l4.4,5.8c-0.2,0-0.4,0.1-0.6,0.1c-1.3,0-2.6,0-3.8,0c-0.4,0-0.7-0.2-0.9-0.5
				c-1.1-1.3-2-2.7-3.1-4c-0.2-0.2-0.5-0.4-0.9-0.4c-0.7-0.1-1.4,0-2.1,0c-0.5,0-0.6,0.2-0.6,0.6c0,1.2,0,2.4,0,3.6
				c0,0.2,0,0.5,0,0.7h-4.2V0.6c0.2,0,0.3,0,0.5-0.1c2.6,0,5.2,0,7.8,0c3.1,0.1,5.8,2,6.9,4.9c0.8,2.7-0.3,5.6-2.6,7.1
				C135.2,12.7,135,12.9,134.7,13z M127.1,10.4c1.1,0,2.2,0,3.2,0c0.3,0,0.5,0,0.8,0c1.5-0.1,2.8-1.3,3-2.8c0.1-1.5-0.9-2.8-2.4-3.1
				c-1.5-0.2-3.1-0.3-4.6-0.2L127.1,10.4z"/>
			<path id="Path_992" class="st0" d="M100.1,0.6h15.4v3.6h-11.2v3.9h8.3v3.7h-8.3v3.4h11.2v3.6h-15.4V0.6z"/>
			<path id="Path_993" class="st0" d="M46.8,0.6c1.7,0,3.2,0,4.7,0c0.2,0,0.4,0.3,0.6,0.4c1.7,2.4,3.5,4.8,5.3,7.3
				c0.7-0.9,1.3-1.8,2-2.7c1.1-1.5,2.2-3.1,3.3-4.6c0.1-0.2,0.3-0.4,0.5-0.4c1.5,0,3.1,0,4.8,0c-0.9,1.3-1.7,2.4-2.6,3.6
				c-1.9,2.6-3.8,5.2-5.6,7.8c-0.2,0.3-0.3,0.6-0.3,0.9c0,1.8,0,3.5,0,5.3v0.8h-4.3c0-1.5-0.1-3.1,0-4.6c0.1-1.3-0.3-2.6-1.2-3.6
				c-2.4-3.1-4.6-6.4-6.9-9.6C47.1,1,47,0.8,46.8,0.6z"/>
		</g>
	</g>
</g>
</svg>
