<?xml version="1.0" encoding="utf-8"?>
<!-- Generator: Adobe Illustrator 25.2.1, SVG Export Plug-In . SVG Version: 6.00 Build 0)  -->
<svg version="1.1" id="Layer_1" xmlns="http://www.w3.org/2000/svg" xmlns:xlink="http://www.w3.org/1999/xlink" x="0px" y="0px"
	 viewBox="0 0 111.5 19.3" style="enable-background:new 0 0 111.5 19.3;" xml:space="preserve">
<style type="text/css">
	.st0{fill:#00319F;}
</style>
<g id="Ikea" transform="translate(-405 -1840.884)">
	<g id="mTJKUQ" transform="translate(806.687 878.246)">
		<g id="Group_336" transform="translate(-401.687 962.638)">
			<path id="Path_997" class="st0" d="M31.7,11.9c0.1,2.4-0.1,4.8,0.2,7.2H19.6c0-0.5,0.1-1,0.1-1.5c0-5.4,0-10.7,0-16.1
				c0-0.4-0.1-0.9-0.1-1.3h12.3c0,0.5-0.1,0.9-0.1,1.4c0,1.7,0,3.3,0,5v0.6C31.8,7.1,31.9,7,32,6.9c1.4-1.8,2.8-3.6,4.2-5.5
				c0.3-0.4,0.4-0.9,0.2-1.4h12.5c-0.7,1-1.3,1.9-1.9,2.8c-1.1,1.6-2.2,3.1-3.3,4.7c-0.2,0.2-0.2,0.5,0,0.7c2.1,3.3,4.1,6.6,6.2,9.9
				c0.3,0.4,0.6,0.7,0.9,1H35.8c0.3-0.8-0.2-1.4-0.6-2c-1-1.6-2.1-3.3-3.1-4.9c-0.1-0.1-0.2-0.2-0.3-0.4L31.7,11.9z"/>
			<path id="Path_998" class="st0" d="M98.3,19.3c-0.1-0.5-0.1-1-0.3-1.4c-0.2-0.6-0.4-1.2-0.6-1.8c0-0.2-0.2-0.3-0.4-0.3
				c-1.8,0-3.6,0-5.3,0c-0.2,0-0.3,0.1-0.4,0.3c-0.3,0.7-0.6,1.5-0.9,2.2c0,0.3-0.1,0.6,0,0.8H79.9c0.8-2.1,1.6-4.2,2.4-6.3
				c1.4-3.8,2.9-7.7,4.3-11.5c0.1-0.4,0.2-0.9,0.2-1.3h16.8c-0.1,0.5-0.1,1.1,0.2,1.6c2.4,5.6,4.8,11.2,7.2,16.8
				c0.1,0.3,0.3,0.6,0.5,0.9L98.3,19.3z M94.3,8.1l-1.5,3.4h3L94.3,8.1z"/>
			<path id="Path_999" class="st0" d="M76.1,5.7c-0.5,0-1-0.1-1.5-0.1c-2.7,0-5.4,0-8,0c-0.4,0-0.6,0.1-0.5,0.5c0,0.3,0,0.7,0,1.1
				c2.7-0.1,5.3,0.1,8-0.2V12c-0.6,0-1.2-0.1-1.8-0.1c-1.8,0-3.6,0-5.5,0c-0.2,0-0.4,0-0.7,0v1.7c3.4,0.2,6.8,0.1,10.2-0.2v5.9H54
				c0.1-0.6,0.1-1.1,0.1-1.6c0-5.4,0-10.9,0-16.3c0-0.4-0.1-0.9-0.2-1.3h22L76.1,5.7z"/>
			<path id="Path_1000" class="st0" d="M0,19.3V0.2h12.4c0,0.4-0.1,0.8-0.1,1.3c0,5.5,0,10.9,0,16.4c0,0.5,0.1,1,0.1,1.5H0z"/>
		</g>
	</g>
</g>
</svg>
