<?xml version="1.0" encoding="utf-8"?>
<!-- Generator: Adobe Illustrator 25.2.1, SVG Export Plug-In . SVG Version: 6.00 Build 0)  -->
<svg version="1.1" id="Layer_1" xmlns="http://www.w3.org/2000/svg" xmlns:xlink="http://www.w3.org/1999/xlink" x="0px" y="0px"
	 viewBox="0 0 119.8 23.6" style="enable-background:new 0 0 119.8 23.6;" xml:space="preserve">
<g id="Ipekyol" transform="translate(-214.378 -898.92)">
	<g id="Group_496" transform="translate(214.378 898.92)">
		<path id="Path_1183" d="M0,0.4h2.2v22.9H0V0.4z"/>
		<path id="Path_1184" d="M104.4,11.8c0,6.8-5.2,11.8-12.2,11.8c-6.5,0-11.8-5.3-11.8-11.8C80.4,5.2,85.7,0,92.2,0
			c0.1,0,0.1,0,0.2,0C98.9-0.1,104.3,5.2,104.4,11.8C104.4,11.7,104.4,11.7,104.4,11.8z M82.6,11.7c-0.2,5.3,3.9,9.8,9.2,10.1
			c0.1,0,0.3,0,0.4,0c5.5,0,10-4.5,9.9-10c0-5.4-4.3-9.7-9.6-9.9c-5.3-0.2-9.7,3.9-9.9,9.2C82.6,11.3,82.6,11.5,82.6,11.7L82.6,11.7
			z"/>
		<path id="Path_1185" d="M59.9,0.3l-9.4,10.4l10.1,12.5c-0.9,0-1.8,0-2.6,0c-0.2,0-0.4-0.3-0.5-0.4c-3.1-3.8-6.2-7.7-9.3-11.6
			c-0.1-0.1-0.2-0.2-0.4-0.5v12.4h-2.2V0.4h2.2v10.1c0.5-0.5,0.8-0.9,1.1-1.2c2.5-2.8,5.1-5.7,7.6-8.5c0.2-0.3,0.6-0.5,1-0.4
			C58.3,0.4,59,0.3,59.9,0.3z"/>
		<path id="Path_1186" d="M39.2,21.4v1.8H27.1V0.4h12.1v1.8h-9.9V10h9.9v1.8h-9.9v9.6L39.2,21.4z"/>
		<path id="Path_1187" d="M9.8,0.3c2.6,0.1,5.1,0,7.6,0.3c3.3,0.4,5.1,2.7,5,6.2c0,0.6-0.1,1.3-0.2,1.9c-0.5,2.4-2.6,4.2-5.1,4.2
			c-1.2,0.1-2.5,0.1-3.8,0.2c-0.4,0-0.8,0-1.3,0v10.1H9.8V0.3z M12.1,2.3v9.1c1.7-0.1,3.4-0.2,5.1-0.4c1.3-0.2,2.4-1.2,2.7-2.5
			c0.2-0.9,0.3-1.8,0.2-2.7c0-2-1.6-3.5-3.6-3.5c0,0-0.1,0-0.1,0C14.9,2.2,13.5,2.3,12.1,2.3L12.1,2.3z"/>
		<path id="Path_1188" d="M61.6,0.3c0.8,0,1.5,0,2.2,0c0.2,0.1,0.5,0.2,0.6,0.5c2,3.3,4,6.7,6,10.1c0.1,0.1,0.1,0.2,0.2,0.4
			c0.1-0.2,0.3-0.3,0.3-0.5c2-3.3,4-6.7,6-10c0.2-0.3,0.5-0.5,0.9-0.5c0.6,0,1.2,0,1.9,0c-0.1,0.2-0.2,0.4-0.3,0.5
			C77,4.9,74.5,9,72,13.1c-0.2,0.4-0.4,0.8-0.4,1.3c0,2.7,0,5.4,0,8.1v0.7h-2.3v-0.6c0-2.8,0-5.5,0-8.3c0-0.4-0.1-0.8-0.3-1.2
			c-2.3-4-4.7-8-7.1-12.1C61.9,0.9,61.8,0.6,61.6,0.3z"/>
		<path id="Path_1189" d="M112,21.4h7.8v1.8h-10V0.4h2.2L112,21.4z"/>
	</g>
</g>
</svg>
