<svg xmlns="http://www.w3.org/2000/svg" xmlns:xlink="http://www.w3.org/1999/xlink" width="114.349" height="112.228" viewBox="0 0 114.349 112.228">
  <defs>
    <linearGradient id="linear-gradient" x1="0.5" y1="0.836" x2="0.751" y2="0.455" gradientUnits="objectBoundingBox">
      <stop offset="0" stop-color="#d2deff" stop-opacity="0"/>
      <stop offset="1" stop-color="#f5f5ff"/>
    </linearGradient>
    <linearGradient id="linear-gradient-2" y1="1.463" x2="1.336" y2="0.446" gradientUnits="objectBoundingBox">
      <stop offset="0" stop-color="#ea6424"/>
      <stop offset="0.522" stop-color="#d41c64"/>
      <stop offset="1" stop-color="#923c8c"/>
    </linearGradient>
    <linearGradient id="linear-gradient-3" x1="-0.53" y1="0.376" x2="0.621" y2="-0.658" gradientUnits="objectBoundingBox">
      <stop offset="0" stop-color="#ea6424"/>
      <stop offset="0.537" stop-color="#d41c64"/>
      <stop offset="1" stop-color="#923c8c"/>
    </linearGradient>
  </defs>
  <g id="Group_542" data-name="Group 542" transform="translate(-1142.826 -1092.779)">
    <g id="Group_454" data-name="Group 454" transform="translate(1142.826 1092.779)">
      <g id="Group_451" data-name="Group 451" transform="translate(0 0)">
        <path id="Path_1085" data-name="Path 1085" d="M93.757,58.94a34.74,34.74,0,0,0,.335-5.293A36.93,36.93,0,1,0,20.569,58.94a17.3,17.3,0,0,1-7.862,16.817C4.757,80.805,0,87.259,0,94.272c0,16.281,25.595,29.481,57.175,29.481s57.175-13.2,57.175-29.481c0-7.013-4.757-13.467-12.708-18.537a17.2,17.2,0,0,1-7.884-16.8Z" transform="translate(0 -11.525)" fill="url(#linear-gradient)"/>
        <g id="Group_450" data-name="Group 450" transform="translate(15.79 0)">
          <path id="Path_1086" data-name="Path 1086" d="M138.212,46.9a18.019,18.019,0,0,0-17.733,14.83H80.167A4.466,4.466,0,0,0,75.7,66.2v74.3a4.48,4.48,0,0,0,4.467,4.467h50.921a4.48,4.48,0,0,0,4.467-4.467V82.746a17.308,17.308,0,0,0,2.658.2,18.023,18.023,0,0,0,0-36.047Z" transform="translate(-74.583 -34.75)" fill="#f5f5ff" style="isolation: isolate"/>
          <g id="Group_449" data-name="Group 449">
            <g id="Group_425" data-name="Group 425" transform="translate(1.117 22.29)">
              <path id="Path_1087" data-name="Path 1087" d="M135.555,96.767v74.3a4.48,4.48,0,0,1-4.467,4.467H80.167a4.48,4.48,0,0,1-4.467-4.467v-74.3A4.466,4.466,0,0,1,80.167,92.3h50.921a4.466,4.466,0,0,1,4.467,4.467Z" transform="translate(-75.7 -92.3)" fill="#fff"/>
            </g>
            <g id="Group_426" data-name="Group 426" transform="translate(45.851 75.4)">
              <path id="Path_1088" data-name="Path 1088" d="M282.678,350.8h-5.025A1.649,1.649,0,0,1,276,349.151v-17.4a1.649,1.649,0,0,1,1.653-1.653h5.025a1.649,1.649,0,0,1,1.653,1.653v17.4A1.649,1.649,0,0,1,282.678,350.8Z" transform="translate(-276 -330.1)" fill="#923c8c"/>
            </g>
            <g id="Group_429" data-name="Group 429" transform="translate(8.487 33.345)">
              <path id="Path_1089" data-name="Path 1089" d="M152.72,152.754h-7.281l-1.161-.737-1.831.737h-2.568l-3.127-1.429-4.489,1.429H109.817a1.106,1.106,0,0,1-1.117-1.117v-8.621a1.106,1.106,0,0,1,1.117-1.117h33.3l3.663,1.72,4.511-1.72h1.429a1.106,1.106,0,0,1,1.117,1.117v8.621a1.12,1.12,0,0,1-1.117,1.117Z" transform="translate(-108.7 -141.878)" fill="#e5e5e5"/>
              <path id="Path_1090" data-name="Path 1090" d="M232.592,141.8l-10.854,10.877H214.1L224.977,141.8Z" transform="translate(-190.56 -141.8)" fill="#fff"/>
              <path id="Path_1091" data-name="Path 1091" d="M271.268,143.383v1.362l-8.375,8.4H259.9l6.03-6.03,4.712-4.712a1.1,1.1,0,0,1,.625.983Z" transform="translate(-226.131 -142.266)" fill="#fff"/>
              <g id="Group_427" data-name="Group 427" transform="translate(8.107 2.032)">
                <path id="Path_1092" data-name="Path 1092" d="M148.305,157.98h-1.094A2.2,2.2,0,0,1,145,155.769v-2.658a2.2,2.2,0,0,1,2.211-2.211h1.094a2.2,2.2,0,0,1,2.211,2.211v2.658A2.231,2.231,0,0,1,148.305,157.98Zm-1.094-2.233h1.072v-2.613h-1.072Z" transform="translate(-145 -150.9)" fill="#333"/>
              </g>
              <g id="Group_428" data-name="Group 428" transform="translate(15.534 2.032)">
                <path id="Path_1093" data-name="Path 1093" d="M181.559,157.98h-1.094a2.2,2.2,0,0,1-2.211-2.211v-2.658a2.2,2.2,0,0,1,2.211-2.211h1.094a2.2,2.2,0,0,1,2.211,2.211v2.658A2.231,2.231,0,0,1,181.559,157.98Zm-1.094-2.233h1.072v-2.613h-1.072Z" transform="translate(-178.254 -150.9)" fill="#333"/>
              </g>
            </g>
            <g id="Group_433" data-name="Group 433">
              <g id="Group_432" data-name="Group 432">
                <circle id="Ellipse_21" data-name="Ellipse 21" cx="18.021" cy="18.021" r="18.021" transform="translate(38.129 25.485) rotate(-45)" fill="#e5e5e5"/>
                <g id="Group_430" data-name="Group 430" transform="translate(0 6.343)">
                  <path id="Path_1094" data-name="Path 1094" d="M131.671,115.575a1.106,1.106,0,0,0-1.117,1.117v50.519a3.346,3.346,0,0,1-3.35,3.35H76.283a3.346,3.346,0,0,1-3.35-3.35V92.883a3.346,3.346,0,0,1,3.35-3.35h32.853a1.117,1.117,0,0,0,0-2.233H76.283A5.586,5.586,0,0,0,70.7,92.883v74.3a5.586,5.586,0,0,0,5.583,5.583H127.2a5.586,5.586,0,0,0,5.583-5.583v-50.5A1.106,1.106,0,0,0,131.671,115.575Z" transform="translate(-70.7 -72.47)" fill="url(#linear-gradient-2)"/>
                  <path id="Path_1095" data-name="Path 1095" d="M289.04,20.9a19.14,19.14,0,1,0,19.14,19.14A19.149,19.149,0,0,0,289.04,20.9Zm0,36.047A16.907,16.907,0,1,1,305.947,40.04,16.938,16.938,0,0,1,289.04,56.947Z" transform="translate(-225.411 -20.9)" fill="url(#linear-gradient-3)"/>
                </g>
                <ellipse id="Ellipse_22" data-name="Ellipse 22" cx="13.289" cy="13.289" rx="13.289" ry="13.289" transform="translate(50.34 12.195)" fill="#fff"/>
                <g id="KwGNRR" transform="translate(59.259 18.669)">
                  <g id="Group_431" data-name="Group 431">
                    <path id="Path_1096" data-name="Path 1096" d="M339.678,74.5c-.008.087-.016.174-.023.262a6.008,6.008,0,0,1-.893,2.753,6.245,6.245,0,0,1-3.954,2.871,6.025,6.025,0,0,1-1.453.16h-1.363c-.238,0-.338-.1-.338-.342V74.788c-.029.007-.053.012-.076.019l-1.81.555a.291.291,0,0,1-.4-.3q0-.54,0-1.081a.286.286,0,0,1,.237-.32q1-.3,2-.607a.068.068,0,0,0,.059-.079c0-.236,0-.472,0-.708v-.064l-.608.186-1.27.39a.293.293,0,0,1-.413-.3q0-.534,0-1.068a.288.288,0,0,1,.242-.328q.995-.3,1.99-.605a.073.073,0,0,0,.061-.086q0-1.058,0-2.116a.763.763,0,0,1,.006-.109.262.262,0,0,1,.259-.232q.74,0,1.479,0a.261.261,0,0,1,.259.252c.006.109,0,.219,0,.328q0,.624,0,1.248v.077l.528-.163c.932-.289,1.865-.573,2.8-.868a.3.3,0,0,1,.4.3c-.009.356,0,.712,0,1.068a.3.3,0,0,1-.255.345l-2.344.722-1.055.325c-.024.007-.048.017-.071.025v.827l.133-.038c1.065-.329,2.131-.655,3.194-.991a.3.3,0,0,1,.4.292c0,.364,0,.729,0,1.094a.286.286,0,0,1-.238.32l-2.963.913c-.157.049-.315.1-.473.144a.062.062,0,0,0-.053.071q0,2.126,0,4.252c0,.015,0,.029,0,.056.118-.013.233-.019.346-.038a4.274,4.274,0,0,0,3.319-2.549,3.9,3.9,0,0,0,.343-1.616c0-.034,0-.069,0-.1a.27.27,0,0,1,.272-.269q.73,0,1.46,0a.283.283,0,0,1,.274.219Z" transform="translate(-329.363 -67.933)"/>
                  </g>
                </g>
              </g>
            </g>
            <g id="Group_437" data-name="Group 437" transform="translate(9.09 50.542)">
              <g id="Group_434" data-name="Group 434">
                <path id="Path_1097" data-name="Path 1097" d="M118.078,282.931h-5.025a1.649,1.649,0,0,1-1.653-1.653v-5.025a1.649,1.649,0,0,1,1.653-1.653h5.025a1.649,1.649,0,0,1,1.653,1.653v5.025A1.663,1.663,0,0,1,118.078,282.931Z" transform="translate(-111.4 -262.138)" fill="#923c8c"/>
                <path id="Path_1098" data-name="Path 1098" d="M118.078,338.331h-5.025a1.649,1.649,0,0,1-1.653-1.653v-5.025A1.649,1.649,0,0,1,113.053,330h5.025a1.649,1.649,0,0,1,1.653,1.653v5.025A1.649,1.649,0,0,1,118.078,338.331Z" transform="translate(-111.4 -305.165)" fill="#923c8c"/>
                <path id="Path_1099" data-name="Path 1099" d="M118.078,393.831h-5.025a1.649,1.649,0,0,1-1.653-1.653v-5.025a1.649,1.649,0,0,1,1.653-1.653h5.025a1.649,1.649,0,0,1,1.653,1.653v5.025A1.649,1.649,0,0,1,118.078,393.831Z" transform="translate(-111.4 -348.27)" fill="#923c8c"/>
                <path id="Path_1100" data-name="Path 1100" d="M118.078,227.131h-5.025a1.649,1.649,0,0,1-1.653-1.653v-5.025a1.649,1.649,0,0,1,1.653-1.653h5.025a1.649,1.649,0,0,1,1.653,1.653v5.025A1.663,1.663,0,0,1,118.078,227.131Z" transform="translate(-111.4 -218.8)" fill="#923c8c"/>
              </g>
              <g id="Group_436" data-name="Group 436" transform="translate(4.556 1.385)">
                <g id="Group_435" data-name="Group 435">
                  <path id="Path_1101" data-name="Path 1101" d="M133.051,227.5a1.251,1.251,0,1,1,1.251-1.251A1.249,1.249,0,0,1,133.051,227.5Z" transform="translate(-131.8 -225)" fill="#fff"/>
                  <ellipse id="Ellipse_23" data-name="Ellipse 23" cx="1.251" cy="1.251" rx="1.251" ry="1.251" transform="translate(0 12.529)" fill="#fff"/>
                  <path id="Path_1102" data-name="Path 1102" d="M133.051,339.7a1.251,1.251,0,1,1,1.251-1.251A1.249,1.249,0,0,1,133.051,339.7Z" transform="translate(-131.8 -312.141)" fill="#fff"/>
                  <path id="Path_1103" data-name="Path 1103" d="M133.051,395.9a1.251,1.251,0,1,1,1.251-1.251A1.249,1.249,0,0,1,133.051,395.9Z" transform="translate(-131.8 -355.79)" fill="#fff"/>
                </g>
              </g>
            </g>
            <g id="Group_441" data-name="Group 441" transform="translate(21.329 50.542)">
              <g id="Group_438" data-name="Group 438">
                <path id="Path_1104" data-name="Path 1104" d="M172.878,282.931h-5.025a1.649,1.649,0,0,1-1.653-1.653v-5.025a1.649,1.649,0,0,1,1.653-1.653h5.025a1.649,1.649,0,0,1,1.653,1.653v5.025A1.649,1.649,0,0,1,172.878,282.931Z" transform="translate(-166.2 -262.138)" fill="#923c8c"/>
                <path id="Path_1105" data-name="Path 1105" d="M172.878,338.331h-5.025a1.649,1.649,0,0,1-1.653-1.653v-5.025A1.649,1.649,0,0,1,167.853,330h5.025a1.649,1.649,0,0,1,1.653,1.653v5.025A1.635,1.635,0,0,1,172.878,338.331Z" transform="translate(-166.2 -305.165)" fill="#923c8c"/>
                <path id="Path_1106" data-name="Path 1106" d="M172.878,393.831h-5.025a1.649,1.649,0,0,1-1.653-1.653v-5.025a1.649,1.649,0,0,1,1.653-1.653h5.025a1.649,1.649,0,0,1,1.653,1.653v5.025A1.635,1.635,0,0,1,172.878,393.831Z" transform="translate(-166.2 -348.27)" fill="#923c8c"/>
                <path id="Path_1107" data-name="Path 1107" d="M172.878,227.131h-5.025a1.649,1.649,0,0,1-1.653-1.653v-5.025a1.649,1.649,0,0,1,1.653-1.653h5.025a1.649,1.649,0,0,1,1.653,1.653v5.025A1.649,1.649,0,0,1,172.878,227.131Z" transform="translate(-166.2 -218.8)" fill="#923c8c"/>
              </g>
              <g id="Group_440" data-name="Group 440" transform="translate(4.578 1.385)">
                <g id="Group_439" data-name="Group 439">
                  <path id="Path_1108" data-name="Path 1108" d="M187.951,227.5a1.251,1.251,0,1,1,1.251-1.251A1.249,1.249,0,0,1,187.951,227.5Z" transform="translate(-186.7 -225)" fill="#fff"/>
                  <ellipse id="Ellipse_24" data-name="Ellipse 24" cx="1.251" cy="1.251" rx="1.251" ry="1.251" transform="translate(0 12.529)" fill="#fff"/>
                  <path id="Path_1109" data-name="Path 1109" d="M187.951,339.7a1.251,1.251,0,1,1,1.251-1.251A1.249,1.249,0,0,1,187.951,339.7Z" transform="translate(-186.7 -312.141)" fill="#fff"/>
                  <path id="Path_1110" data-name="Path 1110" d="M187.951,395.9a1.251,1.251,0,1,1,1.251-1.251A1.249,1.249,0,0,1,187.951,395.9Z" transform="translate(-186.7 -355.79)" fill="#fff"/>
                </g>
              </g>
            </g>
            <g id="Group_445" data-name="Group 445" transform="translate(33.59 50.542)">
              <g id="Group_442" data-name="Group 442">
                <path id="Path_1111" data-name="Path 1111" d="M227.778,282.931h-5.025a1.649,1.649,0,0,1-1.653-1.653v-5.025a1.649,1.649,0,0,1,1.653-1.653h5.025a1.649,1.649,0,0,1,1.653,1.653v5.025A1.649,1.649,0,0,1,227.778,282.931Z" transform="translate(-221.1 -262.138)" fill="#923c8c"/>
                <path id="Path_1112" data-name="Path 1112" d="M227.778,338.331h-5.025a1.649,1.649,0,0,1-1.653-1.653v-5.025A1.649,1.649,0,0,1,222.753,330h5.025a1.649,1.649,0,0,1,1.653,1.653v5.025A1.635,1.635,0,0,1,227.778,338.331Z" transform="translate(-221.1 -305.165)" fill="#923c8c"/>
                <path id="Path_1113" data-name="Path 1113" d="M227.778,393.831h-5.025a1.649,1.649,0,0,1-1.653-1.653v-5.025a1.649,1.649,0,0,1,1.653-1.653h5.025a1.649,1.649,0,0,1,1.653,1.653v5.025A1.635,1.635,0,0,1,227.778,393.831Z" transform="translate(-221.1 -348.27)" fill="#923c8c"/>
                <path id="Path_1114" data-name="Path 1114" d="M227.778,227.131h-5.025a1.649,1.649,0,0,1-1.653-1.653v-5.025a1.649,1.649,0,0,1,1.653-1.653h5.025a1.649,1.649,0,0,1,1.653,1.653v5.025A1.649,1.649,0,0,1,227.778,227.131Z" transform="translate(-221.1 -218.8)" fill="#923c8c"/>
              </g>
              <g id="Group_444" data-name="Group 444" transform="translate(4.578 1.385)">
                <g id="Group_443" data-name="Group 443">
                  <path id="Path_1115" data-name="Path 1115" d="M242.851,227.5a1.251,1.251,0,1,1,1.251-1.251A1.263,1.263,0,0,1,242.851,227.5Z" transform="translate(-241.6 -225)" fill="#fff"/>
                  <path id="Path_1116" data-name="Path 1116" d="M242.851,283.6a1.251,1.251,0,1,1,1.251-1.251A1.263,1.263,0,0,1,242.851,283.6Z" transform="translate(-241.6 -268.571)" fill="#fff"/>
                  <path id="Path_1117" data-name="Path 1117" d="M242.851,339.7a1.251,1.251,0,1,1,1.251-1.251A1.263,1.263,0,0,1,242.851,339.7Z" transform="translate(-241.6 -312.141)" fill="#fff"/>
                  <path id="Path_1118" data-name="Path 1118" d="M242.851,395.9a1.251,1.251,0,1,1,1.251-1.251A1.263,1.263,0,0,1,242.851,395.9Z" transform="translate(-241.6 -355.79)" fill="#fff"/>
                </g>
              </g>
            </g>
            <g id="Group_448" data-name="Group 448" transform="translate(45.851 50.542)">
              <path id="Path_1119" data-name="Path 1119" d="M282.678,282.931h-5.025A1.649,1.649,0,0,1,276,281.278v-5.025a1.649,1.649,0,0,1,1.653-1.653h5.025a1.649,1.649,0,0,1,1.653,1.653v5.025A1.663,1.663,0,0,1,282.678,282.931Z" transform="translate(-276 -262.138)" fill="#923c8c"/>
              <path id="Path_1120" data-name="Path 1120" d="M282.678,227.131h-5.025A1.649,1.649,0,0,1,276,225.478v-5.025a1.649,1.649,0,0,1,1.653-1.653h5.025a1.649,1.649,0,0,1,1.653,1.653v5.025A1.663,1.663,0,0,1,282.678,227.131Z" transform="translate(-276 -218.8)" fill="#923c8c"/>
              <g id="Group_447" data-name="Group 447" transform="translate(4.556 1.385)">
                <g id="Group_446" data-name="Group 446">
                  <path id="Path_1121" data-name="Path 1121" d="M297.651,227.5a1.251,1.251,0,1,1,1.251-1.251A1.249,1.249,0,0,1,297.651,227.5Z" transform="translate(-296.4 -225)" fill="#fff"/>
                  <path id="Path_1122" data-name="Path 1122" d="M297.651,283.6a1.251,1.251,0,1,1,1.251-1.251A1.249,1.249,0,0,1,297.651,283.6Z" transform="translate(-296.4 -268.571)" fill="#fff"/>
                </g>
              </g>
            </g>
            <path id="Path_1123" data-name="Path 1123" d="M114.2,122.933h-3.685a1.117,1.117,0,1,1,0-2.233H114.2a1.106,1.106,0,0,1,1.117,1.117A1.12,1.12,0,0,1,114.2,122.933Z" transform="translate(-100.757 -92.067)" fill="#923c8c"/>
          </g>
        </g>
        <path id="Path_1124" data-name="Path 1124" d="M380.117,247.589a1.048,1.048,0,0,1-.782-.335,1.106,1.106,0,0,1,0-1.586l2.233-2.233a1.121,1.121,0,1,1,1.586,1.586l-2.233,2.233A1.133,1.133,0,0,1,380.117,247.589Z" transform="translate(-294.355 -187.131)" fill="#923c8c"/>
      </g>
      <path id="Path_1125" data-name="Path 1125" d="M33.117,252.589a1.048,1.048,0,0,1-.782-.335,1.106,1.106,0,0,1,0-1.586l2.233-2.233a1.121,1.121,0,0,1,1.586,1.586l-2.233,2.233A1.133,1.133,0,0,1,33.117,252.589Z" transform="translate(-24.854 -191.014)" fill="#923c8c"/>
      <path id="Path_1126" data-name="Path 1126" d="M406.217,417.189a1.047,1.047,0,0,1-.782-.335,1.106,1.106,0,0,1,0-1.586l2.233-2.233a1.121,1.121,0,0,1,1.586,1.586l-2.233,2.233A1.133,1.133,0,0,1,406.217,417.189Z" transform="translate(-314.626 -318.853)" fill="#923c8c"/>
      <g id="Group_452" data-name="Group 452" transform="translate(52.596 11.034)">
        <path id="Path_1127" data-name="Path 1127" d="M241.106,46.389a1.048,1.048,0,0,1-.782-.335L238.872,44.6l-1.452,1.452a1.121,1.121,0,0,1-1.586-1.586l2.233-2.233a1.106,1.106,0,0,1,1.586,0l2.233,2.233a1.106,1.106,0,0,1,0,1.586A1.084,1.084,0,0,1,241.106,46.389Z" transform="translate(-235.5 -41.9)" fill="#923c8c"/>
      </g>
      <g id="Group_453" data-name="Group 453" transform="translate(83.506 69.593)">
        <path id="Path_1128" data-name="Path 1128" d="M379.506,308.589a1.048,1.048,0,0,1-.782-.335l-1.452-1.452-1.452,1.452a1.121,1.121,0,0,1-1.586-1.586l2.233-2.233a1.106,1.106,0,0,1,1.586,0l2.233,2.233a1.106,1.106,0,0,1,0,1.586A1.048,1.048,0,0,1,379.506,308.589Z" transform="translate(-373.9 -304.1)" fill="#923c8c"/>
      </g>
    </g>
  </g>
</svg>
