<svg xmlns="http://www.w3.org/2000/svg" width="138.013" height="80" viewBox="0 0 138.013 80"><g transform="translate(0.001 0.011)"><path d="M8.085,34.086a.815.815,0,0,1-1.129.238.882.882,0,0,1-.171-.1L3.454,29.048.123,23.925a.733.733,0,0,1,.2-1.017.749.749,0,0,1,.37-.1l6.092-.323,6.007-.409a.731.731,0,0,1,.807.646.847.847,0,0,1-.076.409l-2.686,5.532Zm2.676-20.332L8.73,10.341a.721.721,0,0,0-.949-.314.712.712,0,0,0-.313.314l-1.9,3.5-1.955,3.5a.818.818,0,0,0,.408,1.074,1.081,1.081,0,0,0,.237.057l3.986-.162h3.976a.808.808,0,0,0,.712-.894.733.733,0,0,0-.066-.247Zm18.515,9.762,10.8,2.519a.816.816,0,0,0,.949-.7.9.9,0,0,0,0-.276l-3.312-10.57L34.467,3.8a.73.73,0,0,0-.949-.428.683.683,0,0,0-.275.19l-7.592,8.127-7.592,8.051a.818.818,0,0,0,.161,1.169.873.873,0,0,0,.256.152ZM21.4,9.2l4.622-5.855a.723.723,0,0,0-.18-1.017.758.758,0,0,0-.3-.124L18.23,1.064,10.923,0a.731.731,0,0,0-.845.6.743.743,0,0,0,0,.38l2.79,7.006,2.686,6.911a.73.73,0,0,0,1.3.162Zm7.876,42.452,2.04,4.553a.892.892,0,0,0,.731.409h4.2a.731.731,0,0,0,.778-.684.771.771,0,0,0-.047-.295L24.721,28.316a.636.636,0,0,0-.645-.409H19.122a.636.636,0,0,0-.645.409L6.216,55.635a.732.732,0,0,0,.446.951.692.692,0,0,0,.285,0h4.223a.721.721,0,0,0,.645-.409l2.116-4.553a.655.655,0,0,1,.645-.409H28.621a.664.664,0,0,1,.655.437ZM22.291,35.493l4.223,9.658a.808.808,0,0,1-.531,1.017.739.739,0,0,1-.2,0h-8.37a.807.807,0,0,1-.759-.855.724.724,0,0,1,0-.2l4.223-9.639a.806.806,0,0,1,1.148-.3.789.789,0,0,1,.266.3Zm33.451.951h-3.9a.636.636,0,0,0-.645.409L47.7,45.312l-1.386,3.574a.721.721,0,0,1-1.376,0l-1.291-3.736L40.73,36.938a.655.655,0,0,0-.645-.494H35.852a.656.656,0,0,0-.655.951l7.592,18.621c.076.162,0,.409,0,.57l-3.245,7.481a.656.656,0,0,0,.645.951h3.9a.949.949,0,0,0,.731-.409L56.473,37.423a.732.732,0,0,0-.446-.951A.749.749,0,0,0,55.743,36.444Zm22.405-8.555H74.58a.807.807,0,0,0-.731.808v8.46a.817.817,0,0,1-.864.76.948.948,0,0,1-.361-.1,9.622,9.622,0,0,0-5.438-1.958c-5.846.019-10.249,3.679-10.249,10.722S61.427,57.1,67.377,57.1a7.527,7.527,0,0,0,5.447-1.9.806.806,0,0,1,1.139.1.77.77,0,0,1,.152.3v.409a.741.741,0,0,0,.731.646h3.331a.722.722,0,0,0,.731-.732h0V28.716a.8.8,0,0,0-.759-.808ZM67.709,40.579a5.931,5.931,0,1,1-5.77,6.093v-.1a5.614,5.614,0,0,1,5.267-5.931Zm34.5,7.719a.731.731,0,0,0,.731-.732h0c.484-7.8-3.654-11.787-10.23-11.787S81.991,40.17,81.991,46.349s4.119,10.836,11.1,10.836a12.608,12.608,0,0,0,8.038-2.766.723.723,0,0,0,.1-1.027h0l-2.192-2.12a.654.654,0,0,0-.949-.133l-.066.057a9.3,9.3,0,0,1-4.868,1.464c-3.084,0-5.115-1.388-5.846-3.336a.732.732,0,0,1,.446-.951.748.748,0,0,1,.285-.048ZM88.3,44.172a.732.732,0,0,1-.655-1.055,5.531,5.531,0,0,1,5.2-2.928c2.515,0,4.384,1.055,5.03,3a.732.732,0,0,1-.437.951.758.758,0,0,1-.294,0Zm35.719,12.443a.722.722,0,0,0,.731-.732V45.8c0-2.681,1.708-4.962,4.384-4.962s3.8,2.2,3.8,4.886V55.883a.731.731,0,0,0,.721.741h3.578a.722.722,0,0,0,.731-.732V45.721c0-6.1-2.847-9.6-8.607-9.6a7.056,7.056,0,0,0-5.988,2.766.815.815,0,0,1-1.148,0l-.066-.086a6.825,6.825,0,0,0-9.49-1.445l-.294.228a.72.72,0,0,1-1.025-.057.656.656,0,0,1-.19-.428h-.123a.636.636,0,0,0-.636-.656h-3.34a.741.741,0,0,0-.731.732V55.883a.731.731,0,0,0,.731.732h3.578a.731.731,0,0,0,.731-.732V45.8c0-2.681,1.537-5.038,4.3-5.038S119.8,43.117,119.8,45.8V55.883a.731.731,0,0,0,.731.732Z" transform="translate(0 0)" fill="#fff"/><path d="M68.871,76a4.263,4.263,0,0,1-4.081,4.474h-.172A3.612,3.612,0,0,1,61.5,78.839v4.79H60V71.855h1.475V73.33a3.583,3.583,0,0,1,3.114-1.638,4.254,4.254,0,0,1,4.263,4.254ZM67.4,76a2.951,2.951,0,0,0-2.951-2.951,3.037,3.037,0,0,0,0,5.988A2.951,2.951,0,0,0,67.4,76.089Zm7.3,3.037A2.558,2.558,0,0,0,77.072,77.8l1.226.757a4.091,4.091,0,0,1-3.6,1.916,4.254,4.254,0,0,1-4.5-4c0-.144,0-.278,0-.422a4.263,4.263,0,1,1,8.527.086h0a1.916,1.916,0,0,1-.086.651H71.659A2.8,2.8,0,0,0,74.7,79.04Zm-3.037-3.612h5.585a2.625,2.625,0,0,0-2.7-2.462A2.8,2.8,0,0,0,71.659,75.428ZM81.91,73.3V71.855H80.435v8.354H81.91V75.754a2.338,2.338,0,0,1,2.615-2.539V71.74A2.529,2.529,0,0,0,81.91,73.3Zm11.966-1.447v8.354H92.4V78.791a3.621,3.621,0,0,1-3.114,1.686,4.426,4.426,0,0,1,0-8.766A3.593,3.593,0,0,1,92.4,73.349V71.855ZM92.4,76.032a2.874,2.874,0,0,0-2.788-2.951H89.45a3.037,3.037,0,0,0,0,5.988A2.874,2.874,0,0,0,92.4,76.281Zm10.816,4.177-4.1-4.254,3.938-4.1h-1.8l-3.688,3.688v-7h-1.4V80.18h1.4V76.252L101.4,80.18ZM107.9,79.04a2.558,2.558,0,0,0,2.376-1.236l1.313.738a4.426,4.426,0,1,1-3.832-6.879,4.177,4.177,0,0,1,4.187,4.167,2.335,2.335,0,0,1,0,.259v.651h-7.051A2.874,2.874,0,0,0,107.9,79.04Zm-3.037-3.612h5.576a2.625,2.625,0,0,0-2.7-2.462,2.8,2.8,0,0,0-2.884,2.462Zm16.287-.843a3.114,3.114,0,0,0-3.3-2.874,3.008,3.008,0,0,0-2.7,1.389V71.855h-1.5v8.354h1.475V75.754c0-1.916,1.063-2.7,2.453-2.7a2.241,2.241,0,0,1,.441,0,1.916,1.916,0,0,1,1.61,2.117v5H121.1V75.093a3.112,3.112,0,0,0,0-.508Zm10.395-6.045V80.18h-1.475V78.791a3.593,3.593,0,0,1-3.162,1.686,4.426,4.426,0,0,1,0-8.766,3.574,3.574,0,0,1,3.114,1.638v-4.79ZM130.071,76a2.874,2.874,0,0,0-2.788-2.951h-.22a3.037,3.037,0,0,0,0,5.988,2.874,2.874,0,0,0,2.951-2.788,2.158,2.158,0,0,0,.01-.249Zm7.789,3.037a2.558,2.558,0,0,0,2.376-1.236l1.2.757a4.177,4.177,0,0,1-3.688,1.916,4.263,4.263,0,0,1-4.426-4.091v-.335a4.263,4.263,0,1,1,8.526.086h0a1.915,1.915,0,0,1-.086.651h-6.965a2.8,2.8,0,0,0,3.018,2.251Zm-3.037-3.612H140.4a2.625,2.625,0,0,0-2.7-2.462,2.8,2.8,0,0,0-2.874,2.462Z" transform="translate(-3.835 -3.64)" fill="#fff"/></g></svg>