<svg id="Layer_1" data-name="Layer 1" xmlns="http://www.w3.org/2000/svg" xmlns:xlink="http://www.w3.org/1999/xlink" viewBox="0 0 170 98.4"><defs><style>.cls-1{fill:url(#linear-gradient);}.cls-2{fill:#e65a0e;}</style><linearGradient id="linear-gradient" x1="2.22" y1="78.91" x2="165.93" y2="-0.72" gradientUnits="userSpaceOnUse"><stop offset="0" stop-color="#e65a0e"/><stop offset="0.16" stop-color="#e14720"/><stop offset="0.49" stop-color="#d41750"/><stop offset="0.55" stop-color="#d20d59"/><stop offset="1" stop-color="#963284"/></linearGradient></defs><title>logo-tr</title><path class="cls-1" d="M10,42.7a1,1,0,0,1-1.6.1L4.3,36.5.2,30.2a.9.9,0,0,1,.7-1.4l7.5-.4,7.4-.5a.9.9,0,0,1,.9,1.3L13.4,36Zm3.3-25-2.5-4.2a.9.9,0,0,0-1.6,0L6.9,17.8,4.5,22.1a1,1,0,0,0,.8,1.4l4.9-.2h4.9a1,1,0,0,0,.8-1.4Zm22.8,12,13.3,3.1a1,1,0,0,0,1.1-1.2l-4-13-4-13.1A.9.9,0,0,0,41,5.2l-9.3,10-9.3,9.9a1,1,0,0,0,.4,1.6ZM26.4,12.1l5.7-7.2a.9.9,0,0,0-.6-1.4l-9-1.4L13.5.8a.9.9,0,0,0-1,1.2l3.4,8.6,3.3,8.5a.9.9,0,0,0,1.6.2Zm9.7,52.2,2.5,5.6a1.1,1.1,0,0,0,.9.5h5.2a.9.9,0,0,0,.9-1.2L30.5,35.6a.8.8,0,0,0-.8-.5H23.6a.8.8,0,0,0-.8.5L7.7,69.2a.9.9,0,0,0,.9,1.2h5.2a.9.9,0,0,0,.8-.5l2.6-5.6a.8.8,0,0,1,.8-.5H35.3A.8.8,0,0,1,36.1,64.3ZM27.5,44.4l5.2,11.9a1,1,0,0,1-.9,1.3H21.5a1,1,0,0,1-.9-1.3l5.2-11.9A1,1,0,0,1,27.5,44.4Zm41.2,1.2H63.9a.8.8,0,0,0-.8.5L58.8,56.5l-1.7,4.4a.9.9,0,0,1-1.7,0l-1.6-4.6L50.2,46.2a.8.8,0,0,0-.8-.6H44.2a.8.8,0,0,0-.8,1.2l9.3,22.9c.1.2,0,.5,0,.7l-4,9.2a.8.8,0,0,0,.8,1.2h4.8a1.1,1.1,0,0,0,.9-.5L69.6,46.8A.9.9,0,0,0,68.7,45.6ZM96.3,35.1H91.9a1,1,0,0,0-.9,1V46.5a1,1,0,0,1-1.5.8,11.9,11.9,0,0,0-6.7-2.4c-7.2,0-12.6,4.5-12.6,13.1S75.7,71,83,71a9.3,9.3,0,0,0,6.7-2.4,1,1,0,0,1,1.6.5v.5a.9.9,0,0,0,.9.8h4.1a.9.9,0,0,0,.9-.9V36.1A1,1,0,0,0,96.3,35.1ZM83.4,50.7A7.3,7.3,0,1,1,76.3,58,6.9,6.9,0,0,1,83.4,50.7Zm42.5,9.5a.9.9,0,0,0,.9-.9c.6-9.6-4.5-14.5-12.6-14.5S101,50.2,101,57.8s5.1,13.3,13.7,13.3a15.5,15.5,0,0,0,9.9-3.4.9.9,0,0,0,.1-1.3L122,63.8a.8.8,0,0,0-1.2-.1,11.4,11.4,0,0,1-6,1.8c-3.8,0-6.3-1.7-7.2-4.1a.9.9,0,0,1,.9-1.2Zm-17.1-5.1a.9.9,0,0,1-.8-1.3,6.8,6.8,0,0,1,6.4-3.6c3.1,0,5.4,1.3,6.2,3.7a.9.9,0,0,1-.9,1.2Zm44,15.3a.9.9,0,0,0,.9-.9V57.1c0-3.3,2.1-6.1,5.4-6.1s4.7,2.7,4.7,6V69.5a.9.9,0,0,0,1,.9h4.3a.9.9,0,0,0,.9-.9V57c0-7.5-3.5-11.8-10.6-11.8a8.7,8.7,0,0,0-7.4,3.4,1,1,0,0,1-1.5-.1A8.4,8.4,0,0,0,138.4,47a.9.9,0,0,1-1.5-.6h-.1a.8.8,0,0,0-.9-.8h-4a.9.9,0,0,0-.9.9V69.5a.9.9,0,0,0,.9.9h4.4a.9.9,0,0,0,.9-.9V57.1c0-3.3,1.9-6.2,5.3-6.2s5.1,2.9,5.1,6.2V69.5a.9.9,0,0,0,.9.9Z" transform="translate(0 -0.8)"/><path class="cls-2" d="M81,90a5.2,5.2,0,0,1-5.2,5.4,4.4,4.4,0,0,1-3.8-2v5.8H70.2V84.9H72v1.8a4.4,4.4,0,0,1,3.8-2A5.2,5.2,0,0,1,81,90Zm-1.8,0a3.6,3.6,0,0,0-3.6-3.6,3.7,3.7,0,0,0,0,7.3A3.6,3.6,0,0,0,79.2,90Z" transform="translate(0 -0.8)"/><path class="cls-2" d="M88.1,93.7A3.1,3.1,0,0,0,91,92.2l1.5.9a5,5,0,0,1-4.4,2.3A5.2,5.2,0,0,1,82.6,90a5.2,5.2,0,1,1,10.4.1,2.5,2.5,0,0,1-.1.8H84.4A3.4,3.4,0,0,0,88.1,93.7Zm-3.7-4.4h6.8a3.2,3.2,0,0,0-3.3-3A3.4,3.4,0,0,0,84.4,89.3Z" transform="translate(0 -0.8)"/><path class="cls-2" d="M100.1,84.8v1.8c-1.6,0-3.2.7-3.2,3.1v5.4H95.1V84.9h1.8v1.8A3.1,3.1,0,0,1,100.1,84.8Z" transform="translate(0 -0.8)"/><path class="cls-2" d="M111.5,84.9V95.1h-1.8V93.4a4.4,4.4,0,0,1-3.8,2,5.4,5.4,0,0,1,0-10.7,4.4,4.4,0,0,1,3.8,2V84.9ZM109.7,90a3.5,3.5,0,0,0-3.6-3.6,3.7,3.7,0,0,0,0,7.3A3.5,3.5,0,0,0,109.7,90Z" transform="translate(0 -0.8)"/><path class="cls-2" d="M120.7,95.1,116,90.3v4.8h-1.7V80.9H116v8.5l4.5-4.5h2.2l-4.8,5,5,5.2Z" transform="translate(0 -0.8)"/><path class="cls-2" d="M128.6,93.7a3.1,3.1,0,0,0,2.9-1.5l1.6.9a5.4,5.4,0,1,1-4.7-8.4,5.1,5.1,0,0,1,5.1,5.4v.8h-8.6A3.5,3.5,0,0,0,128.6,93.7Zm-3.7-4.4h6.8a3.2,3.2,0,0,0-3.3-3A3.4,3.4,0,0,0,124.9,89.3Z" transform="translate(0 -0.8)"/><path class="cls-2" d="M144.7,88.9v6.2h-1.8V89a2.3,2.3,0,0,0-2.5-2.6c-1.7,0-3,.9-3,3.3v5.4h-1.8V84.9h1.8v1.5a3.7,3.7,0,0,1,3.3-1.7A3.8,3.8,0,0,1,144.7,88.9Z" transform="translate(0 -0.8)"/><path class="cls-2" d="M157.4,80.9V95.1h-1.8V93.4a4.4,4.4,0,0,1-3.8,2,5.4,5.4,0,0,1,0-10.7,4.4,4.4,0,0,1,3.8,2V80.9ZM155.6,90a3.5,3.5,0,0,0-3.6-3.6,3.7,3.7,0,0,0,0,7.3A3.5,3.5,0,0,0,155.6,90Z" transform="translate(0 -0.8)"/><path class="cls-2" d="M165.1,93.7a3.1,3.1,0,0,0,2.9-1.5l1.5.9a5.1,5.1,0,0,1-4.5,2.3,5.2,5.2,0,0,1-5.4-5.4,5.2,5.2,0,1,1,10.4.1,2.5,2.5,0,0,1-.1.8h-8.5A3.4,3.4,0,0,0,165.1,93.7Zm-3.7-4.4h6.8a3.2,3.2,0,0,0-3.3-3A3.4,3.4,0,0,0,161.4,89.3Z" transform="translate(0 -0.8)"/></svg>