<?xml version="1.0" encoding="utf-8"?>
<!-- Generator: Adobe Illustrator 25.2.1, SVG Export Plug-In . SVG Version: 6.00 Build 0)  -->
<svg version="1.1" id="Layer_1" xmlns="http://www.w3.org/2000/svg" xmlns:xlink="http://www.w3.org/1999/xlink" x="0px" y="0px"
	 viewBox="0 0 84.1 29" style="enable-background:new 0 0 84.1 29;" xml:space="preserve">
<style type="text/css">
	.st0{fill:#00427C;}
</style>
<g id="mavi" transform="translate(255.718 -1796.13)">
	<path id="Path_1228" class="st0" d="M-255.7,1803.9c0.1,0,0.3,0,0.4,0c2.2,0,4.5,0,6.7,0h0.4v2.8c0.1,0,0.1-0.1,0.2-0.2
		c1.4-2,3.8-3.2,6.3-3.1c1.6-0.1,3.2,0.4,4.5,1.5c0.3,0.2,0.5,0.5,0.8,0.8c0.2,0.3,0.4,0.6,0.6,0.9c0.1-0.1,0.2-0.2,0.2-0.3
		c1.3-1.7,3.2-2.7,5.3-2.9c1.4-0.2,2.9-0.1,4.3,0.4c2.1,0.7,3.6,2.6,3.9,4.7c0.1,0.7,0.2,1.4,0.2,2.1c0,4.5,0,9,0,13.5v0.4
		c-0.1,0-0.3,0-0.4,0c-2.3,0-4.7,0-7,0c-0.3,0-0.4-0.1-0.4-0.4c0-3.7,0-7.5,0-11.2c0-0.6-0.1-1.2-0.2-1.8c-0.2-0.9-1-1.5-1.9-1.5
		c-1.2-0.3-2.4,0.4-2.7,1.6c-0.1,0.4-0.2,0.9-0.3,1.3c0,0.3,0,0.5,0,0.8c0,3.6,0,7.2,0,10.8c0,0.3-0.1,0.4-0.4,0.4c-2.3,0-4.7,0-7,0
		h-0.4v-0.4c0-3.7,0-7.5,0-11.2c0-0.5-0.1-1.1-0.2-1.6c-0.2-0.9-1-1.6-2-1.6c-1.3-0.2-2.6,0.6-2.9,2c0,0.1,0,0.2,0,0.3
		c-0.1,0.5-0.1,1-0.1,1.4c0,3.6,0,7.1,0,10.7c0,0.5,0,0.5-0.4,0.5c-2.3,0-4.6,0-6.9,0c-0.1,0-0.3,0-0.4,0L-255.7,1803.9z"/>
	<path id="Path_1229" class="st0" d="M-214.8,1825.2c-0.5-0.1-1-0.1-1.5-0.2c-1.8-0.2-3.4-1.3-4.4-2.8c-0.6-1.1-0.9-2.4-0.8-3.6
		c0-2.2,1.3-4.1,3.3-4.9c1.3-0.6,2.6-0.9,4-1.1c1.5-0.2,3.1-0.5,4.6-0.7c0.2,0,0.4-0.1,0.6-0.2c0.6-0.2,1.1-0.7,1.1-1.4
		c0.1-0.7-0.2-1.4-0.9-1.7c-1.2-0.6-2.6-0.6-3.7,0.1c-0.6,0.3-0.9,1-0.9,1.6h-7.2c0.1-0.6,0.1-1.1,0.3-1.7c0.5-2,2-3.6,4-4.2
		c1.5-0.5,3-0.8,4.6-0.8c1.7-0.1,3.4,0,5.2,0.2c1.1,0.1,2.2,0.4,3.2,0.9c1.5,0.7,2.6,2.2,2.8,3.8c0.1,0.7,0.1,1.3,0.2,2
		c0,3.2,0,6.3,0,9.5c0,1.1,0.1,2.1,0.3,3.2c0.1,0.5,0.4,1,0.5,1.5c-0.1,0-0.2,0-0.3,0c-2.4,0-4.8,0-7.2,0c-0.3,0-0.4-0.1-0.4-0.3
		c-0.1-0.5-0.1-1.1-0.2-1.6c-0.1,0-0.1,0.1-0.1,0.1c-1.1,1.2-2.6,2-4.2,2.2c-0.5,0.1-0.9,0.1-1.4,0.2c-0.1,0-0.2,0-0.3,0.1
		L-214.8,1825.2z M-207.9,1815.3c-0.6,0.2-1.1,0.4-1.6,0.6s-1.1,0.3-1.6,0.4c-0.5,0.1-1,0.3-1.5,0.5c-0.9,0.4-1.3,1.4-0.9,2.3
		c0.1,0.3,0.3,0.6,0.6,0.8c0.6,0.5,1.4,0.6,2.1,0.5c1.1-0.1,2-0.7,2.4-1.7C-207.9,1817.7-207.8,1816.5-207.9,1815.3L-207.9,1815.3z"
		/>
	<path id="Path_1230" class="st0" d="M-171.6,1824.6c-0.1,0-0.2,0-0.3,0c-2.3,0-4.7,0-7,0c-0.3,0-0.4-0.1-0.4-0.4
		c0-5.9,0-11.7,0-17.6v-0.4l-0.1,0c0,0.1-0.1,0.2-0.1,0.3c-1.6,4.9-3.2,9.7-4.8,14.6c-0.4,1.1-0.7,2.2-1.1,3.3
		c0,0.2-0.2,0.3-0.4,0.3c0,0,0,0,0,0c-2.9,0-5.7,0-8.6,0c-0.2,0-0.4-0.1-0.4-0.3c0,0,0,0,0,0c-2.2-6.7-4.3-13.4-6.5-20.1
		c0-0.1,0-0.2-0.1-0.3h0.4c2.5,0,5,0,7.4,0c0.2,0,0.4,0.1,0.5,0.3c0,0,0,0,0,0c1,4,2,8,3,11.9c0,0.1,0.1,0.2,0.2,0.3
		c0-0.1,0.1-0.2,0.1-0.3c0.7-2.6,1.3-5.2,2-7.8c0.4-1.4,0.7-2.8,1.1-4.1c0-0.2,0.2-0.3,0.4-0.3c0,0,0,0,0,0c4.8,0,9.6,0,14.4,0
		c0.1,0,0.2,0,0.3,0L-171.6,1824.6z"/>
	<path id="Path_1231" class="st0" d="M-179.4,1796.1h7.7v5.5c-0.1,0-0.2,0-0.4,0c-2.3,0-4.7,0-7,0c-0.3,0-0.4-0.1-0.4-0.4
		c0-1.6,0-3.2,0-4.8C-179.4,1796.4-179.4,1796.3-179.4,1796.1z"/>
</g>
</svg>
