<svg xmlns="http://www.w3.org/2000/svg" xmlns:xlink="http://www.w3.org/1999/xlink" width="92.358" height="118.843" viewBox="0 0 92.358 118.843">
  <defs>
    <linearGradient id="linear-gradient" x1="0.823" y1="0.814" x2="-0.434" y2="-0.156" gradientUnits="objectBoundingBox">
      <stop offset="0" stop-color="#d2deff" stop-opacity="0"/>
      <stop offset="1" stop-color="#e5e5e5"/>
    </linearGradient>
    <linearGradient id="linear-gradient-2" x1="0.5" x2="0.5" y2="1" gradientUnits="objectBoundingBox">
      <stop offset="0" stop-color="#ea6424"/>
      <stop offset="0.483" stop-color="#d41c64"/>
      <stop offset="1" stop-color="#923c8c"/>
    </linearGradient>
  </defs>
  <g id="Group_539" data-name="Group 539" transform="translate(-1153.822 -824.748)">
    <path id="Path_1203" data-name="Path 1203" d="M138.946,39.19a22.079,22.079,0,0,0-6.547-4.506,28.369,28.369,0,0,1-14.235-14.493A33.779,33.779,0,1,0,59.609,53.212,29.135,29.135,0,0,1,63.49,78.677c-3.822,12.279-2.49,23.917,4.782,31.188,12.742,12.742,38.893,7.251,58.41-12.265s25.007-45.667,12.265-58.41Z" transform="translate(1100.363 826.855)" fill="url(#linear-gradient)"/>
    <g id="Group_510" data-name="Group 510" transform="translate(495.273 -772.818)">
      <g id="Group_377" data-name="Group 377" transform="translate(679.76 1622.126)">
        <path id="Path_1042" data-name="Path 1042" d="M211.7,26.863A1.133,1.133,0,0,0,212.837,28h7.59a1.133,1.133,0,1,0,0-2.267h-7.59A1.133,1.133,0,0,0,211.7,26.863Z" transform="translate(-194.536 -21.842)" fill="url(#linear-gradient-2)"/>
        <path id="Path_1043" data-name="Path 1043" d="M228.221,445.377a3.486,3.486,0,1,0-3.486,3.486A3.489,3.489,0,0,0,228.221,445.377Zm-4.7,0a1.219,1.219,0,1,1,1.219,1.219A1.22,1.22,0,0,1,223.517,445.377Z" transform="translate(-202.64 -375.111)" fill="url(#linear-gradient-2)"/>
        <path id="Path_1044" data-name="Path 1044" d="M271.8,88.688h14.283a1.133,1.133,0,1,0,0-2.267H271.8a1.133,1.133,0,0,0,0,2.267Z" transform="translate(-244.588 -73.361)" fill="url(#linear-gradient-2)"/>
        <path id="Path_1045" data-name="Path 1045" d="M271.8,118.288h14.283a1.133,1.133,0,1,0,0-2.267H271.8a1.133,1.133,0,0,0,0,2.267Z" transform="translate(-244.588 -98.488)" fill="url(#linear-gradient-2)"/>
        <path id="Path_1046" data-name="Path 1046" d="M287.216,146.755a1.133,1.133,0,0,0-1.133-1.133H271.8a1.133,1.133,0,0,0,0,2.267h14.283a1.133,1.133,0,0,0,1.133-1.133Z" transform="translate(-244.588 -123.615)" fill="url(#linear-gradient-2)"/>
        <path id="Path_1047" data-name="Path 1047" d="M117.653,0H104.388A6.293,6.293,0,0,0,98.1,6.285v64.8a6.293,6.293,0,0,0,6.286,6.286h31.621a6.293,6.293,0,0,0,6.286-6.286V29.413a4.291,4.291,0,0,0,3.532-4.218V12.1a4.291,4.291,0,0,0-3.532-4.217V6.285A6.293,6.293,0,0,0,136.009,0H122.942a1.133,1.133,0,1,0,0,2.267h13.067a4.023,4.023,0,0,1,4.019,4.019V7.812h-35.64A1.593,1.593,0,0,0,102.8,9.4V64.184a1.593,1.593,0,0,0,1.591,1.591h31.621a1.593,1.593,0,0,0,1.591-1.591V48.834a1.133,1.133,0,0,0-2.267,0V63.508h-30.27V15.961h14.1V25.2c0,.111.006.22.014.328a12.5,12.5,0,1,0,10.192,3.957h5.376c-.124.227-.036.081-1.83,2.9a1.678,1.678,0,0,0,2.105,2.431l.311-.14v8.871a1.133,1.133,0,1,0,2.267,0V33.623a9.5,9.5,0,0,0,2.428-1.876V71.09a4.023,4.023,0,0,1-4.019,4.019H104.387a4.023,4.023,0,0,1-4.019-4.019V6.285a4.023,4.023,0,0,1,4.019-4.019h13.265a1.133,1.133,0,0,0,0-2.267Zm-8.962,13.695h-3.628V10.079h3.628Zm10.473-1.6v1.6h-8.206V10.079h8.712a4.313,4.313,0,0,0-.506,2.018Zm7.172,34.078a10.218,10.218,0,0,1-12.275,0V43.507A2.508,2.508,0,0,1,116.566,41h7.265a2.508,2.508,0,0,1,2.505,2.505ZM117.173,35.71a3.025,3.025,0,1,1,3.025,3.025,3.028,3.028,0,0,1-3.025-3.025Zm13.264,2.275a10.178,10.178,0,0,1-1.835,5.838v-.316a4.779,4.779,0,0,0-4.1-4.724,5.292,5.292,0,1,0-8.608,0,4.779,4.779,0,0,0-4.1,4.724v.316a10.231,10.231,0,0,1,8.215-16.076,4.293,4.293,0,0,0,3.44,1.733H125.9a10.187,10.187,0,0,1,4.539,8.5Zm9.137-9.54a7.224,7.224,0,0,1-3.688,3.493,11.732,11.732,0,0,0,1.339-2.44,1.691,1.691,0,0,0-1.58-2.284h-12.2a2.034,2.034,0,0,1-2.018-2.018V12.1a2.02,2.02,0,0,1,2.018-2.018h18.092a2.02,2.02,0,0,1,2.018,2.018V25.2a2.021,2.021,0,0,1-2.018,2.018A2.206,2.206,0,0,0,139.574,28.445Z" transform="translate(-98.102 0)" fill="url(#linear-gradient-2)"/>
      </g>
    </g>
    <g id="Group_524" data-name="Group 524" transform="translate(1160.551 854.172)">
      <path id="Path_1079" data-name="Path 1079" d="M397.2,152.728a1.14,1.14,0,0,1-.806-1.946l2.28-2.28a1.14,1.14,0,0,1,1.612,1.612l-2.28,2.28A1.137,1.137,0,0,1,397.2,152.728Z" transform="translate(-343.121 -162.168)" fill="#923c8c"/>
      <path id="Path_1080" data-name="Path 1080" d="M389.682,403.877a1.14,1.14,0,0,1-.806-1.946l2.28-2.28a1.14,1.14,0,0,1,1.612,1.612l-2.28,2.28A1.136,1.136,0,0,1,389.682,403.877Z" transform="translate(-314.047 -333.533)" fill="#923c8c"/>
      <path id="Path_1204" data-name="Path 1204" d="M58.558,164.94a1.14,1.14,0,0,1-.806-1.946l2.28-2.28a1.14,1.14,0,0,1,1.612,1.612l-2.28,2.28A1.136,1.136,0,0,1,58.558,164.94Z" transform="translate(-55.297 -151.316)" fill="#923c8c"/>
      <path id="Path_1205" data-name="Path 1205" d="M58.558,164.94a1.14,1.14,0,0,1-.806-1.946l2.28-2.28a1.14,1.14,0,0,1,1.612,1.612l-2.28,2.28A1.136,1.136,0,0,1,58.558,164.94Z" transform="translate(11.797 -132.316)" fill="#923c8c"/>
      <path id="Path_1200" data-name="Path 1200" d="M58.558,164.94a1.14,1.14,0,0,1-.806-1.946l2.28-2.28a1.14,1.14,0,0,1,1.612,1.612l-2.28,2.28A1.136,1.136,0,0,1,58.558,164.94Z" transform="translate(-36.577 -83.596)" fill="#923c8c"/>
    </g>
    <g id="Group_525" data-name="Group 525" transform="translate(1175.033 824.748)">
      <path id="Path_1083" data-name="Path 1083" d="M420.69,109.733a1.136,1.136,0,0,1-.806-.334l-1.474-1.474-1.474,1.474a1.14,1.14,0,0,1-1.612-1.612l2.28-2.28a1.14,1.14,0,0,1,1.612,0l2.28,2.28a1.14,1.14,0,0,1-.806,1.946Z" transform="translate(-414.99 -105.173)" fill="#923c8c"/>
    </g>
    <g id="Group_526" data-name="Group 526" transform="translate(1153.822 895.892)">
      <path id="Path_1083-2" data-name="Path 1083" d="M420.69,109.733a1.136,1.136,0,0,1-.806-.334l-1.474-1.474-1.474,1.474a1.14,1.14,0,0,1-1.612-1.612l2.28-2.28a1.14,1.14,0,0,1,1.612,0l2.28,2.28a1.14,1.14,0,0,1-.806,1.946Z" transform="translate(-414.99 -105.173)" fill="#923c8c"/>
    </g>
  </g>
</svg>
