<?xml version="1.0" encoding="utf-8"?>
<!-- Generator: Adobe Illustrator 25.2.1, SVG Export Plug-In . SVG Version: 6.00 Build 0)  -->
<svg version="1.1" id="Layer_1" xmlns="http://www.w3.org/2000/svg" xmlns:xlink="http://www.w3.org/1999/xlink" x="0px" y="0px"
	 viewBox="0 0 141.7 40.7" style="enable-background:new 0 0 141.7 40.7;" xml:space="preserve">
<style type="text/css">
	.st0{fill:#6D2595;}
</style>
<g id="Morhipo" transform="translate(116.353 -775.482)">
	<g id="Group_527" transform="translate(-116.353 775.482)">
		<path id="Path_1206" class="st0" d="M71.6,1.6h-3.1v-1L76.5,0v16.3l0.1,0c0.1-0.1,0.1-0.2,0.2-0.3c1.2-2.7,4.1-4.2,7-3.7
			c0.6,0.1,1.2,0.2,1.7,0.4c2.2,0.7,2.9,1.5,2.9,3.8c0.1,3.9,0.1,7.7,0.2,11.6c0,0.3,0,0.6,0,0.9h4.7V13.7h-3.2v-1.2h8V29h3.2v1.1
			H81.1V29h2.7c0-0.2,0.1-0.3,0.1-0.5c0-3.7,0-7.4,0-11.1c0-0.4,0-0.9-0.1-1.3c0-1.3-1.1-2.3-2.4-2.3c-0.4,0-0.8,0.1-1.2,0.4
			c-1.8,0.8-3.1,2.6-3.3,4.5c-0.3,3.4-0.3,6.8-0.5,10.3h2.8v1.1H68.7V29h2.8L71.6,1.6z"/>
		<path id="Path_1207" class="st0" d="M3,13.7H0v-1.2h7.7v3.9c1.2-2.3,2.9-3.9,5.6-4.1c2.7-0.2,4.7,0.8,5.7,3.5
			c0.6-0.7,1.1-1.3,1.6-1.9c2-1.8,4.9-2.2,7.3-1.1c1.2,0.5,2,1.7,2,3c0.1,1.4,0.2,2.7,0.2,4.1c0,2.7,0,5.4,0,8.1v0.9H33v1.1h-9.8V29
			h2.2c0-0.3,0.1-0.5,0.1-0.7c0-4,0-8.1,0-12.1c0-2-1-2.7-2.9-2.1c-1.1,0.4-2,1.2-2.5,2.2c-0.7,1.2-1,2.6-1,4c0,2.7,0,5.4,0,8.1
			c0,0.2,0,0.3,0.1,0.6h2.3v1.1H12V29h2.2c0-0.3,0-0.5,0-0.8c0-4,0-8,0-11.9c0-0.8-0.1-1.7-0.9-2.1c-0.9-0.5-1.9-0.4-2.7,0.3
			C9,15.6,8,17.3,7.9,19.3c-0.2,3.2-0.1,6.3-0.1,9.5c0,0,0,0.1,0.1,0.2h2.3v1.1h-10V29H3L3,13.7z"/>
		<path id="Path_1208" class="st0" d="M108,27.6v11.7h3v1.1h-11v-1h3.1V13.7H100v-1.2h8v3.2c0.6-0.8,1.3-1.5,2-2.1
			c2.5-2,6-1.7,8.6,0.6c4,3.6,4.3,9.8,0.7,13.8c-0.5,0.6-1.2,1.1-1.8,1.6c-1.9,1.2-4.2,1.5-6.3,0.8C109.8,30,108.6,29,108,27.6z
			 M116.5,21.6L116.5,21.6c0-1.7,0-3.5,0-5.2c0-1.8-0.8-2.8-2.3-3.1c-2.6-0.5-6,2.1-6.1,4.8c-0.1,2.3-0.1,4.5,0,6.8
			c0.2,2.3,1.7,4.2,3.9,4.8c2.6,0.5,4.6-0.4,4.5-3.4C116.5,24.7,116.5,23.2,116.5,21.6L116.5,21.6z"/>
		<path id="Path_1209" class="st0" d="M32.8,21.6c0-5.2,4.2-9.3,9.4-9.3c5.2,0,9.3,4.2,9.3,9.4l0,0c-0.1,5.2-4.4,9.2-9.6,9.1
			C36.9,30.7,32.9,26.6,32.8,21.6z M46.2,21.8c-0.1-2.1-0.2-3.7-0.3-5.4c0-1.6-1.2-3-2.9-3.1c-0.5-0.1-1-0.1-1.5,0
			c-1.7,0-3,1.3-3.1,2.9c-0.2,1.5-0.3,3.1-0.3,4.6c0,2.2,0.2,4.5,0.4,6.7c0.1,1.1,1,2,2,2.1c0.9,0.2,1.8,0.2,2.8,0.1
			c1.3-0.1,2.3-1.2,2.4-2.5C46,25.3,46.1,23.4,46.2,21.8L46.2,21.8z"/>
		<path id="Path_1210" class="st0" d="M141.7,21.3c0.3,4.8-3.8,9.2-8.9,9.5c-4.9,0.3-9.5-3.7-9.8-8.5c-0.4-5.1,3.4-9.6,8.6-10
			s9.6,3.4,10,8.6C141.6,21,141.6,21.2,141.7,21.3L141.7,21.3z M128.2,21.8c0.2,1.7,0.3,3.7,0.5,5.7c0.1,1.1,1,2,2.1,2.2
			c0.9,0.2,1.7,0.2,2.6,0.1c1.3-0.1,2.4-1.2,2.5-2.5c0.5-3.6,0.5-7.3,0.1-10.9c0-1.5-1.1-2.8-2.6-2.9c-0.6-0.1-1.1-0.1-1.7-0.1
			c-1.7-0.1-3.1,1.3-3.2,2.9C128.4,17.9,128.3,19.7,128.2,21.8L128.2,21.8z"/>
		<path id="Path_1211" class="st0" d="M54.8,13.7h-2.8v-1.2h7.7v4.6c0.6-0.9,1-1.6,1.5-2.2c1-1.7,2.9-2.6,4.8-2.6
			c1.5-0.1,2.8,0.8,3.3,2.2c0.3,1-0.1,2.2-1,2.8c-1,0.6-2.3,0.5-3.2-0.2c-0.6-0.5-0.8-1.2-0.7-1.9c0-0.4,0-0.7-0.1-1.1
			c-0.4,0-0.7,0.1-1.1,0.3c-1,0.6-1.7,1.5-2.2,2.6c-0.9,2-1.4,4.1-1.4,6.3c-0.1,1.9,0,3.8,0,5.7h3.9v1.1H52.2V29h2.5V13.7z"/>
		<path id="Path_1212" class="st0" d="M132.7,34.4c0,0.3,0,0.6,0.1,1c1.5-1.6,2.9-1.6,3.8-0.2c0.6-0.4,1.3-0.7,2.1-0.9
			c1.3-0.2,1.9,0.4,1.9,1.7c0,1.1,0,2.2,0,3.3c0,0.2,0,0.4,0,0.7l1,0.1c-0.3,0.4-2.6,0.5-3.7,0.2l1-0.3c0-1.5,0-3.1,0-4.6
			c0-0.5-0.5-0.6-0.9-0.5c-0.7,0.2-1.1,0.8-1.2,1.5c-0.1,1.2,0,2.4,0,3.7l0.8,0.2l0,0.2h-3.3l0-0.2l0.8-0.2c0-1.5,0-2.9,0-4.4
			c0-0.7-0.7-1.1-1.2-0.6c-0.5,0.5-0.8,1.1-1,1.7c-0.1,1.1-0.1,2.2,0,3.3l0.8,0.1c-0.4,0.4-3,0.5-3.7,0l1.1-0.2v-5.2l-1-0.2
			c0-0.1,0-0.2,0-0.3L132.7,34.4z"/>
		<path id="Path_1213" class="st0" d="M93,4.3c0-1.4,1.2-2.5,2.6-2.5c1.4,0,2.5,1.2,2.5,2.6c0,1.4-1.1,2.5-2.5,2.5
			C94.1,6.9,93,5.7,93,4.3C93,4.3,93,4.3,93,4.3z"/>
		<path id="Path_1214" class="st0" d="M126.4,40.7c-1.8,0-3.2-1.4-3.2-3.2c0-1.8,1.5-3.3,3.3-3.3c1.8,0,3.3,1.5,3.3,3.3l0,0
			C129.7,39.3,128.2,40.7,126.4,40.7z M125,37.4c0.1,0.7,0.1,1.4,0.2,2.1c0.1,0.7,0.7,0.9,1.3,0.9s1.2-0.3,1.2-0.9
			c0.1-1.3,0.1-2.6,0-3.9c0-0.7-0.6-1-1.2-1s-1.2,0.1-1.3,0.9C125.1,36.1,125.1,36.8,125,37.4L125,37.4z"/>
		<path id="Path_1215" class="st0" d="M122.4,38.3c0.1,1.2-0.8,2.3-2.1,2.4c-1.3,0.2-2.6-0.5-3.2-1.8c-0.6-1.3-0.3-2.8,0.6-3.8
			c1-0.9,2.5-1.2,3.7-0.6c0.6,0.3,1,0.7,0.9,1.4c-0.1,0.3-0.3,0.6-0.6,0.7c-0.3,0-0.7-0.1-1-0.3c-0.1-0.3-0.1-0.6,0.1-0.9
			c0.4-0.5,0.2-0.7-0.3-0.8c-0.6-0.3-1.4,0-1.7,0.6c-0.1,0.2-0.1,0.4-0.1,0.6c-0.1,1.1-0.1,2.1-0.1,3.2c-0.1,0.8,0.5,1.4,1.3,1.5
			c0.4,0,0.7-0.1,1-0.3c0.4-0.3,0.8-0.7,1.1-1.2C122.2,38.8,122.3,38.5,122.4,38.3z"/>
		<path id="Path_1216" class="st0" d="M115.3,39.7c0,0.6-0.5,1-1,1s-1-0.5-1-1s0.5-1,1-1S115.3,39.2,115.3,39.7z"/>
	</g>
</g>
</svg>
