<?xml version="1.0" encoding="utf-8"?>
<!-- Generator: Adobe Illustrator 25.2.1, SVG Export Plug-In . SVG Version: 6.00 Build 0)  -->
<svg version="1.1" id="Layer_1" xmlns="http://www.w3.org/2000/svg" xmlns:xlink="http://www.w3.org/1999/xlink" x="0px" y="0px"
	 viewBox="0 0 96.2 30" style="enable-background:new 0 0 96.2 30;" xml:space="preserve">
<style type="text/css">
	.st0{fill:#0082CA;}
</style>
<g id="Opet" transform="translate(585.168 -471.9)">
	<path id="Path_1009" class="st0" d="M-528,481.6L-528,481.6c0-0.1,0-0.1,0-0.2c-0.2-0.6-0.4-1.2-0.6-1.7c-0.4-0.9-0.9-1.7-1.7-2.3
		c-0.6-0.6-1.3-1-2-1.4c-1.1-0.6-2.3-0.9-3.6-0.9c-1.1,0-2.2,0-3.3,0.1c-1.4,0.2-2.7,0.6-3.9,1.2c-0.1,0.1-0.2,0.2-0.3,0.3
		c-0.1,0-0.2,0-0.3,0.1c-0.7,0.5-1.4,1-2,1.6c-0.8,0.8-1.4,1.6-2,2.6c-0.8,1.3-1.3,2.7-1.7,4.2c-0.4,1.5-0.8,3-1.2,4.4
		c-0.3,1-0.6,2.1-0.8,3.1c-0.4,1.6-0.9,3.2-1.3,4.8c-0.3,1.2-0.6,2.3-1,3.5c-0.1,0.4-0.2,0.7-0.3,1.1c0,0,0.1,0,0.1,0
		c1.9,0,3.8,0,5.7,0c0.1,0,0.2-0.1,0.2-0.2c0.2-0.6,0.3-1.1,0.5-1.7c0.1-0.5,0.3-1,0.4-1.5c0.2-0.8,0.5-1.7,0.7-2.5
		c0-0.2,0.1-0.3,0.3-0.1c0.9,0.8,2,1.3,3.2,1.5c1.3,0.3,2.7,0.4,4,0.2c1.4-0.1,2.8-0.6,4-1.4c0.2-0.1,0.3-0.2,0.5-0.3l0,0l0.1-0.1
		l0,0l0.1-0.1c0,0,0,0,0,0c0,0,0,0,0,0c0,0,0,0,0,0l0,0l0,0l0,0l0,0l0.2-0.1l0,0c0.2-0.1,0.4-0.3,0.6-0.4c1.3-1,2.4-2.3,3.2-3.7
		c0.6-1,1.1-2.1,1.5-3.2c0.3-0.9,0.5-1.8,0.6-2.8c0.1-0.9,0.1-1.8,0.1-2.7C-527.8,482.3-527.9,481.9-528,481.6z M-537.4,491.8
		L-537.4,491.8L-537.4,491.8L-537.4,491.8l-0.3,0.4L-537.4,491.8z M-534.8,488.1c-0.5,1.4-1.4,2.6-2.5,3.6c0,0-0.1,0.1-0.1,0.2
		c-0.2,0.1-0.5,0.3-0.7,0.4c-0.8,0.4-1.7,0.5-2.6,0.3c-1.2-0.1-2.2-0.9-2.8-1.9c-0.4-0.8-0.5-1.6-0.4-2.5c0.1-0.8,0.3-1.5,0.4-2.3
		c0-0.1,0-0.1-0.1-0.2c0-0.1-0.1-0.1,0-0.2l0.2,0.2c0.2-0.5,0.4-1,0.6-1.5c0.6-1.5,1.7-2.7,3.1-3.5c0.8-0.4,1.8-0.5,2.7-0.4
		c0.8,0.1,1.5,0.4,2,1c0.6,0.6,0.9,1.4,0.9,2.2C-533.9,484.9-534.2,486.5-534.8,488.1L-534.8,488.1z M-533.7,495.5L-533.7,495.5
		L-533.7,495.5L-533.7,495.5z"/>
	<path id="Path_1010" class="st0" d="M-505.6,480.4c-0.1-1.3-0.7-2.6-1.7-3.5c-1.3-1.1-2.9-1.9-4.7-2c-1.7-0.1-3.5,0-5.2,0.5
		c-2,0.6-3.9,1.7-5.4,3.2c-1,1-1.8,2-2.5,3.2c-0.6,0.9-1,1.9-1.3,3c-0.6,1.8-0.8,3.7-0.6,5.6c0.1,0.9,0.3,1.8,0.6,2.6
		c0.7,1.6,2.1,2.9,3.8,3.6c1.5,0.6,3.2,0.9,4.8,0.9c0.8,0,1.6,0,2.3-0.1c1.2-0.2,2.4-0.4,3.6-0.6c0.4-0.1,0.7-0.2,1.1-0.3
		c0.2,0,0.4-0.2,0.5-0.4c0.3-1.2,0.7-2.4,1-3.6c0.1-0.3,0.1-0.6,0.2-0.9c-0.5,0.1-0.9,0.3-1.3,0.4c-1.2,0.3-2.5,0.6-3.7,0.7
		c-1,0-2,0.1-3.1,0.1c-0.5,0-0.9-0.1-1.3-0.2c-0.9-0.2-1.7-0.7-2.2-1.6c-0.3-0.5-0.4-1-0.3-1.6c1.2,0,2.4-0.1,3.5-0.1
		c0.6,0,1.2-0.1,1.8-0.1c0.9-0.1,1.9-0.3,2.8-0.5c1.4-0.3,2.8-0.8,4-1.6c0.1-0.1,0.1-0.1,0.2-0.2l0,0c0.1,0,0.2-0.1,0.3-0.2
		c0.5-0.5,1.1-1.1,1.5-1.7C-505.8,483.7-505.4,482.1-505.6,480.4z M-511.6,483.3c0,0.1-0.1,0.1-0.1,0.2l0.1,0l-0.1,0l0,0h0l0,0v0
		c-0.2,0.1-0.4,0.2-0.6,0.4c0,0,0,0.1,0,0.1l0.1,0l0.1-0.1l0.1-0.1l-0.1,0.1l-0.1,0.1l-0.1,0c-0.3,0.1-0.6,0.2-0.9,0.3
		c-0.8,0.2-1.6,0.4-2.4,0.6c-1.1,0.1-2.2,0.2-3.2,0.2c-0.5,0-1,0-1.5-0.1c0.1-0.4,0.3-0.7,0.4-1c0.7-1.3,1.6-2.4,2.8-3.3
		c0.9-0.6,1.9-1,3-1.2c0.7-0.1,1.3-0.1,2,0.1c0.7,0.2,1.2,0.9,1.2,1.6C-510.9,482-511.2,482.8-511.6,483.3L-511.6,483.3z"/>
	<path id="Path_1011" class="st0" d="M-489,475.2h-7.1l0.9-3.3c0,0-0.1,0-0.1,0c-1.9,0-3.8,0-5.7,0c-0.1,0-0.2,0.1-0.2,0.2
		c-0.2,0.8-0.5,1.6-0.7,2.4c-0.1,0.3-0.1,0.6-0.1,0.9c-0.1,0.1-0.1,0.2-0.1,0.2c-0.1,0.4-0.3,0.9-0.4,1.3c-0.2,0.8-0.4,1.6-0.6,2.4
		c-0.3,1.1-0.6,2.3-0.9,3.4c-0.2,0.9-0.5,1.7-0.7,2.5c-0.2,0.9-0.4,1.9-0.5,2.8c-0.2,1.1-0.2,2.2-0.1,3.3c0.2,1,0.5,1.9,1.1,2.8
		c0.4,0.6,1,1.2,1.5,1.7c0.8,0.7,1.7,1.1,2.7,1.4c0.7,0.2,1.5,0.3,2.3,0.3c0.8,0,1.5,0,2.3,0c0.9-0.1,1.9-0.3,2.8-0.5
		c0.3-0.1,0.5-0.1,0.6-0.5c0.2-1,0.5-1.9,0.7-2.9c0.1-0.5,0.3-1,0.4-1.6c-0.1,0-0.2,0-0.2,0.1c-1.4,0.5-2.9,0.7-4.5,0.7
		c-0.8,0-1.7-0.2-2.4-0.7c-0.7-0.5-1.2-1.2-1.4-2.1c-0.1-1.1,0-2.2,0.3-3.2c0.2-0.9,0.4-1.8,0.7-2.7c0.3-1.2,0.6-2.3,0.9-3.5
		c0-0.3,0.2-0.5,0.5-0.4c0,0,0,0,0,0c2.1,0,4.3,0,6.4,0c0.3,0,0.4-0.1,0.5-0.4c0.1-0.3,0.2-0.6,0.2-0.9c0.3-1.1,0.6-2.2,0.9-3.3
		C-489,475.4-489,475.3-489,475.2z"/>
	<path id="Path_1012" class="st0" d="M-553.3,491.3c0.1-0.1,0.1-0.1,0.1-0.2c0.8-1.2,1.5-2.6,1.9-4c0.3-1,0.5-2,0.5-3
		c0-0.6,0-1.1,0-1.7c0-0.7-0.1-1.5-0.4-2.1c-0.3-0.7-0.6-1.3-1-2c-0.3-0.4-0.7-0.7-1.1-1.1c0,0,0,0,0,0l0,0l-0.1,0l-0.1,0v0l0-0.1
		l-0.4-0.4l0,0c-0.3-0.3-0.8-0.6-1.3-0.7c-0.1-0.1-0.3-0.2-0.4-0.3c-1.4-0.5-2.8-0.7-4.3-0.7c-5.4,0-10.9,0-16.3,0
		c-0.2,0-0.4,0.1-0.4,0.3c0,0,0,0,0,0c-0.2,0.9-0.5,1.8-0.7,2.7c0,0.1,0,0.3,0,0.4c-0.2,0.5-0.3,1-0.5,1.5h8.2
		c-1,1.1-1.8,2.3-2.4,3.6h-11.3c-0.5,0-0.5,0-0.6,0.5c-0.2,0.9-0.5,1.7-0.7,2.6c-0.2,0.6-0.3,1.2-0.5,1.8h11.8l0.4,3.6h-5.4
		c-0.8,0-1.6,0-2.3,0c-0.1,0-0.2,0.1-0.3,0.2c-0.4,1.2-0.7,2.5-1,3.7c-0.1,0.3-0.2,0.7-0.3,1h0.4c5.5,0,11,0,16.4,0
		c1.1,0,2.3-0.1,3.4-0.2c1.2-0.1,2.4-0.5,3.5-1.1c0.8-0.4,1.5-0.9,2.3-1.4c0.5-0.3,1-0.8,1.3-1.3l0.2-0.2c0.1-0.1,0.2-0.1,0.3-0.2
		C-554.1,492.4-553.7,491.9-553.3,491.3L-553.3,491.3z M-553.3,477.3C-553.3,477.3-553.3,477.3-553.3,477.3
		C-553.3,477.3-553.3,477.3-553.3,477.3L-553.3,477.3z M-557.2,485.6c-0.2,1-0.5,1.9-1,2.8c-0.4,0.7-0.9,1.3-1.3,2
		c-0.2,0.2-0.4,0.4-0.5,0.6l0.5-0.3l-0.5,0.3l0,0c-0.5,0.3-0.9,0.6-1.4,0.8c-0.9,0.5-2,0.6-3.1,0.3c-0.5-0.1-1-0.3-1.4-0.6
		c-0.4-0.3-0.7-0.8-0.8-1.3c-0.3-1.1-0.3-2.4,0-3.5c0.2-1,0.5-2,1-2.9l-0.1,0c0.7-0.8,1.3-1.7,2-2.4c0.6-0.6,1.4-1,2.2-1.2
		c1-0.3,2.1-0.2,3.1,0.3c0.6,0.3,1.1,0.9,1.3,1.6C-557,483.3-557,484.5-557.2,485.6L-557.2,485.6z"/>
</g>
</svg>
