<?xml version="1.0" encoding="utf-8"?>
<!-- Generator: Adobe Illustrator 25.2.1, SVG Export Plug-In . SVG Version: 6.00 Build 0)  -->
<svg version="1.1" id="Layer_1" xmlns="http://www.w3.org/2000/svg" xmlns:xlink="http://www.w3.org/1999/xlink" x="0px" y="0px"
	 viewBox="0 0 136.4 37.2" style="enable-background:new 0 0 136.4 37.2;" xml:space="preserve">
<style type="text/css">
	.st0{fill:#FF7600;}
	.st1{fill:#004CA2;}
	.st2{fill:#FFFFFF;}
</style>
<g id="Teknosa" transform="translate(107.26 -1483.819)">
	<path id="Path_1217" class="st0" d="M29.2,1483.9v26.4c-0.2,0.1-0.1,0.3-0.1,0.4c-0.3,2.5-1.5,4.8-3.4,6.5
		c-2.9,2.5-6.6,3.9-10.5,3.8c-31.6,0-63.1,0.1-94.7,0c-9,0-18.1,0-27.1,0c-0.4,0-0.7,0-0.6-0.6c0-8.3,0-16.7,0-25
		c-0.1-3.2,1.2-6.2,3.6-8.2c2.8-2.3,6.3-3.5,9.9-3.4c40.7,0,81.4,0,122.1,0C28.7,1483.8,28.9,1483.8,29.2,1483.9z M-0.7,1505
		c0.3,1,0.7,2,1.3,2.8c3.8,5.3,11.2,6.5,16.5,2.6c0.1-0.1,0.2-0.1,0.3-0.2c3.9-2.8,5.1-8.1,2.8-12.4c-1.9-3.5-5.6-5.7-9.6-5.7
		c-3.4-0.2-6.7,1.1-8.9,3.6c-1.1,1.2-1.9,2.5-2.3,4.1c-0.3-1-0.8-2-1.4-2.9c-3.9-5.2-11.3-6.3-16.5-2.4c-0.2,0.2-0.4,0.3-0.6,0.5
		c-3.4,2.9-4.4,7.7-2.4,11.7c2.9,5.7,10.6,7.8,16.3,4.3C-3.1,1509.7-1.4,1507.6-0.7,1505z M-32.1,1507.8c1.5-0.1,3.1,0,4.6-0.1
		c2.2-0.2,3.3-1.2,3.5-3.5c0.1-1.3,0.1-2.7,0-4c0.1-1.8-1.3-3.3-3.1-3.4c-0.1,0-0.1,0-0.2,0c-3.2-0.3-6.3-0.3-9.5,0
		c-1.8-0.1-3.2,1.3-3.3,3c0,0,0,0.1,0,0.1c-0.2,1.5-0.2,3,0,4.6c0.2,1.9,1,2.7,2.9,3.1C-35.6,1507.8-33.9,1507.8-32.1,1507.8
		L-32.1,1507.8z M-53.6,1500c0.3,0.1,0.4,0.3,0.5,0.4c2,2.3,3.9,4.6,5.9,6.8c0.2,0.2,0.3,0.4,0.7,0.4c1.6,0,3.2,0,4.9,0
		c0.3,0,0.5-0.1,0.5-0.5c0-3.3,0-6.6,0-9.9c0-0.3-0.1-0.5-0.5-0.5c-0.9,0-1.8,0-2.7,0c-0.5,0-0.6,0.1-0.6,0.6c0,2.2,0,4.3,0,6.5
		c0,0.2,0.1,0.4-0.1,0.6c-0.1-0.2-0.3-0.3-0.4-0.4c-2-2.3-3.9-4.6-5.9-6.8c-0.2-0.2-0.3-0.4-0.6-0.4c-1.6,0-3.3,0-4.9,0
		c-0.3,0-0.4,0.1-0.4,0.4c0,3.3,0,6.7,0,10c0,0.3,0.1,0.4,0.4,0.4c0.9,0,1.9,0,2.8,0c0.4,0,0.5-0.1,0.5-0.5c0-1.1,0-2.3,0-3.4
		L-53.6,1500z M-80.5,1507.6c2,0,3.9,0,5.9,0c0.6,0,0.8-0.2,0.7-0.7c0-0.4,0-0.9,0-1.3c0.1-0.5-0.2-0.6-0.6-0.6c-2.6,0-5.2,0-7.8,0
		c-1.1,0-1,0-1.1-1.1c0-0.6,0.2-0.6,0.7-0.6c2.2,0,4.3,0,6.5,0c1.7,0,1.7,0,1.7-1.7c0-0.5-0.2-0.6-0.7-0.6c-2.4,0-4.7,0-7.1,0
		c-1.1,0-1.1,0-1.1-1.1c0-0.5,0.2-0.6,0.7-0.6c2.2,0,4.4,0,6.7,0c0.6,0,1.4,0.2,1.8-0.1c0.4-0.4,0.1-1.2,0.1-1.8
		c0-0.5-0.1-0.6-0.6-0.6c-3.9,0-7.8,0-11.7,0c-0.5,0-0.6,0.1-0.6,0.6c0,3.2,0,6.5,0,9.7c0,0.5,0.1,0.6,0.6,0.6
		C-84.5,1507.6-82.5,1507.6-80.5,1507.6z M-58.3,1496.9l-0.1-0.1c-1.5,0-3,0-4.5,0c-0.2,0-0.4,0.1-0.6,0.3c-1.2,1-2.3,2-3.4,3
		c-0.5,0.5-1.2,0.7-2,0.7c-0.4,0-0.5-0.1-0.5-0.5c0-1,0-2,0-3c0-0.4-0.1-0.5-0.5-0.5c-0.9,0-1.8,0-2.7,0c-0.4,0-0.5,0.1-0.5,0.5
		c0,3.3,0,6.6,0,10c0,0.4,0.1,0.5,0.5,0.4c0.9,0,1.8,0,2.7,0c0.4,0,0.5-0.1,0.5-0.5c0-1,0-2.1,0-3.1c0-0.2-0.1-0.5,0.2-0.5
		c0.6,0,1.2-0.2,1.7,0.2c1.3,1.1,2.7,2.1,4,3.2c0.5,0.5,1.2,0.7,1.9,0.7c1.3-0.1,2.6,0,4.1,0c-2.2-1.7-4.3-3.3-6.3-4.9
		c-0.8-0.6-0.8-0.6,0-1.2C-61.9,1499.9-60.1,1498.4-58.3,1496.9L-58.3,1496.9z M-94.4,1496.8c-2.1,0-4.2,0-6.3,0
		c-0.4,0-0.6,0.1-0.6,0.5c0,0.6,0,1.1,0,1.7c0,0.4,0.1,0.5,0.5,0.5c1.3,0,2.6,0,3.9,0c0.5,0,0.6,0.1,0.6,0.6c0,2.3,0,4.6,0,6.8
		c0,0.5,0.1,0.7,0.6,0.7c0.8,0,1.6,0,2.4,0c0.5,0,0.7-0.1,0.7-0.7c0-2.3,0-4.6,0-6.9c0-0.4,0.1-0.6,0.6-0.6c1.3,0,2.7,0,4,0
		c0.4,0,0.6-0.1,0.5-0.5c0-0.6,0-1.1,0-1.7c0-0.5-0.1-0.6-0.6-0.6C-90.2,1496.8-92.3,1496.8-94.4,1496.8L-94.4,1496.8z"/>
	<path id="Path_1218" class="st1" d="M-0.7,1505c-0.8,2.5-2.5,4.7-4.7,6c-5.6,3.4-13.4,1.4-16.3-4.3c-2-4-1-8.8,2.4-11.7
		c4.5-4.3,11.7-4.1,16,0.4c1.2,1.2,2,2.7,2.6,4.3c0.5-1.5,1.3-2.9,2.3-4.1c2.3-2.5,5.6-3.8,8.9-3.6c4,0,7.7,2.2,9.6,5.7
		c2.3,4.2,1.1,9.5-2.8,12.4c-5.2,4-12.6,3-16.5-2.1c-0.1-0.1-0.1-0.2-0.2-0.3C0.1,1507-0.4,1506-0.7,1505z M-11,1496.4
		c-1,0-2,0-2.9,0c-0.5,0-1,0.1-1.5,0.1c-2.6,0.2-3.5,1.1-3.6,3.4c-0.1,1.7,0.5,2.7,1.8,3.1c0.5,0.1,0.9,0.2,1.4,0.2
		c2.1,0.1,4.3,0.1,6.4,0.1c0.4,0,0.9,0,1.3,0.1c0.4,0.1,0.7,0.5,0.7,0.9c0,0.4-0.3,0.8-0.7,0.8c-2,0.2-4.1,0.2-6.1,0
		c-0.5,0-0.9-0.4-0.9-0.8c0-0.3-0.2-0.3-0.4-0.3c-1,0-2,0-3,0c-0.2,0-0.3,0-0.4,0.3c-0.1,1.9,0.4,3,2.3,3.2c3.4,0.4,6.8,0.3,10.2,0
		c1.7-0.2,2.5-0.9,2.7-2.2c0.1-0.6,0.1-1.3,0.1-1.9c0-1.3-1.1-2.4-2.4-2.5c-1.6-0.2-3.1-0.3-4.7-0.2c-1.1,0-2.2,0-3.3-0.1
		c-0.7,0-1.1-0.4-1.1-0.9c0-0.7,0.5-0.7,1-0.8c1.7-0.1,3.3-0.2,5-0.1c0.6,0,1.2,0.1,1.3,0.9c0,0.2,0.2,0.2,0.4,0.2c1,0,2,0,3,0
		c0.3,0,0.4-0.1,0.4-0.4c0.2-1.4-0.8-2.8-2.3-3C-7.9,1496.4-9.5,1496.3-11,1496.4L-11,1496.4z M19.5,1507.8c0-0.1,0-0.2-0.1-0.3
		c-2.1-3.6-4.2-7.1-6.3-10.7c-0.2-0.3-0.4-0.3-0.7-0.3c-1.4,0-2.7,0-4.1,0c-0.3,0-0.6,0.1-0.8,0.4c-2.1,3.4-4.1,6.8-6.2,10.3
		c-0.1,0.2-0.3,0.3-0.2,0.6c0.7,0,1.5,0,2.2,0c1.1,0.3,2.3-0.3,2.7-1.4c0,0,0-0.1,0-0.1c0.1-0.4,0.5-0.5,0.9-0.5
		c1.7,0,3.5,0.1,5.2,0c1.5-0.1,2.5,0.2,3,1.7c0.1,0.3,0.3,0.4,0.6,0.4C17.1,1507.8,18.3,1507.8,19.5,1507.8L19.5,1507.8z"/>
	<path id="Path_1219" class="st2" d="M-32.1,1507.8c-1.7,0.1-3.5,0-5.2-0.2c-1.9-0.4-2.7-1.2-2.9-3.1c-0.2-1.5-0.2-3,0-4.6
		c0-1.8,1.5-3.2,3.2-3.1c0,0,0.1,0,0.1,0c3.2-0.3,6.3-0.3,9.5,0c1.8,0,3.3,1.4,3.3,3.2c0,0.1,0,0.1,0,0.2c0.1,1.3,0.1,2.7,0,4
		c-0.2,2.2-1.3,3.2-3.5,3.5C-29.1,1507.8-30.6,1507.7-32.1,1507.8z M-32.2,1504.9L-32.2,1504.9c1,0,2,0,3,0c0.7,0,1.3-0.5,1.3-1.2
		c0,0,0-0.1,0-0.1c0.1-0.9,0.1-1.7,0-2.6c0-0.8-0.6-1.4-1.4-1.4c0,0,0,0,0,0c-1.9-0.1-3.8-0.1-5.7,0c-0.8,0-1.4,0.6-1.4,1.4
		c-0.1,0.9-0.1,1.7,0,2.6c0.1,1,0.5,1.3,1.5,1.4C-34,1504.9-33.1,1504.9-32.2,1504.9L-32.2,1504.9z"/>
	<path id="Path_1220" class="st2" d="M-53.6,1500v3.8c0,1.1,0,2.3,0,3.4c0,0.4-0.1,0.5-0.5,0.5c-0.9,0-1.9,0-2.8,0
		c-0.3,0-0.4-0.1-0.4-0.4c0-3.3,0-6.7,0-10c0-0.3,0.1-0.4,0.4-0.4c1.6,0,3.3,0,4.9,0c0.3,0,0.5,0.2,0.6,0.4c2,2.3,3.9,4.6,5.9,6.8
		c0.1,0.1,0.3,0.3,0.4,0.4c0.2-0.2,0.1-0.4,0.1-0.6c0-2.2,0-4.3,0-6.5c0-0.5,0.1-0.6,0.6-0.6c0.9,0,1.8,0,2.7,0
		c0.3,0,0.5,0.1,0.5,0.5c0,3.3,0,6.6,0,9.9c0,0.3-0.1,0.5-0.5,0.5c-1.6,0-3.2,0-4.9,0c-0.4,0-0.5-0.2-0.7-0.4
		c-2-2.3-3.9-4.6-5.9-6.8C-53.2,1500.2-53.3,1500-53.6,1500z"/>
	<path id="Path_1221" class="st2" d="M-80.5,1507.6c-2,0-4,0-6,0c-0.5,0-0.6-0.1-0.6-0.6c0-3.2,0-6.5,0-9.7c0-0.5,0.1-0.6,0.6-0.6
		c3.9,0,7.8,0,11.7,0c0.5,0,0.6,0.1,0.6,0.6c-0.1,0.6,0.3,1.5-0.1,1.8c-0.4,0.3-1.2,0.1-1.8,0.1c-2.2,0-4.4,0-6.7,0
		c-0.5,0-0.7,0.1-0.7,0.6c0,1.1,0,1.1,1.1,1.1c2.4,0,4.7,0,7.1,0c0.5,0,0.7,0.1,0.7,0.6c0,1.7,0,1.7-1.7,1.7c-2.2,0-4.3,0-6.5,0
		c-0.5,0-0.7,0.1-0.7,0.6c0,1.1,0,1.1,1.1,1.1c2.6,0,5.2,0,7.8,0c0.5,0,0.7,0.1,0.6,0.6c0,0.4,0,0.9,0,1.3c0.1,0.6-0.1,0.8-0.7,0.7
		C-76.6,1507.6-78.5,1507.6-80.5,1507.6z"/>
	<path id="Path_1222" class="st2" d="M-58.3,1496.9c-1.8,1.5-3.6,3-5.5,4.5c-0.8,0.6-0.8,0.6,0,1.2c2.1,1.6,4.1,3.2,6.3,4.9
		c-1.5,0-2.8,0-4.1,0c-0.7,0-1.4-0.2-1.9-0.7c-1.3-1.1-2.7-2.2-4-3.2c-0.5-0.4-1.1-0.2-1.7-0.2c-0.3,0-0.2,0.3-0.2,0.5
		c0,1,0,2.1,0,3.1c0,0.4-0.1,0.5-0.5,0.5c-0.9,0-1.8,0-2.7,0c-0.3,0-0.5-0.1-0.5-0.4c0-3.3,0-6.6,0-10c0-0.3,0.1-0.5,0.5-0.5
		c0.9,0,1.8,0,2.7,0c0.4,0,0.5,0.1,0.5,0.5c0,1,0,2,0,3c0,0.4,0.1,0.5,0.5,0.5c0.7,0.1,1.4-0.2,2-0.7c1.1-1.1,2.3-2,3.4-3
		c0.1-0.2,0.3-0.3,0.6-0.3c1.5,0,3,0,4.5,0L-58.3,1496.9z"/>
	<path id="Path_1223" class="st2" d="M-94.4,1496.8c2.1,0,4.2,0,6.3,0c0.5,0,0.6,0.1,0.6,0.6c0,0.6,0,1.1,0,1.7
		c0,0.4-0.1,0.5-0.5,0.5c-1.3,0-2.7,0-4,0c-0.4,0-0.6,0.1-0.6,0.6c0,2.3,0,4.6,0,6.9c0,0.5-0.1,0.7-0.7,0.7c-0.8,0-1.6,0-2.4,0
		c-0.6,0-0.6-0.2-0.6-0.7c0-2.3,0-4.6,0-6.8c0-0.5-0.1-0.6-0.6-0.6c-1.3,0-2.6,0-3.9,0c-0.4,0-0.6-0.1-0.5-0.5c0-0.6,0-1.1,0-1.7
		c0-0.5,0.2-0.5,0.6-0.5C-98.6,1496.8-96.5,1496.8-94.4,1496.8z"/>
	<path id="Path_1224" class="st2" d="M-11,1496.4c1.5-0.1,3.1,0,4.6,0.2c1.4,0.2,2.5,1.5,2.3,3c0,0.3-0.1,0.4-0.4,0.4c-1,0-2,0-3,0
		c-0.1,0-0.3,0-0.4-0.2c-0.1-0.7-0.7-0.8-1.3-0.9c-1.7-0.1-3.3,0-5,0.1c-0.5,0.1-1,0.1-1,0.8c0,0.5,0.4,0.9,1.1,0.9
		c1.1,0.1,2.2,0.1,3.3,0.1c1.6-0.1,3.1,0,4.7,0.2c1.3,0.1,2.4,1.2,2.4,2.5c0.1,0.6,0.1,1.3-0.1,1.9c-0.2,1.3-1,2-2.7,2.2
		c-3.4,0.4-6.8,0.4-10.2,0c-1.9-0.2-2.4-1.4-2.3-3.2c0-0.3,0.2-0.3,0.4-0.3c1,0,2,0,3,0c0.2,0,0.4,0,0.4,0.3c0,0.5,0.4,0.8,0.9,0.8
		c2,0.2,4.1,0.2,6.1,0c0.4,0,0.8-0.4,0.7-0.8c0.1-0.4-0.2-0.8-0.7-0.9c-0.4-0.1-0.9-0.1-1.3-0.1c-2.1,0-4.3,0-6.4-0.1
		c-0.5,0-1-0.1-1.4-0.2c-1.3-0.4-1.8-1.4-1.8-3.1c0.1-2.3,1-3.2,3.6-3.4c0.5,0,1-0.1,1.5-0.1C-13,1496.4-12,1496.4-11,1496.4z"/>
	<path id="Path_1225" class="st2" d="M19.5,1507.8c-1.3,0-2.5,0-3.7,0c-0.3,0-0.5-0.1-0.6-0.4c-0.5-1.5-1.5-1.8-3-1.7
		c-1.7,0.1-3.5,0-5.2,0c-0.5,0-0.8,0.1-0.9,0.5c-0.3,1.2-1.5,1.8-2.6,1.6c0,0-0.1,0-0.1,0c-0.7-0.1-1.5-0.1-2.2,0
		c-0.1-0.3,0.1-0.4,0.2-0.6c2.1-3.4,4.1-6.8,6.2-10.3c0.1-0.3,0.5-0.5,0.8-0.4c1.4,0,2.7,0,4.1,0c0.3,0,0.5,0,0.7,0.3
		c2.1,3.6,4.2,7.2,6.3,10.7C19.5,1507.6,19.5,1507.7,19.5,1507.8z M12.9,1503.4l-2.6-4.4l-2.6,4.4H12.9z"/>
	<path id="Path_1226" class="st0" d="M-32.2,1504.9c-0.9,0-1.9,0-2.8,0c-1-0.1-1.3-0.4-1.5-1.4c-0.1-0.9-0.1-1.7,0-2.6
		c0-0.8,0.6-1.4,1.4-1.4c1.9-0.1,3.8-0.1,5.7,0c0.8,0,1.4,0.6,1.4,1.4c0,0,0,0,0,0c0.1,0.9,0.1,1.7,0,2.6c0,0.7-0.5,1.3-1.2,1.3
		c0,0-0.1,0-0.1,0C-30.2,1504.9-31.2,1504.9-32.2,1504.9L-32.2,1504.9z"/>
	<path id="Path_1227" class="st1" d="M12.9,1503.4H7.8l2.6-4.4L12.9,1503.4z"/>
</g>
</svg>
