<svg xmlns="http://www.w3.org/2000/svg" xmlns:xlink="http://www.w3.org/1999/xlink" width="92.358" height="116.735" viewBox="0 0 92.358 116.735">
  <defs>
    <linearGradient id="linear-gradient" x1="0.838" y1="0.845" x2="-0.434" y2="-0.156" gradientUnits="objectBoundingBox">
      <stop offset="0" stop-color="#d2deff" stop-opacity="0"/>
      <stop offset="1" stop-color="#e5e5e5"/>
    </linearGradient>
    <linearGradient id="linear-gradient-2" x1="0.08" y1="0.906" x2="0.664" gradientUnits="objectBoundingBox">
      <stop offset="0" stop-color="#ea6424"/>
      <stop offset="0.522" stop-color="#d41c64"/>
      <stop offset="1" stop-color="#923c8c"/>
    </linearGradient>
  </defs>
  <g id="Group_541" data-name="Group 541" transform="translate(-756.447 -1106.467)">
    <g id="Group_424" data-name="Group 424" transform="translate(756.447 1106.467)">
      <g id="Group_423" data-name="Group 423" transform="translate(0 0)">
        <path id="Path_1052" data-name="Path 1052" d="M138.946,39.19a22.079,22.079,0,0,0-6.547-4.506,28.369,28.369,0,0,1-14.235-14.493A33.779,33.779,0,1,0,59.609,53.212,29.135,29.135,0,0,1,63.49,78.677c-3.822,12.279-2.49,23.917,4.782,31.188,12.742,12.742,38.893,7.251,58.41-12.265s25.007-45.667,12.265-58.41Z" transform="translate(-53.458 0)" fill="url(#linear-gradient)"/>
        <g id="Group_422" data-name="Group 422" transform="translate(0.903 6.954)">
          <g id="Group_421" data-name="Group 421">
            <g id="Group_417" data-name="Group 417" transform="translate(8.854)">
              <g id="Group_408" data-name="Group 408" transform="translate(1.14 1.14)">
                <g id="Group_402" data-name="Group 402">
                  <g id="Group_401" data-name="Group 401">
                    <path id="Path_1053" data-name="Path 1053" d="M169.354,152.259H125.63a5.04,5.04,0,0,1-5.04-5.04V61.54a5.04,5.04,0,0,1,5.04-5.04h43.724a5.04,5.04,0,0,1,5.04,5.04v85.679a5.04,5.04,0,0,1-5.04,5.04Z" transform="translate(-116.181 -51.712)" fill="#00c" opacity="0.1" style="isolation: isolate"/>
                    <path id="Path_1054" data-name="Path 1054" d="M260.992,252.19H210.529a2.28,2.28,0,0,1-2.28-2.28V217.78a2.28,2.28,0,0,1,2.28-2.28h50.463a2.28,2.28,0,0,1,2.28,2.28v32.13A2.28,2.28,0,0,1,260.992,252.19Z" transform="translate(-183.854 -174.46)" fill="#00c" opacity="0.1" style="isolation: isolate"/>
                    <g id="Group_395" data-name="Group 395" transform="translate(0 9.73)">
                      <g id="Group_394" data-name="Group 394">
                        <path id="Path_1055" data-name="Path 1055" d="M352.41,93.433H347.5V78.177h4.907a1.57,1.57,0,0,1,1.57,1.57V91.863A1.57,1.57,0,0,1,352.41,93.433Z" transform="translate(-291.359 -78.177)" fill="#fff"/>
                        <path id="Path_1056" data-name="Path 1056" d="M102.106,109.131h5.625V78.177h-5.625c-.867,0-.852.7-.852,1.57v27.815C101.254,108.428,101.239,109.131,102.106,109.131Z" transform="translate(-101.254 -78.177)" fill="#fff"/>
                      </g>
                    </g>
                    <path id="Path_1057" data-name="Path 1057" d="M169.354,131.259H125.63a5.04,5.04,0,0,1-5.04-5.04V40.54a5.04,5.04,0,0,1,5.04-5.04h43.724a5.04,5.04,0,0,1,5.04,5.04v85.679a5.04,5.04,0,0,1-5.04,5.04Z" transform="translate(-116.181 -35.5)" fill="#fff"/>
                    <path id="Path_1058" data-name="Path 1058" d="M120.59,87.63h53.8v71.988h-53.8Z" transform="translate(-116.181 -75.744)" fill="#fff"/>
                    <g id="Group_399" data-name="Group 399" transform="translate(9.995 70.951)">
                      <g id="Group_398" data-name="Group 398">
                        <g id="Group_396" data-name="Group 396" transform="translate(0 4.612)">
                          <path id="Path_1059" data-name="Path 1059" d="M154.44,369.2h-8.208a1.14,1.14,0,1,1,0-2.28h8.208a1.14,1.14,0,1,1,0,2.28Z" transform="translate(-145.092 -366.92)" fill="#923c8c"/>
                        </g>
                        <g id="Group_397" data-name="Group 397">
                          <path id="Path_1060" data-name="Path 1060" d="M154.44,348.973h-8.208a1.14,1.14,0,0,1,0-2.28h8.208a1.14,1.14,0,0,1,0,2.28Z" transform="translate(-145.092 -346.693)" fill="#923c8c"/>
                        </g>
                      </g>
                    </g>
                    <g id="Group_400" data-name="Group 400" transform="translate(9.575 21.166)">
                      <path id="Path_1061" data-name="Path 1061" d="M187.3,187.53a15.145,15.145,0,1,1,15.146-15.145A15.163,15.163,0,0,1,187.3,187.53Zm0-28.011a12.865,12.865,0,1,0,12.866,12.865A12.88,12.88,0,0,0,187.3,159.519Z" transform="translate(-165.563 -150.648)" fill="#923c8c"/>
                      <path id="Path_1062" data-name="Path 1062" d="M164.985,171.8a21.736,21.736,0,1,1,21.736-21.736A21.761,21.761,0,0,1,164.985,171.8Zm0-41.192a19.456,19.456,0,1,0,19.456,19.456A19.478,19.478,0,0,0,164.985,130.613Z" transform="translate(-143.249 -128.333)" fill="#923c8c"/>
                    </g>
                  </g>
                </g>
                <g id="Group_403" data-name="Group 403" transform="translate(25.551 4.788)">
                  <path id="Path_1063" data-name="Path 1063" d="M223.7,58.78h-9.238a1.14,1.14,0,0,1,0-2.28H223.7a1.14,1.14,0,0,1,0,2.28Z" transform="translate(-213.322 -56.5)" fill="#923c8c"/>
                </g>
                <g id="Group_404" data-name="Group 404" transform="translate(26.675 87.095)">
                  <path id="Path_1064" data-name="Path 1064" d="M218.249,418.64v2.888a1.14,1.14,0,0,0,1.14,1.14h6.992a1.14,1.14,0,0,0,1.14-1.14V418.64a1.14,1.14,0,0,0-1.14-1.14h-6.992A1.14,1.14,0,0,0,218.249,418.64Z" transform="translate(-218.249 -417.5)" fill="#923c8c"/>
                </g>
                <g id="Group_407" data-name="Group 407" transform="translate(12.156 88.539)">
                  <g id="Group_405" data-name="Group 405" transform="translate(32.262)">
                    <path id="Path_1065" data-name="Path 1065" d="M300.978,426.113h-3.767a1.14,1.14,0,1,1,0-2.28h3.767a1.14,1.14,0,1,1,0,2.28Z" transform="translate(-296.072 -423.833)" fill="#923c8c"/>
                  </g>
                  <g id="Group_406" data-name="Group 406">
                    <path id="Path_1066" data-name="Path 1066" d="M159.479,426.113h-3.767a1.14,1.14,0,1,1,0-2.28h3.767a1.14,1.14,0,1,1,0,2.28Z" transform="translate(-154.572 -423.833)" fill="#923c8c"/>
                  </g>
                </g>
              </g>
              <g id="Group_415" data-name="Group 415" transform="translate(25.535 38.076)">
                <path id="Path_1067" data-name="Path 1067" d="M260.992,234.19H210.529a2.28,2.28,0,0,1-2.28-2.28V199.78a2.28,2.28,0,0,1,2.28-2.28h50.463a2.28,2.28,0,0,1,2.28,2.28v32.13A2.28,2.28,0,0,1,260.992,234.19Z" transform="translate(-208.249 -197.5)" fill="#eff2fa"/>
                <path id="Path_1068" data-name="Path 1068" d="M208.249,223.667h55.023v7.448H208.249Z" transform="translate(-208.249 -217.701)" fill="#fff"/>
                <g id="Group_413" data-name="Group 413" transform="translate(5.66 17.205)">
                  <g id="Group_409" data-name="Group 409" transform="translate(0 11.779)">
                    <path id="Path_1069" data-name="Path 1069" d="M243.9,326.9h-9.69a1.14,1.14,0,1,1,0-2.28h9.69a1.14,1.14,0,1,1,0,2.28Z" transform="translate(-233.072 -324.623)" fill="#923c8c"/>
                  </g>
                  <g id="Group_410" data-name="Group 410" transform="translate(0)">
                    <path id="Path_1070" data-name="Path 1070" d="M236.856,275.242h-2.643a1.14,1.14,0,1,1,0-2.28h2.643a1.14,1.14,0,1,1,0,2.28Z" transform="translate(-233.073 -272.962)" fill="#923c8c"/>
                  </g>
                  <g id="Group_411" data-name="Group 411" transform="translate(14.364 11.779)">
                    <path id="Path_1071" data-name="Path 1071" d="M306.9,326.9h-9.69a1.14,1.14,0,1,1,0-2.28h9.69a1.14,1.14,0,0,1,0,2.28Z" transform="translate(-296.072 -324.623)" fill="#923c8c"/>
                  </g>
                  <g id="Group_412" data-name="Group 412" transform="translate(0 7.167)">
                    <path id="Path_1072" data-name="Path 1072" d="M252.11,306.677h-17.9a1.14,1.14,0,1,1,0-2.28h17.9a1.14,1.14,0,0,1,0,2.28Z" transform="translate(-233.072 -304.397)" fill="#923c8c"/>
                  </g>
                </g>
                <g id="Group_414" data-name="Group 414" transform="translate(30.765 17.205)">
                  <path id="Path_1073" data-name="Path 1073" d="M416.13,277.523a1.14,1.14,0,0,1-.806-1.946l2.28-2.28a1.14,1.14,0,1,1,1.612,1.612l-2.28,2.28A1.136,1.136,0,0,1,416.13,277.523Z" transform="translate(-398.619 -272.963)" fill="#923c8c"/>
                  <path id="Path_1074" data-name="Path 1074" d="M392.2,277.523a1.14,1.14,0,0,1-.806-1.946l2.28-2.28a1.14,1.14,0,1,1,1.612,1.612l-2.28,2.28A1.136,1.136,0,0,1,392.2,277.523Z" transform="translate(-380.142 -272.963)" fill="#923c8c"/>
                  <path id="Path_1075" data-name="Path 1075" d="M368.26,277.523a1.14,1.14,0,0,1-.806-1.946l2.28-2.28a1.14,1.14,0,1,1,1.612,1.612l-2.28,2.28A1.136,1.136,0,0,1,368.26,277.523Z" transform="translate(-361.663 -272.963)" fill="#923c8c"/>
                  <path id="Path_1076" data-name="Path 1076" d="M344.325,277.523a1.14,1.14,0,0,1-.806-1.946l2.28-2.28a1.14,1.14,0,1,1,1.612,1.612l-2.28,2.28A1.136,1.136,0,0,1,344.325,277.523Z" transform="translate(-343.185 -272.963)" fill="#923c8c"/>
                </g>
              </g>
              <g id="Group_416" data-name="Group 416">
                <path id="Path_1077" data-name="Path 1077" d="M174.53,67.436H156.744V57.766h1.7a2.713,2.713,0,0,0,2.71-2.71V42.94a2.713,2.713,0,0,0-2.71-2.71h-1.7V36.681a6.187,6.187,0,0,0-6.179-6.181H106.84a6.187,6.187,0,0,0-6.179,6.181V40.23H98.244A1.828,1.828,0,0,0,96.435,41.4a4.1,4.1,0,0,0-.183,1.491V70.8a4.1,4.1,0,0,0,.183,1.491,1.828,1.828,0,0,0,1.809,1.174h2.417v48.894a6.187,6.187,0,0,0,6.179,6.181h43.725a6.187,6.187,0,0,0,6.179-6.181V106.406h17.787a3.424,3.424,0,0,0,3.42-3.42V70.856a3.424,3.424,0,0,0-3.42-3.42ZM158.444,42.51a.43.43,0,0,1,.43.43V55.057a.43.43,0,0,1-.43.43h-1.7V42.51Zm-51.6-9.73h43.725a3.9,3.9,0,0,1,3.9,3.9v5.7H102.941v-5.7A3.9,3.9,0,0,1,106.84,32.78Zm43.725,93.479H106.84a3.9,3.9,0,0,1-3.9-3.9v-5.7h51.523v5.7A3.9,3.9,0,0,1,150.565,126.259Zm25.105-23.273a1.141,1.141,0,0,1-1.14,1.14H155.609a1.14,1.14,0,0,0-1.14,1.139h-.005v9.109H102.941V72.324a1.14,1.14,0,0,0-1.14-1.14H98.536c0-.128,0-28.547,0-28.674h2.124V55.783a1.135,1.135,0,0,0,0,2.129V64.6a1.14,1.14,0,0,0,2.28,0V44.665h51.523V67.436h-30.4a3.424,3.424,0,0,0-3.42,3.42v32.13a3.424,3.424,0,0,0,3.42,3.42h23.79a1.14,1.14,0,1,0,0-2.28h-23.79a1.141,1.141,0,0,1-1.14-1.14V70.856a1.141,1.141,0,0,1,1.14-1.14H174.53a1.141,1.141,0,0,1,1.14,1.14Z" transform="translate(-96.252 -30.5)" fill="url(#linear-gradient-2)"/>
                <path id="Path_1078" data-name="Path 1078" d="M311.36,113.448l.524-.524.524.524a1.14,1.14,0,1,0,1.612-1.612l-1.33-1.33a1.14,1.14,0,0,0-1.612,0l-1.33,1.33a1.14,1.14,0,0,0,1.612,1.612Z" transform="translate(-260.814 -92.007)" fill="#923c8c"/>
              </g>
            </g>
            <g id="Group_418" data-name="Group 418" transform="translate(0 26.828)">
              <path id="Path_1079" data-name="Path 1079" d="M397.2,152.728a1.14,1.14,0,0,1-.806-1.946l2.28-2.28a1.14,1.14,0,0,1,1.612,1.612l-2.28,2.28A1.137,1.137,0,0,1,397.2,152.728Z" transform="translate(-318.847 -148.168)" fill="#923c8c"/>
              <path id="Path_1080" data-name="Path 1080" d="M389.682,403.877a1.14,1.14,0,0,1-.806-1.946l2.28-2.28a1.14,1.14,0,0,1,1.612,1.612l-2.28,2.28A1.136,1.136,0,0,1,389.682,403.877Z" transform="translate(-313.047 -342.056)" fill="#923c8c"/>
              <path id="Path_1081" data-name="Path 1081" d="M58.558,164.94a1.14,1.14,0,0,1-.806-1.946l2.28-2.28a1.14,1.14,0,0,1,1.612,1.612l-2.28,2.28A1.136,1.136,0,0,1,58.558,164.94Z" transform="translate(-57.418 -157.596)" fill="#923c8c"/>
            </g>
            <g id="Group_419" data-name="Group 419" transform="translate(0.998 67.539)">
              <path id="Path_1082" data-name="Path 1082" d="M67.5,331.287a1.136,1.136,0,0,1-.806-.334l-1.474-1.474-1.474,1.474a1.14,1.14,0,0,1-1.612-1.612l2.28-2.28a1.14,1.14,0,0,1,1.612,0l2.28,2.28a1.14,1.14,0,0,1-.806,1.946Z" transform="translate(-61.795 -326.727)" fill="#923c8c"/>
            </g>
            <g id="Group_420" data-name="Group 420" transform="translate(81.526 17.025)">
              <path id="Path_1083" data-name="Path 1083" d="M420.69,109.733a1.136,1.136,0,0,1-.806-.334l-1.474-1.474-1.474,1.474a1.14,1.14,0,0,1-1.612-1.612l2.28-2.28a1.14,1.14,0,0,1,1.612,0l2.28,2.28a1.14,1.14,0,0,1-.806,1.946Z" transform="translate(-414.99 -105.173)" fill="#923c8c"/>
            </g>
          </g>
          <path id="Path_1084" data-name="Path 1084" d="M247.194,251.848H234.212a1.14,1.14,0,0,1-1.14-1.14v-1.48a1.14,1.14,0,0,1,1.14-1.14h12.982a1.14,1.14,0,0,1,1.14,1.14v1.48A1.14,1.14,0,0,1,247.194,251.848Z" transform="translate(-193.023 -198.478)" fill="#923c8c"/>
        </g>
      </g>
    </g>
  </g>
</svg>
