<?xml version="1.0" standalone="no"?>
<!DOCTYPE svg PUBLIC "-//W3C//DTD SVG 1.1//EN" "http://www.w3.org/Graphics/SVG/1.1/DTD/svg11.dtd" >
<svg xmlns="http://www.w3.org/2000/svg">
<metadata>Generated by IcoMoon</metadata>
<defs>
<font id="Aydem-Perakende-Icons" horiz-adv-x="1024">
<font-face units-per-em="1024" ascent="960" descent="-64" />
<missing-glyph horiz-adv-x="1024" />
<glyph unicode="&#x20;" horiz-adv-x="0" d="" />
<glyph unicode="&#x41;" glyph-name="signin" d="M538 360c-48 0-72-30-154-30-80 0-104 30-154 30-132-6-234-116-230-248v-48c-2-48 36-86 82-88h606c46 2 84 40 82 88v48c4 132-100 242-232 248zM688 64h-606v48c-2 84 64 156 148 158 50-16 102-26 154-28 54 2 104 12 154 28 86-2 152-74 150-158zM384 388c142 6 254 126 248 266 6 142-106 262-248 266-140-4-252-124-246-266-6-140 106-260 246-266zM384 832c96-4 168-82 166-178 2-94-70-172-166-176-94 4-168 82-164 176-4 96 70 174 164 178zM980 536h-88v88c0 12-10 22-22 22h-44c-12 0-22-10-22-22v-88h-88c-12 0-22-10-22-22v-44c0-12 10-22 22-22h88v-88c0-12 10-22 22-22h44c12 0 22 10 22 22v88h88c14 0 22 10 22 22v44c0 12-10 22-22 22z" />
<glyph unicode="&#x42;" glyph-name="submit-request-burger" d="M284 204c52 40 74 110 52 174s-82 106-148 106c-66 0-126-42-148-106s0-134 52-174c-56-34-92-96-92-162v-64c0-16 14-28 30-28h316c16 0 30 12 30 28v64c0 66-34 128-92 162zM90 328c0 54 44 96 98 96s98-42 98-96c0-54-44-98-98-98s-98 44-98 98zM316 8h-256v34c0 72 56 130 128 130s128-58 128-130zM886 960h-380c-70 0-124-56-124-124v-572c0-10 6-20 16-26 10-4 22-4 30 4l120 88h338c68 0 124 56 124 126v380c0 68-56 124-124 124zM952 456c0-18-8-34-20-48-12-12-28-18-46-18h-348c-6 0-14-2-18-6l-80-60v512c0 16 8 34 20 46s28 18 46 18h380c18 0 34-6 46-18s20-30 20-46zM854 802h-316c-12 0-22-6-28-14-4-10-4-22 0-32 6-8 16-14 28-14h316c12 0 22 6 26 14 6 10 6 22 0 32-4 8-14 14-26 14zM854 674h-316c-12 2-22-4-28-14-4-10-4-20 0-30 6-10 16-14 28-14h316c12 0 22 4 26 14 6 10 6 20 0 30-4 10-14 16-26 14zM696 548h-158c-18 0-30-14-30-30s12-30 30-30h158c16 0 30 14 30 30s-14 30-30 30z" />
<glyph unicode="&#x43;" glyph-name="submit-request" d="M1020 630l-260 262c-26 24-62 32-96 18-32-12-54-44-54-80v-104c-74-2-148-12-218-32-58-16-110-48-152-90-44-50-68-114-66-180 2-110 60-210 154-264 32-18 72-16 100 6 30 22 40 60 30 96-28 86-32 128 152 142v-96c0-36 22-68 54-82s70-6 96 20l262 260c16 18 24 40 24 62 0 24-8 46-26 62zM698 308v188c-234-4-396-42-324-262-68 40-110 110-112 190 0 198 234 216 436 218v188l260-262zM742 154c14 4 26 10 38 16 8 4 16 4 22 2 8-4 12-12 12-20v-78c0-22-10-44-26-62-16-16-38-24-62-24h-638c-24 0-46 8-62 24-16 18-26 40-26 62v640c0 48 40 88 88 88h240c12 0 20-10 20-22v-10c0-8-4-16-12-20-24-8-48-20-70-34-4-2-8-2-12-2h-156c-6 0-10-6-10-12v-616c0-6 4-12 10-12h618c6 0 10 6 10 12v46c0 10 6 18 16 22z" />
<glyph unicode="&#x44;" glyph-name="take-offer" d="M844 664l-76 78c-18 16-42 26-66 26h-368c-24 0-48-10-64-26l-78-78h-192v-416h104c28 0 52 24 52 52h14l138-124c50-40 120-44 172-8 20-18 48-28 76-24 28 2 54 16 70 38 38-14 80-4 104 28l44 52c8 10 14 24 16 38h96c0-30 22-52 52-52h104v416zM78 300c-14 0-26 12-26 26s12 26 26 26c14 0 26-12 26-26s-12-26-26-26zM712 312l-42-52c-4-6-12-8-18-2l-40 30-48-58c-8-10-20-12-30-4l-60 50-24-30c-22-28-62-32-90-12l-158 144h-46v208h68l100 100 10 4h92l-62-58c-24-20-38-50-38-80-2-32 10-62 30-84 44-48 118-50 166-8l12 12 176-142c6-4 6-12 2-18zM884 378h-112c-4 4-8 8-12 12l-168 136 20 18c6 6 8 12 10 18 0 8-2 14-8 20l-18 18c-10 12-26 12-36 2l-90-82c-16-14-40-14-56 0-8 8-12 18-10 28 0 10 4 20 12 28l106 96c12 12 28 18 44 18h136c4 0 8-2 10-4l100-100h72zM962 300c-14 0-26 12-26 26s12 26 26 26c16 0 26-12 26-26s-10-26-26-26z" />
<glyph unicode="&#x45;" glyph-name="twitter" d="M1026 770c-38-16-80-28-120-32 44 26 76 68 92 116-42-24-86-42-134-52-58 64-150 84-230 54-82-32-134-110-134-196 0-18 2-34 6-50-170 10-328 90-434 222-56-98-28-220 64-282-32 0-66 10-94 26v-2c0-100 70-188 168-208-18-4-36-6-56-6-12 0-26 0-40 4 28-86 108-146 198-148-74-58-166-90-262-90-16 0-34 2-50 4 96-62 208-96 322-96 160 0 312 62 426 174 112 114 174 266 174 426 0 10 0 18 0 28 40 30 76 66 104 108z" />
<glyph unicode="&#x46;" glyph-name="up" d="M0 256c0-28 16-54 42-66s58-8 80 10l396 330 396-318c16-14 36-18 54-16 20 2 38 12 50 26 14 16 20 36 18 56-2 22-12 40-28 52l-444 358c-28 22-66 22-94 0l-444-370c-18-16-28-38-26-62z" />
<glyph unicode="&#x47;" glyph-name="video" d="M862 608c-10 6-22 6-32 2-10-6-16-16-16-28s4-22 14-28c36-22 56-60 56-100s-20-78-56-100l-520-324c-36-22-82-24-118-2-38 20-60 60-60 102v648c0 44 22 82 60 104 36 20 82 18 118-4l304-188c14-10 34-6 44 10 8 14 4 34-12 44l-302 188c-56 36-126 36-184 4-56-30-92-92-92-158v-648c0-66 34-126 92-158s128-30 184 4l520 326c54 32 86 90 86 152s-32 120-86 154" />
<glyph unicode="&#x48;" glyph-name="whatsapp" d="M520-72v0c-82 0-162 18-234 56l-222-52c-14-2-28 2-38 12s-14 24-10 38l48 218c-42 74-64 158-64 244 0 0 0 0 0 0 0 138 56 268 154 364 202 202 530 202 732 0 178-172 206-448 64-652-12-20-38-24-56-12-18 14-22 38-10 58 118 172 94 404-54 550-126 124-314 160-476 94-164-66-270-224-272-402 0 0 0 0 0 0 0-76 20-152 60-218 4-8 6-18 4-28l-38-172 174 40c10 2 20 0 30-4 64-34 136-52 208-52v0c80 0 158 20 226 62 18 10 44 4 56-16 10-18 4-44-16-54-80-48-172-74-266-74zM406 650c-10 20-18 22-28 22h-22c-12 0-24-6-32-16-28-26-42-60-42-98 4-46 22-88 50-122 4-8 82-132 202-180 100-40 122-32 144-30 32 6 62 28 80 56 8 18 10 38 6 58-2 4-10 8-22 14s-70 34-82 38c-10 4-18 6-26-6s-32-40-38-48c-8-6-14-8-26-2-36 14-68 34-96 60-26 24-48 52-66 82-8 12-2 18 4 24s14 14 20 20c4 6 8 12 10 20 4 6 4 14 0 20s-26 66-36 88" />
<glyph unicode="&#x49;" glyph-name="youtube" d="M1036 666c4 88-64 162-150 166-114 6-228 8-346 8h-36c-118 0-234-2-346-8-88-4-154-78-150-166-6-72-8-144-8-218 0-72 2-144 6-216-4-88 64-162 152-166 118-6 240-8 364-8s244 2 364 8c86 4 154 78 150 166 4 72 8 144 6 218 0 72-2 144-6 216zM422 250v400l294-200z" />
<glyph unicode="&#x4a;" glyph-name="check" d="M996 788c32-32 32-88 0-120l-576-576c-34-34-88-34-122 0l-272 274c-34 34-32 86 0 120 34 32 86 34 120 2l214-214 514 514c34 34 88 34 122 0z" />
<glyph unicode="&#x4b;" glyph-name="saving" d="M56 86l384-148c4-2 8-2 10-2l278 66 100-14v-18c0-10 6-18 16-18h148c10 0 16 8 16 18v296c0 10-6 16-16 16h-148c-10 0-16-6-16-16v-16h-66l-198 10v24c50-6 100 16 128 60s28 98 0 142c-28 44-78 66-128 60v18c0 8-8 16-18 16h-16v50c0 8-8 16-16 16h-16v50c0 22 6 46 20 66l160-16c2-2 4-2 8-2 42 2 80 22 106 58l82 116c4 4 4 10 2 16-2 4-8 8-14 10l-148 16c-50 2-98-20-130-56l-2-2-68-96c-22-20-38-44-44-72-6 8-14 16-22 22l-70 98c-32 38-80 58-130 56v0l-148-16c-6 0-12-4-14-10-2-4-2-12 2-16l82-116c24-34 64-56 106-56 2 0 6 0 8 0v0l160 16c12-20 20-42 20-66h-182c-8 0-16-8-16-16v-66c0-10 8-16 16-16h16v-34h-16c-8 0-16-8-16-16v-66c0-10 8-18 16-18h16v-32h-16c-8 0-16-8-16-16v-66c0-10 8-18 16-18h16v-32h-16c-8 0-16-8-16-16v-66c0-4 0-6 2-8l-174 46c-32 8-64-10-76-42-10-32 6-66 38-78zM860 250h116v-264h-116zM646 844h-34c-10 0-22-2-34-4l32 44c26 28 62 44 100 42l120-12-66-94c-18-26-50-42-84-42l-132 14c20 12 42 20 64 20h34c10 0 16 6 16 16 0 8-6 16-16 16zM280 728c-32 0-64 16-84 44l-66 92 120 14c40 0 76-16 102-44l30-44c-10 4-22 4-34 4h-32c-10 0-18-6-18-16 0-8 8-16 18-16h32c24 0 46-8 64-20zM580 514c54 0 98-44 98-100 0-54-44-98-98-98-56 0-100 44-100 98 0 56 44 100 100 100zM530 282v-20l-52 2c-14 2-30-4-40-14h-106v32zM530 548v-10c-14-6-26-14-38-24h-160v34zM298 614h198v-34h-198zM298 482h168c-6-12-12-22-14-34h-154zM452 382h-120v32h116c0-10 0-22 4-32zM298 348h168c6-12 16-22 26-32h-194zM298 216h124c-2-10 2-22 6-32h-130zM494 150l10-2-74-30-124 32zM50 156c6 14 22 22 36 18l340-88c4-2 6-2 10 0l122 48 68-16c8-2 16 4 20 12 2 8-4 18-12 20h-2l-162 40c-10 4-16 14-16 24 2 10 12 18 22 18l284-16h68v-196l-98 14c-2 2-4 2-6 0l-276-64-380 146c-16 6-24 24-18 40v0zM634 410c0-18-8-34-20-46-14-10-30-16-48-14-2 0-6 0-10 0v56l-18-6v10l18 8v14l-18-6v10l18 8v42h18v-36l34 14v-10l-34-14v-16l34 14v-12l-34-12v-50c24 2 40 14 44 46z" />
<glyph unicode="&#x4c;" glyph-name="environment" d="M1008 840c-10 28-22 56-36 82-4 6-10 8-16 6-28-6-56-16-84-30-52-22-94-64-118-114-16-42-18-90-8-134-22 28-50 50-80 70-18 38-42 74-68 106-6 6-14 6-22 2-6-6-6-14-2-20 20-26 40-52 56-82l-138 26-130 178c14 0 26-2 38-4 44-10 84-30 118-60 6-4 14-4 20 2 4 6 4 16 0 20-38 34-84 56-132 68-80 10-162-8-232-52-38-20-72-46-104-74-6-6-6-14-2-22 18-36 42-72 68-104 20-28 44-52 70-74-6-6-14-12-20-18-84-82-120-200-98-314 22-116 102-212 210-256 8-2 16 2 18 10 4 6 0 16-6 18-24 10-46 22-66 36 6 42-2 84-26 118-4 8 10 38 18 54 10 18 18 36 24 54 4 16-2 34-16 46-10 6-22 12-36 16-6 0-12 4-18 6-10 14-20 28-26 42-8 16-16 32-28 46 22 48 54 90 96 124 36-26 80-42 126-46-54-42-70-94-46-144 28-60 88-50 140-42 8 2 18 4 26 4 4 0 4 0 6-2 10-10 10-58 10-92 0-50 0-96 18-120 8-12 22-18 38-18 10 0 20 2 30 6 44 20 92 78 84 124-8 30-8 60 0 90 18 26 44 48 74 60 22-98-6-204-74-280s-170-114-270-102c-8 0-16-6-16-14s4-14 12-16c104-12 206 24 280 96 76 74 114 178 104 282-12 106-68 200-156 256 20 14 34 28 42 34 160-114 212-328 124-504-90-174-292-260-480-198-186 60-300 250-268 444 0 6-6 14-14 16-6 0-14-4-16-12-38-234 120-454 352-492 24-4 48-6 72-6 144 0 278 74 356 194 80 120 92 272 34 406 24 6 48 16 70 26 52 22 94 64 120 114 18 54 18 112-2 164zM138 428c8-18 18-36 32-50 8-6 20-10 30-14 30-8 32-12 30-24-6-18-12-34-20-48-16-32-30-62-16-84 16-24 22-50 22-80-90 82-124 208-92 324 4-8 8-16 14-24zM862 722l-42 104c20 18 42 32 66 44 16 8 30 14 48 20zM960 878c8-14 14-30 20-48 8-22 12-46 14-72l-100-40zM782 772c4 10 10 20 16 30l48-118-44-104c-6 16-14 32-18 50-18 46-18 96-2 142zM878 590c-16-8-30-14-46-20l44 108 116 48c-2-14-6-26-10-38-22-44-60-78-104-98zM336 598c-4 0-10 2-16 4l166 122 138-28c-50-38-172-120-288-98zM184 692c-28 32-54 68-76 106l174-34zM216 892l72-100-174 34c30 26 66 48 102 66zM332 784l-88 120c26 12 54 20 84 24l122-166zM322 756l124-24-158-118c-30 14-58 34-82 56zM730 462c-54-28-82-50-94-78-10-34-12-72-2-106 4-26-26-74-66-92-16-6-26-6-32 2-12 16-12 64-12 102 0 52 0 96-20 116-8 6-18 10-30 8-8-2-18-2-28-4-54-10-90-12-108 24-28 60 30 104 58 120 4 4 10 8 14 12 64 10 126 34 180 70 66-38 116-100 140-174z" />
<glyph unicode="&#x61;" glyph-name="account-number" d="M208 574c0-18 14-32 32-32s32 14 32 32c0 22 18 40 40 40 24 0 42-18 42-40 0-24-18-42-42-42-16 0-30-14-30-32v-50c0-16 14-30 30-30 18 0 32 14 32 30v24c44 14 74 54 74 100 0 58-48 104-106 104-56 0-104-46-104-104zM312 416c-22 0-40-18-40-40s18-40 40-40c24 0 42 18 42 40s-18 40-42 40zM876 960h-576c-38 0-68-30-68-70v-126c-112-36-188-140-190-258 2-118 78-222 190-258v-222c0-38 30-68 68-70h470c8 0 16 4 22 10l144 144c6 4 8 12 8 20v760c2 18-6 36-20 50-12 12-30 20-48 20zM522 506c0-114-94-208-210-208-114 0-208 94-208 208 0 116 94 210 208 210 116 0 210-94 210-210zM292 238c84-8 166 26 222 88h124c16 0 30 14 30 30 0 18-14 30-30 30h-82c12 28 22 58 24 88h58c16 0 30 14 30 30 0 18-14 32-30 32h-56c-4 30-12 60-26 88h82c16 0 30 12 30 30 0 16-14 30-30 30h-122c-46 54-112 86-182 92h550v-614h-74c-40 0-70-32-70-70v-74h-440c-4 0-8 4-8 8zM802 92c0 6 4 10 8 10h32l-40-40zM884 890v-54h-592v54c0 6 4 10 10 10h574c4-2 8-4 8-10zM720 474h70c18 0 32 14 32 30 0 18-14 32-32 32h-70c-16 0-30-14-30-32 0-16 14-30 30-30zM594 178h196c16 0 30 12 30 30 0 16-12 30-30 30h-196c-16 0-30-14-30-30 0-18 14-30 30-30zM720 624h70c18 0 32 12 32 30 0 16-14 30-32 30h-70c-16 0-30-14-30-30 0-18 14-30 30-30zM720 326h70c18 0 32 14 32 30 0 18-14 30-32 30h-70c-16 0-30-12-30-30 0-16 14-30 30-30z" />
<glyph unicode="&#x62;" glyph-name="aggrement" d="M738 610c16-16 16-40 0-56l-268-268c-16-16-40-16-56 0l-128 128c-16 16-16 40 0 56 16 14 40 14 56 0l100-100 240 240c16 16 40 16 56 0zM1024 448c0-282-230-512-512-512s-512 230-512 512c0 282 230 512 512 512 136 0 266-54 362-150s150-226 150-362zM944 448c0 238-194 432-432 432s-432-194-432-432c0-238 194-432 432-432 114 0 224 46 306 126 80 82 126 192 126 306z" />
<glyph unicode="&#x63;" glyph-name="android" d="M54 914c4-4 8-6 12-10 150-150 302-302 452-452 8-8 10-12 2-22-154-152-306-304-458-458-2-2-4-2-8-6-4 8-6 18-6 26 0 298 0 598 0 896 0 10 2 18 6 26zM96-80c8 8 10 12 14 16 150 150 300 300 450 450 10 10 14 8 24 0 44-44 88-86 134-130-10-6-16-10-20-12-182-104-364-208-546-310-16-10-36-16-56-14zM98 960c18 2 36-2 50-12 186-104 370-208 554-314 10-4 10-8 2-16-42-42-82-84-124-126-6-6-8-8-16 0-154 154-308 308-462 460 0 2-2 6-4 8zM982 434c-4-22-20-42-40-52-44-24-86-48-128-72-14-8-30-22-42-22-16 2-26 20-38 32-36 36-72 74-110 110-8 8-8 12 0 20 46 46 92 90 138 136 2 4 6 6 8 6 4 0 8 0 10-2 56-32 110-62 164-94 24-12 38-36 38-62z" />
<glyph unicode="&#x64;" glyph-name="apple" d="M94 408c-4 72 16 144 56 202 46 68 124 106 204 104 28-2 54-10 80-20 14-6 30-12 44-18 22-8 44-8 66 0 30 14 62 24 94 34 92 22 190-12 246-88 6-8 2-8-2-12-42-26-74-68-90-114-34-98 4-206 92-260 8-6 16-10 24-14 6-2 8-6 6-12-22-60-52-116-90-166-14-20-30-38-48-56-38-36-94-46-142-26-24 12-48 20-74 26-36 8-76 4-110-10-18-8-36-16-54-22-42-14-88-2-118 28-20 20-40 40-56 62-66 86-108 188-124 294 0 8-2 16-2 24-2 14-2 30-2 44zM706 936c-2-82-50-156-122-192-22-10-46-16-70-16-8 0-12 2-12 10 0 66 28 128 80 170 30 26 68 44 108 50 16 4 16 4 16-12 0-4 0-6 0-10z" />
<glyph unicode="&#x65;" glyph-name="appointment" d="M872 828h-100v108c0 12-10 24-24 24h-82c-14 0-26-12-26-24v-108h-264v108c0 12-10 24-24 24h-82c-14 0-26-12-26-24v-108h-98c-56 0-100-44-100-100v-726c0-26 10-50 30-70 18-18 44-28 70-28h726c54 0 98 44 98 98v726c0 56-44 100-98 100zM860 2h-702c-6 0-12 6-12 12v616h726v-616c0-6-6-12-12-12zM750 416l-294-290c-8-10-24-10-34 0l-156 156c-8 10-8 24 0 34l48 48c10 8 24 8 34 0l92-92 230 226c8 10 24 10 34 0l46-46c10-10 10-26 0-36z" />
<glyph unicode="&#x66;" glyph-name="point" d="M1024 448c0-282-230-512-512-512s-512 230-512 512c0 282 230 512 512 512s512-230 512-512z" />
<glyph unicode="&#x67;" glyph-name="map" d="M412 34v-104l-24 20c-70 58-134 120-192 188-130 148-196 282-196 398v12c0 228 184 412 412 412s414-184 414-412v-12c0-10-2-20-2-30l-80 74c-18 176-170 308-348 298-176-8-316-154-316-330v-12c0-194 252-430 332-502zM660 92h120v122h-120zM412 718c96 0 172-76 172-170 0-96-76-172-172-172-94 0-170 76-170 172 0 94 76 170 170 170zM412 638c-50 0-90-40-90-90s40-92 90-92c50 0 92 42 92 92s-42 90-92 90zM978 148l-22 20v-130c0-60-48-108-108-108h-256c-60 0-108 48-110 108v130l-22-20-54 58 314 286 314-286zM876 242l-156 142-156-142v-204c0-16 12-28 28-28h256c14 0 28 12 28 28z" />
<glyph unicode="&#x68;" glyph-name="satisfaction" d="M972 266c-6 2-12 4-18 4-4-2-10-4-12-8l-38-56c-12-18-20-38-20-60l-4-98c0-6 2-12 6-16 4-6 10-8 16-8h2c4 0 10 2 14 4 6 6 8 12 8 18l4 98c0 14 4 26 12 38l36 52c4 4 4 10 4 16-2 6-6 12-10 16zM1006 408l-90 138v256c0 36-30 66-66 66h-672c-38 0-68-30-68-66v-114c0-8 4-16 10-20 8-4 16-4 24 0 6 4 10 12 10 20v114c0 12 10 22 24 22h672c12 0 22-10 22-22v-444l-18 18v406c0 14-10 24-24 24h-100c-14 0-24-10-24-22s10-22 24-22h80v-338l-36 40c-20 20-50 24-72 6h-234c-12 0-22-10-22-22s10-22 22-22h214c0-8 2-16 6-24l6-10h-360l6 10v2c8-6 20-4 26 4l46 52c4 4 6 10 4 16 0 6-2 12-6 16-10 8-24 6-32-2l-32-38-12 10c-2 2-2 4-4 4-10 10-24 16-38 16v0c-14 0-28-6-38-18l-20-22v320h436c12 0 22 10 22 22s-10 22-22 22h-456c-14 0-24-12-24-24v-178c-4 6-12 8-18 8-8 0-14-4-18-10v26c0 8-4 16-10 20-8 4-16 4-24 0-6-4-10-12-10-20v-82l-88-138c-30-46-30-106 2-150l56-84c8-10 12-22 12-36l4-94c0-10 10-20 22-20v0c6 0 12 2 16 6s6 10 6 16l-4 94c0 22-6 42-18 58l-58 84c-20 32-22 72-2 102l52 80v-112c0-12 4-22 10-34l-4-4c-10-8-8-22 0-30 10-10 24-8 32 0l138 150c4 4 8 4 12 0 4-2 4-6 2-10l-82-150c-8-14-8-30 2-42 16-18 20-42 12-64-4-12-6-26-6-40l-2-68c0-6 2-12 6-16s10-6 16-6v0c12 0 22 10 22 22l2 68c0 8 0 16 4 26 12 34 6 72-16 102l16 30h478l16-30c-22-30-28-68-16-102 4-10 6-18 6-26v-68c0-6 4-12 8-16s10-6 16-6c6 0 10 2 16 6 4 4 6 10 6 16l-2 68c0 14-4 28-8 40-8 22-2 46 12 64 10 12 12 28 4 42l-84 150c0 2 0 4 0 6s2 4 4 6c4 2 8 2 10-2l140-150c8-8 22-10 30-2 10 10 10 24 2 32l-4 4c6 12 10 22 10 34v112l50-80c18-26 20-60 6-90-2-4-2-10 0-16 2-8 10-14 20-14 8-2 16 4 20 12 20 42 18 92-8 132zM728 330h-430l10 18h410zM172 544c6 0 14 2 18 8v-158l-36-38v196c4-6 12-8 18-8zM420 712c0 4-2 10-4 14v0l-4 2c-10 8-24 6-32-2l-32-40-18 14c-10 6-24 4-32-6-6-10-6-24 4-32l34-24c10-8 24-6 32 2l46 56c4 4 6 10 6 16zM752 706h-294c-12 0-22-10-22-22s10-22 22-22h294c12 0 22 10 22 22s-10 22-22 22zM752 590h-294c-12 0-22-12-22-24s10-22 22-22h294c12 0 22 10 22 22s-10 24-22 24zM398 610c-10 8-24 8-34 0l-10-12-12 12c-10 8-24 6-32-2s-8-22 0-30l12-12-12-12c-8-10-8-24 0-32 10-8 24-8 32 0l12 12 10-12c6-4 10-6 18-6s16 6 20 14c4 8 2 18-4 24l-12 12 12 12c8 8 8 22 0 32z" />
<glyph unicode="&#x69;" glyph-name="call" d="M948 530h-32v30c0 106-42 206-116 282s-174 118-280 118c-106 0-206-42-280-118s-116-176-116-282v-30h-32c-52 0-92-42-92-92v-182c0-52 40-92 92-92h38c14-42 56-68 100-60s76 46 76 90v306c0 28-14 56-38 74-24 16-54 22-82 12 10 176 156 314 334 314 176 0 322-138 334-314-28 10-58 4-82-12-24-18-40-46-40-74v-306c0-38 26-72 62-86v-36c0-16-14-30-30-30h-158c-14 42-58 68-102 60s-76-46-76-90c0-44 32-82 76-90s88 18 102 60h158c50 0 90 40 90 90v36c26 10 48 30 56 56h38c50 0 92 40 92 92v182c0 50-42 92-92 92zM124 224h-32c-18 0-32 14-32 32v182c0 16 14 30 32 30h32zM216 530c16 0 30-14 30-30v-306c-2-16-14-28-30-28s-30 12-32 28v306c0 16 14 30 32 30zM520-18c-18 0-30 12-30 30 0 16 12 30 30 30 16 0 30-14 30-30 0-18-14-30-30-30zM854 194c0-16-14-28-30-28s-28 12-30 28v306c2 16 14 28 30 28s30-12 30-28zM978 256c0-18-12-32-30-32h-32v244h32c18 0 30-14 30-30z" />
<glyph unicode="&#x6a;" glyph-name="close" d="M602 478l336 336c32 34 32 86 0 120-34 34-86 34-120 0l-336-336-336 338c-22 22-54 30-84 24-30-8-54-32-62-62-6-30 2-62 24-84l338-336-338-336c-30-34-30-86 2-118 34-32 86-34 120-2l336 336 336-336c22-22 54-32 84-24s54 30 60 60c8 32 0 62-24 84z" />
<glyph unicode="&#x6b;" glyph-name="down" d="M0 630c0 28 16 54 42 66 26 14 58 10 80-10l396-330 396 320c22 16 50 22 76 12s44-34 48-62c4-26-8-54-30-70l-444-356c-28-24-66-24-94 0l-444 368c-18 16-28 38-26 62z" />
<glyph unicode="&#x6c;" glyph-name="debt" d="M964-86c-6 0-12 2-14 6l-216 216c-4 4-6 8-6 14v82h82c6 0 10-2 14-6l194-192 22-22c8-10 8-22 0-32l-62-60c-4-4-8-6-14-6zM420 122c-94 0-184 30-258 88-88 68-146 168-158 280-14 110 16 222 86 308 78 102 200 162 330 162 94 0 184-32 258-88 182-144 214-408 72-590l-32-40-40-32c-74-58-166-88-258-88zM420 884c-190 0-342-154-342-342 0-190 152-344 342-344 188 0 342 154 342 342 0 190-154 344-342 344zM618 544h-42c-6 0-10-4-10-10-2-74-62-132-136-132-4 0-8 0-12 2v140l118 26c4 0 8 6 8 10v36c0 2 0 6-2 8s-6 2-8 2c-2 0-2 0-2 0l-114-24v26l118 26c4 2 8 6 8 10v36c0 6-4 12-10 12 0 0-2 0-2 0l-114-26v44c0 6-4 12-10 12h-50c-6 0-10-6-10-12v-60l-48-10c-6-2-8-6-8-12v-36c0-4 4-10 10-10 0 0 2 0 2 0l44 10v-26l-48-12c-6 0-10-4-10-10v-36c0-2 2-6 4-8s4-2 8-2c0 0 0 0 2 0l44 10v-170c0-6 4-12 10-12h70c100-10 190 64 200 166 0 6 0 14 0 20 0 4 0 6-2 8s-4 4-8 4z" />
<glyph unicode="&#x6d;" glyph-name="detail" d="M710 158c-8 8-12 18-12 30s4 22 12 30l232 232-232 230c-16 18-16 46 2 62 16 16 44 16 60 0l262-262c8-8 14-18 14-30s-6-22-14-32l-262-260c-8-10-18-14-30-14s-24 4-32 14zM1004 450c0-24-20-44-44-44h-916c-24 0-44 20-44 44s20 44 44 44h916c24 0 44-20 44-44z" />
<glyph unicode="&#x6e;" glyph-name="facebook" d="M386-64v478h-146v176h146v130c-4 66 20 130 68 176s112 70 178 64c68 0 140-4 156-6v-164h-112c-76 0-90-36-90-88v-112h180l-22-176h-158v-478c0 0-202 4-200 0z" />
<glyph unicode="&#x6f;" glyph-name="instagram" d="M298-64c-164 0-298 134-298 298v428c0 164 134 298 298 298h428c164 0 298-134 298-298v-428c0-164-134-298-298-298zM148 812c-40-40-62-94-62-150v-428c0-118 96-212 212-212h428c118 0 212 94 214 212v428c-2 116-96 212-214 212h-428c-56 0-110-22-150-62zM256 448c0 142 114 256 256 256s256-114 256-256c0-142-114-256-256-256-68 0-132 26-180 74s-76 114-76 182zM342 448c0-94 76-170 170-172 94 0 170 78 172 172 0 94-78 170-172 170s-170-76-170-170zM726 724c0 26 16 50 40 60s50 4 68-14c20-18 24-46 14-70s-32-38-58-38c-36 0-64 28-64 62z" />
<glyph unicode="&#x70;" glyph-name="left" d="M704-76c28 0 54 16 66 42s8 56-10 78l-330 396 318 398c14 14 18 34 16 54s-12 38-26 50c-16 14-36 20-56 18-22-2-40-14-52-30l-358-442c-22-28-22-68 0-94l370-444c16-18 38-28 62-26z" />
<glyph unicode="&#x71;" glyph-name="linkedin" d="M222-74h-222v690h222zM118 722v0c-32-2-64 12-86 34s-34 54-32 84c-2 34 10 64 34 86 22 24 54 36 86 34 32 2 62-10 86-34 22-22 34-54 32-86 2-32-10-62-34-84-22-24-54-36-86-34zM1034-74h-222v378c0 90-32 152-114 152-50 0-96-34-114-82-6-18-8-36-6-54v-394h-222v690h222v-96c40 72 118 116 200 114 146 0 256-96 256-304v-404z" />
<glyph unicode="&#x72;" glyph-name="location" d="M1012 948c-12 12-30 16-46 8l-940-384c-18-6-28-24-26-44 2-18 16-34 36-36l440-80 80-440c2-20 18-34 36-36h6c16 0 32 10 38 26l384 940c8 16 4 34-8 46z" />
<glyph unicode="&#x73;" glyph-name="lock" d="M670 498v46c0 88-72 162-162 162-88 0-160-72-160-162v-46h-46v-300h414v300zM394 544c0 64 50 116 114 116s116-52 116-116v-46h-230zM670 244h-322v208h322zM486 346v-56h46v56c14 12 14 34 2 48s-34 16-48 4c-14-14-16-36-4-50 2 0 2-2 4-2zM508-56c-280 0-508 228-508 508s228 508 508 508c280 0 508-228 508-508s-228-508-508-508zM508 896c-246 0-444-198-444-444s198-444 444-444c246 0 444 198 444 444 0 244-198 444-444 444z" />
<glyph unicode="&#x74;" glyph-name="payment" d="M952 410v118c0 54-44 98-98 98h-30l48 156c2 10 2 22-4 30-6 10-14 16-24 18l-128 32v58c0 22-18 40-40 40h-510c-20 0-38-18-38-40v-294h-30c-54 0-98-44-98-98v-510c0-54 44-98 98-98h756c54 0 98 44 98 98v118c50 6 88 48 88 98v78c0 50-38 94-88 98zM206 626v256h432v-256zM716 636v146l70-16-40-130zM962 312v-78c0-6-2-10-6-14s-8-6-14-6h-166c-12 0-20 8-20 20v78c0 12 8 20 20 20h166c6 0 10-2 14-6s6-8 6-14zM874 410h-98c-54 0-98-44-98-98v-78c0-54 44-98 98-98h98v-118c0-12-10-20-20-20h-756c-12 0-20 8-20 20v510c0 12 8 20 20 20h756c10 0 20-8 20-20zM874 312h-10c-22 0-40-18-40-38 0-22 18-40 40-40h10c20 0 38 18 38 40 0 20-18 38-38 38zM578 802h-30v20c0 10-4 20-10 28-8 8-18 12-28 12-22 0-38-18-38-40v-20c0-42 34-78 78-78h28c22 0 40 18 40 40s-18 38-40 38zM334 862c-22 0-40-18-40-40v-20h-30c-20 0-38-16-38-38s18-38 38-38h30c44 0 78 34 78 78v20c0 20-18 38-38 38z" />
<glyph unicode="&#x75;" glyph-name="phone1" d="M998 208l-144 144c-24 24-58 32-90 26-32-8-58-32-68-62-18-46-66-72-114-62-124 44-220 142-266 266-12 48 14 98 62 112 32 10 56 36 62 68 8 34-2 68-26 90l-144 144c-38 34-98 34-138 0l-96-98c-98-102 10-372 250-612s512-352 614-250l96 96c36 40 38 100 2 138z" />
<glyph unicode="&#x76;" glyph-name="quick-transactions" d="M526 270l296 296c8 10 8 26 0 36-10 8-26 8-36 0l-278-280-278 280c-10 8-24 8-34 0-10-10-10-26 0-36l294-296c6-4 12-8 18-8s14 4 18 8zM508-56c-280 0-508 228-508 508s228 508 508 508c280 0 508-228 508-508s-228-508-508-508zM508 896c-246 0-444-198-444-444s198-444 444-444c246 0 444 198 444 444 0 244-198 444-444 444z" />
<glyph unicode="&#x77;" glyph-name="right" d="M330-76c-28 0-54 16-68 42-12 26-8 56 12 78l330 396-320 398c-12 14-18 34-16 54s12 38 28 50c16 14 36 20 56 18s40-14 52-30l356-442c24-28 24-68 0-94l-368-444c-16-18-38-28-62-26z" />
<glyph unicode="&#x78;" glyph-name="scroll" d="M512-56c-176 0-318 144-318 318v380c0 176 142 318 318 318s318-142 318-318v-380c0-174-142-318-318-318zM512 890c-136 0-248-112-248-248v-380c0-136 112-246 248-246 138 0 248 110 248 246v380c0 136-110 248-248 248zM512 438c-20 0-36 16-36 36v188c0 20 16 36 36 36s36-16 36-36v-188c0-20-16-36-36-36z" />
<glyph unicode="&#x79;" glyph-name="search" d="M1012 10l-284 288c134 168 112 412-50 556-162 142-406 134-558-20-152-152-156-398-12-558 146-158 390-178 558-42l282-284c18-18 44-18 62-2s18 44 2 62zM408 232c-152 0-284 108-314 258s50 300 192 358c142 58 304 10 388-118 86-128 70-296-38-404-60-60-142-94-228-94z" />
<glyph unicode="&#x7a;" glyph-name="security" d="M926 316c0-18-16-34-34-34h-8c-20 0-34 16-34 34 0 10 2 18 10 24 6 8 14 10 24 10h8c18 0 34-14 34-34zM634 782h-28v18c0 18-14 34-34 34-18 0-34-16-34-34v-18c0-38 32-68 70-68h26c18 0 34 16 34 34 0 10-4 18-10 24-8 6-16 10-24 10zM418 834c-20 0-34-16-34-34v-18h-26c-20 0-36-16-36-34 2-18 16-34 36-34h26c38 0 68 30 68 68v18c0 10-4 18-10 24s-16 10-24 10zM178 498c0-16 12-28 28-28s30 12 30 28c0 22 16 38 36 38 22 0 38-16 38-38 0-20-16-38-38-38-16 0-28-12-28-28v-46c0-16 12-28 28-28s30 12 30 28v22c40 12 66 48 66 90 0 52-42 96-96 96-52 0-94-44-94-96zM272 354c-20 0-36-16-36-36s16-36 36-36c22 0 38 16 38 36s-16 36-38 36zM1038 352v-70c0-44-34-82-78-86v-104c0-48-38-86-86-86h-664c-48 0-86 38-86 86v118c-78 50-124 136-124 228 0 136 102 252 236 270v180c0 8 4 16 10 24 6 6 16 10 24 10h450c8 0 16-4 24-10 6-8 10-16 10-24v-52l112-28c8-2 16-8 20-16 6-8 8-18 4-28l-42-136h26c48 0 86-38 86-86v-104c44-6 78-42 78-86zM754 636h26l34 114-60 14zM304 708c64-8 122-36 164-80h218v224h-382zM124 318c18-22 42-42 68-54s52-18 80-18c106 0 192 86 190 192 2 44-14 86-42 120-36 44-90 70-148 70-56 0-110-26-146-70-30-34-44-76-44-120s14-86 42-120zM892 196h-86c-48 0-86 38-86 86v70c0 46 38 84 86 86h86v104c0 8-8 16-18 16h-358c20-38 30-78 30-120 0-152-122-274-274-274-26 0-54 4-80 12v-84c0-4 2-8 6-12 2-4 6-6 12-6h664c10 0 18 8 18 18zM970 352c0 8-8 16-18 16h-146c-10 0-18-8-18-16v-70c0-10 8-18 18-18h146c10 0 18 8 18 18z" />
<glyph unicode="&#xe900;" glyph-name="mic-stop" horiz-adv-x="843" d="M250.676-64c-23.568 0-42.674 19.106-42.674 42.674s19.106 42.674 42.674 42.674v0h127.938v88.484c-68.159 8.768-128.603 36.536-177.301 77.752l0.499-0.411-131.322-131.57c-7.414-7.168-17.527-11.585-28.671-11.585-22.793 0-41.27 18.477-41.27 41.27 0 11.144 4.417 21.257 11.596 28.683l-0.011-0.012 133.303 133.386c-40.895 55.351-65.455 124.938-65.455 200.261 0 0.226 0 0.452 0.001 0.678v-0.035 85.017c-0.026 0.56-0.041 1.216-0.041 1.876 0 23.568 19.106 42.674 42.674 42.674s42.674-19.106 42.674-42.674c0-0.66-0.015-1.316-0.045-1.969l0.003 0.093v-85.017c0-0.153-0.001-0.334-0.001-0.515 0-51.688 15.4-99.779 41.863-139.935l-0.592 0.957 62.401 62.401c-11.5 22.278-18.242 48.623-18.242 76.543 0 0.193 0 0.387 0.001 0.58v-0.030 341.141c0 94.272 76.422 170.694 170.694 170.694s170.694-76.422 170.694-170.694v0-95.5l180.186 180.351c7.414 7.168 17.527 11.585 28.671 11.585 22.793 0 41.27-18.477 41.27-41.27 0-11.144-4.417-21.257-11.596-28.683l0.011 0.012-238.625-238.79v-128.846c0-0.103 0-0.226 0-0.348 0-94.226-76.385-170.612-170.612-170.612-36.765 0-70.814 11.629-98.669 31.409l0.528-0.356-60.915-60.915c43.253-34.59 98.753-55.508 159.139-55.508 141.317 0 255.876 114.56 255.876 255.876 0 0.159 0 0.319 0 0.478v-0.025 85.017c0 23.568 19.106 42.674 42.674 42.674s42.674-19.106 42.674-42.674v0-85.017c-0.23-173.349-129.563-316.42-296.995-338.234l-1.72-0.183v-88.319h128.021c23.568 0 42.674-19.106 42.674-42.674s-19.106-42.674-42.674-42.674v0zM421.37 362.735c47.11 0.094 85.265 38.306 85.265 85.429 0 0.029 0 0.058 0 0.087v-0.005 43.747l-121.17-121.417c10.501-5.002 22.82-7.924 35.822-7.924 0.029 0 0.058 0 0.087 0h-0.005zM336.023 789.388v-341.141c0.015-3.391 0.225-6.716 0.618-9.985l-0.040 0.41 170.034 169.869v180.847c-1.475 45.98-39.103 82.693-85.306 82.693s-83.831-36.713-85.302-82.558l-0.003-0.135z" />
<glyph unicode="&#xe901;" glyph-name="mic" horiz-adv-x="683" d="M341.306 277.306c94.234 0.094 170.6 76.46 170.694 170.685v341.397c-2.102 92.643-77.701 166.941-170.653 166.941s-168.551-74.298-170.649-166.746l-0.003-0.195v-341.388c0.094-94.205 76.413-170.553 170.598-170.694h0.013zM255.959 789.058c0 47.136 38.211 85.347 85.347 85.347s85.347-38.211 85.347-85.347v0-341.388c0-47.136-38.211-85.347-85.347-85.347s-85.347 38.211-85.347 85.347v0zM682.612 533.182v-85.347c-0.23-173.349-129.563-316.42-296.995-338.234l-1.72-0.183v-88.319h128.021c23.568 0 42.674-19.106 42.674-42.674s-19.106-42.674-42.674-42.674h-341.306c-23.568 0-42.674 19.106-42.674 42.674s19.106 42.674 42.674 42.674h128.021v88.319c-169.151 21.997-298.484 165.068-298.715 338.392v85.537c0 23.568 19.106 42.674 42.674 42.674s42.674-19.106 42.674-42.674v-85.347c0-141.317 114.56-255.876 255.876-255.876s255.876 114.56 255.876 255.876v0 85.347c0 23.568 19.106 42.674 42.674 42.674s42.674-19.106 42.674-42.674v0z" />
<glyph unicode="&#xe902;" glyph-name="application-doc" horiz-adv-x="900" d="M809.988 839.976h-29.985v30.013c-0.063 49.686-40.325 89.948-90.005 90.011h-599.987c-49.693-0.047-89.963-40.318-90.011-90.006v-724.015c0.063-49.681 40.328-89.936 90.006-89.983h29.99v-30.013c0.063-49.681 40.328-89.936 90.006-89.983h599.985c49.683 0.047 89.948 40.302 90.011 89.977v724.016c-0.063 49.681-40.328 89.936-90.006 89.983h-0.005zM146.365 728.714c-16.288-16.196-26.369-38.62-26.369-63.399 0-0.085 0-0.171 0-0.256v0.013-549.134h-29.985c-16.56 0.016-29.981 13.428-30.013 29.982v724.013c0 16.581 13.434 30.025 30.011 30.041h599.982c16.569-0.016 29.997-13.444 30.013-30.011v-30.015h-425.16c-0.077 0-0.168 0-0.259 0-24.769 0-47.185-10.070-63.38-26.338l-0.003-0.003zM299.99 779.922v-119.996h-119.996v5.146c0 0.024 0 0.053 0 0.082 0 8.262 3.36 15.739 8.789 21.14l84.866 84.866c5.395 5.413 12.857 8.762 21.102 8.762 0.033 0 0.066 0 0.099 0h-0.005zM840 25.928c-0.032-16.557-13.453-29.969-30.011-29.985h-599.982c-16.56 0.016-29.981 13.428-30.013 29.982v574.004h150.009c16.564 0.016 29.985 13.447 29.985 30.013v0 149.981h449.999c16.566 0 29.997-13.421 30.013-29.984v-0.002zM749.989 535.98h-479.984c-16.568 0-29.999-13.431-29.999-29.999s13.431-29.999 29.999-29.999v0h479.984c16.568 0 29.999 13.431 29.999 29.999s-13.431 29.999-29.999 29.999v0zM749.989 415.984h-479.984c-16.568 0-29.999-13.431-29.999-29.999s13.431-29.999 29.999-29.999v0h479.984c16.568 0 29.999 13.431 29.999 29.999s-13.431 29.999-29.999 29.999v0zM749.989 295.988h-479.984c-16.568 0-29.999-13.431-29.999-29.999s13.431-29.999 29.999-29.999v0h479.984c16.568 0 29.999 13.431 29.999 29.999s-13.431 29.999-29.999 29.999v0zM749.989 175.992h-479.984c-0.272 0.009-0.592 0.014-0.914 0.014-16.576 0-30.013-13.437-30.013-30.013s13.437-30.013 30.013-30.013c0.321 0 0.641 0.005 0.96 0.015l-0.047-0.001h479.984c0.272-0.009 0.592-0.014 0.914-0.014 16.576 0 30.013 13.437 30.013 30.013s-13.437 30.013-30.013 30.013c-0.321 0-0.641-0.005-0.96-0.015l0.047 0.001z" />
<glyph unicode="&#xe903;" glyph-name="back-pay" horiz-adv-x="1170" d="M1133.77 301.74c-20.203 0-36.58-16.377-36.58-36.58v-256h-1024v438.87h402.29c0.311-0.009 0.676-0.015 1.043-0.015 20.203 0 36.58 16.377 36.58 36.58s-16.377 36.58-36.58 36.58c-0.367 0-0.732-0.005-1.096-0.016l0.053 0.001h-402.29v146.29h402.29c0.311-0.009 0.676-0.015 1.043-0.015 20.203 0 36.58 16.377 36.58 36.58s-16.377 36.58-36.58 36.58c-0.367 0-0.732-0.005-1.096-0.016l0.053 0.001h-402.29c-40.395 0-73.143-32.738-73.16-73.128v-658.322c0-40.405 32.755-73.16 73.16-73.16v0h1024.030c40.405 0 73.16 32.755 73.16 73.16v0 256c0 0.009 0 0.019 0 0.030 0 20.203-16.377 36.58-36.58 36.58-0.010 0-0.021 0-0.031 0h0.002zM1148.193 847.405l-256.030 109.71c-4.264 1.834-9.227 2.901-14.439 2.901s-10.175-1.067-14.682-2.994l0.244 0.093-256.030-109.71c-13.095-5.789-22.067-18.665-22.067-33.636 0-0.010 0-0.020 0-0.031v0.002-146.26c0-201.249 74.349-318.84 274.349-434.201 5.235-3.030 11.517-4.817 18.216-4.817s12.981 1.788 18.394 4.912l-0.178-0.095c199.97 114.944 274.349 232.565 274.349 434.201v146.26c0 0.013 0 0.028 0 0.042 0 14.984-9.001 27.865-21.892 33.531l-0.235 0.092zM1097.19 667.48c0-168.892-55.881-261.888-219.45-359.851-163.569 98.141-219.42 191.197-219.42 359.851v122.141l219.42 94.067 219.45-94.067zM1010.379 732.639c-6.209 4.946-14.167 7.936-22.823 7.936-11.517 0-21.798-5.293-28.544-13.578l-0.053-0.067-114.974-143.792-45.502 68.015c-6.649 9.878-17.787 16.289-30.424 16.289-20.19 0-36.557-16.367-36.557-36.557 0-7.553 2.291-14.572 6.216-20.398l-0.083 0.13 73.16-109.71c6.396-9.434 16.846-15.703 28.791-16.294l0.086-0.003h1.517c0.011 0 0.024 0 0.037 0 11.529 0 21.813 5.334 28.518 13.669l0.055 0.071 146.29 182.87c4.996 6.202 8.019 14.176 8.019 22.855 0 11.525-5.33 21.805-13.659 28.51l-0.071 0.055z" />
<glyph unicode="&#xe904;" glyph-name="broom" d="M460.734 55.474h-238.893c-9.185-0.309-16.513-7.83-16.513-17.061s7.328-16.752 16.485-17.060l0.028-0.001h238.893c9.185 0.309 16.513 7.83 16.513 17.061s-7.328 16.752-16.485 17.060l-0.028 0.001zM460.734 123.737h-238.893c-0.166 0.006-0.361 0.009-0.557 0.009-9.428 0-17.070-7.643-17.070-17.070s7.643-17.070 17.070-17.070c0.196 0 0.391 0.003 0.586 0.010l-0.028-0.001h238.893c0.166-0.006 0.361-0.009 0.557-0.009 9.428 0 17.070 7.643 17.070 17.070s-7.643 17.070-17.070 17.070c-0.196 0-0.391-0.003-0.586-0.010l0.028 0.001zM341.297 567.401c-94.105 0-170.721-84.205-170.721-187.719s76.543-187.719 170.648-187.719 170.648 84.205 170.648 187.719-76.489 187.719-170.576 187.719zM341.297 226.104c-75.269 0-136.49 68.882-136.49 153.578s61.238 153.578 136.49 153.578 136.49-68.882 136.49-153.578-61.22-153.578-136.49-153.578zM341.297 499.156c-37.701 0-68.263-30.562-68.263-68.263s30.562-68.263 68.263-68.263c37.701 0 68.263 30.562 68.263 68.263v0c-0.041 37.684-30.579 68.222-68.259 68.263h-0.004zM341.297 396.771c-18.845 0-34.122 15.277-34.122 34.122s15.277 34.122 34.122 34.122c18.845 0 34.122-15.277 34.122-34.122v0c-0.021-18.837-15.285-34.102-34.12-34.122h-0.002zM1006.802-29.841h-17.052v51.193h-68.263v68.263h-34.141v416.603l51.629 51.611c41.864 41.633 67.773 99.272 67.773 162.963 0 0.233 0 0.465-0.001 0.697v-0.036 137.873c0.003 0.282 0.005 0.615 0.005 0.949 0 32.291-16.375 60.758-41.275 77.549l-0.332 0.211c-18.841 13.695-42.436 21.909-67.95 21.909-19.736 0-38.325-4.915-54.608-13.588l0.627 0.305c-34.946-19.153-58.246-55.682-58.254-97.653v-300.278l-170.648-170.648v1.729c-0.149 113.807-69.83 211.303-168.835 252.296l-1.813 0.665v20.018c0 56.546-45.84 102.385-102.385 102.385s-102.385-45.84-102.385-102.385v0-20.018c-70.459-29.275-124.984-84.98-152.028-154.422l-0.64-1.868c-51.853-29.729-86.221-84.757-86.221-147.813 0-55.503 26.628-104.787 67.806-135.773l0.435-0.313v-256.564h102.404v34.122h341.279v-34.122h102.385v297.147l170.648 170.648v-314.217h-34.122v-68.263h-68.263v-51.193h-17.070c-9.185-0.309-16.513-7.83-16.513-17.061s7.328-16.752 16.485-17.060l0.028-0.001h341.297c9.428 0 17.070 7.643 17.070 17.070s-7.643 17.070-17.070 17.070v0zM853.224 379.628h-34.122v34.213h34.122zM904.399 806.313v-56.525c-0.073-28.854-6.352-56.223-17.572-80.868l0.502 1.231v178.856c0 4.714 3.821 8.535 8.535 8.535s8.535-3.821 8.535-8.535v0zM972.662 721.525c0-0.155 0.001-0.339 0.001-0.522 0-54.317-22.089-103.475-57.773-138.981l-27.543-27.543v50.392c31.828 39.279 51.122 89.846 51.193 144.918v22.4h34.122zM819.084 848.916c0.021 29.095 16.203 54.406 40.054 67.443l0.401 0.201c10.961 5.689 23.931 9.025 37.68 9.025 18.526 0 35.638-6.058 49.462-16.3l-0.225 0.159c15.914-10.998 26.208-29.144 26.208-49.695 0-0.168-0.001-0.336-0.002-0.504v0.026-52.94h-34.104v42.676c0 23.559-19.098 42.658-42.658 42.658s-42.658-19.098-42.658-42.658v0-401.025h-34.141v401.025zM273.034 643.872v8.881c0.882 37.016 31.098 66.687 68.245 66.687s67.363-29.67 68.243-66.605l0.002-0.082v-8.881c-1.383 0.364-2.784 0.619-4.167 0.965-4.204 1.019-8.353 2.075-12.63 2.875-6.733 1.31-13.503 2.311-20.291 3.112-2.402 0.273-4.823 0.491-7.279 0.692-7.971 0.71-15.942 1.219-23.931 1.219s-15.96-0.491-23.931-1.219c-2.42-0.2-4.841-0.419-7.279-0.692-6.77-0.801-13.558-1.82-20.291-3.112-4.258-0.819-8.426-1.82-12.63-2.875-1.292-0.364-2.693-0.601-4.058-0.965zM34.122 328.526c0 0.060 0 0.13 0 0.201 0 36.431 14.332 69.514 37.665 93.919l-0.048-0.051c-0.4-2.457-0.564-4.914-0.91-7.37-0.473-3.64-1.001-7.279-1.328-10.919-0.746-8.153-1.238-16.379-1.238-24.514v-141.458c-21.195 23.893-34.141 55.523-34.141 90.176 0 0.006 0 0.011 0 0.017v-0.001zM102.385-29.841v136.49h34.122v-136.49zM580.19-29.841h-34.122v136.49h34.122zM580.19 140.807h-68.263v-136.49h-341.279v136.49h-68.263v238.893c0 7.37 0.437 14.559 1.11 21.838 0.364 3.876 0.965 7.734 1.51 11.593 0.419 2.966 0.837 5.951 1.365 8.899q1.401 7.68 3.349 15.287c0.346 1.347 0.692 2.693 1.037 4.040 1.547 5.751 3.294 11.483 5.296 17.179 24.651 68.576 77.696 121.663 144.575 145.844l1.67 0.527c5.824 2.056 11.684 3.822 17.58 5.46l3.294 0.855c5.46 1.383 10.919 2.584 16.379 3.64 2.056 0.364 4.167 0.655 6.26 0.965 4.804 0.728 9.609 1.438 14.432 1.82 3.64 0.328 7.516 0.419 11.283 0.564q9.809 0.419 19.6 0c3.767-0.146 7.552-0.237 11.283-0.564 4.804-0.437 9.627-1.128 14.432-1.82 2.075-0.309 4.204-0.601 6.26-0.965 5.46-0.983 10.919-2.184 16.379-3.64l3.294-0.855c5.878-1.583 11.756-3.367 17.58-5.46 93.791-33.636 159.705-121.702 159.875-225.187v-238.914zM614.313 329.727l170.648 170.648v-48.281l-170.648-170.648zM819.084 345.578h34.122v-255.964h-34.104zM784.961 55.547h102.385v-34.122h-102.385zM716.698-29.768v17.070h238.911v-17.070z" />
<glyph unicode="&#xe905;" glyph-name="bulb" horiz-adv-x="659" d="M561.338 864.377c-59.167 59.096-140.867 95.643-231.103 95.643-0.319 0-0.637 0-0.956-0.001h-2.344c-180.851-1.329-326.947-148.244-326.947-329.283 0-88.668 35.045-169.151 92.041-228.353l-0.1 0.104c46.578-48.573 75.256-114.627 75.256-187.38 0-0.558-0.002-1.115-0.005-1.672v0.086-137.366c0-0.011 0-0.024 0-0.037 0-28.151 19.361-51.78 45.494-58.297l0.414-0.087v-18.318c0.043-35.048 28.443-63.448 63.487-63.491h105.012c35.048 0.043 63.448 28.443 63.491 63.487v18.322c26.742 6.44 46.309 30.141 46.342 58.418v137.333c0.328 74.252 29.713 141.577 77.359 191.249l-0.092-0.097c55.68 58.847 89.914 138.486 89.914 226.122 0 91.364-37.209 174.038-97.3 233.694l-0.020 0.019zM405.088-0.49c-0.011-12.975-10.526-23.49-23.5-23.501h-105.009c-12.975 0.011-23.49 10.526-23.501 23.5v16.623h151.991zM451.43 76.137c-0.011-11.039-8.956-19.985-19.994-19.995h-204.251c-11.039 0.011-19.985 8.956-19.995 19.994v113.735h244.221v-113.715zM297.894 229.88v252.966h62.304v-252.966h-62.304zM539.76 432.094c-50.621-52.878-83.235-123.357-87.781-201.373l-0.040-0.861h-51.656v252.985h17.979c31.998 0.043 57.927 25.971 57.969 57.965v3.095c0 32.021-25.958 57.979-57.979 57.979s-57.979-25.958-57.979-57.979v0-21.107h-62.304v21.126c-0.011 32.049-25.994 58.026-58.045 58.026h-3.939c-31.998-0.043-57.927-25.971-57.969-57.965v-3.095c0.043-31.998 25.971-57.927 57.965-57.969h21.922v-253.041h-51.11c-3.726 78.109-35.816 148.073-86.11 200.414l0.099-0.103c-49.987 51.638-80.795 122.104-80.795 199.766 0 3.101 0.049 6.19 0.147 9.268l-0.011-0.45c5.66 155.032 131.538 278.857 286.869 281.213l0.227 0.003c0.649 0.005 1.415 0.008 2.182 0.008 159.776 0 289.3-129.524 289.3-289.3 0-76.965-30.055-146.911-79.069-198.74l0.128 0.136zM400.302 522.836v21.088c0 9.929 8.049 17.979 17.979 17.979s17.979-8.049 17.979-17.979v0-3.091c-0.011-9.925-8.054-17.968-17.978-17.979h-0.001zM257.998 543.906v-21.107h-22.031c-9.925 0.011-17.968 8.054-17.979 17.978v3.092c0.011 9.925 8.054 17.968 17.978 17.979h3.94c9.905-0.011 17.936-8.021 17.979-17.918v-0.004zM543.68 717.286c-35.242 85.864-118.203 145.231-215.030 145.231-0.596 0-1.192-0.002-1.787-0.007l0.091 0.001c-11.015-0.037-19.929-8.975-19.929-19.995 0-11.043 8.952-19.995 19.995-19.995 0.023 0 0.046 0 0.070 0h1.541c0.206 0.001 0.451 0.001 0.695 0.001 79.95 0 148.419-49.161 176.824-118.904l0.46-1.276c3.042-7.408 10.199-12.529 18.554-12.529 11.047 0 20.002 8.955 20.002 20.002 0 2.693-0.532 5.261-1.497 7.605l0.048-0.133zM554.572 644.843c-3.618 3.616-8.615 5.852-14.134 5.852-11.043 0-19.995-8.952-19.995-19.995s8.952-19.995 19.995-19.995c11.043 0 19.995 8.952 19.995 19.995 0 0.003 0 0.006 0 0.010v-0.001c-0.020 5.518-2.255 10.509-5.862 14.135l0.001-0.001z" />
<glyph unicode="&#xe906;" glyph-name="conditioning" horiz-adv-x="1688" d="M1569.216 960.027h-1167.876c-13.686 0-24.781-11.095-24.781-24.781s11.095-24.781 24.781-24.781h1167.876c38.132-0.046 69.032-30.945 69.078-69.073v-527.603c-0.046-38.132-30.945-69.032-69.073-69.078h-59.218v161.413c0 13.686-11.095 24.781-24.781 24.781v0h-1282.479c-13.686 0-24.781-11.095-24.781-24.781v0-161.439h-59.32c-38.132 0.046-69.032 30.945-69.078 69.073v527.603c0.046 38.132 30.945 69.032 69.073 69.078h183.579c13.686 0 24.781 11.095 24.781 24.781s-11.095 24.781-24.781 24.781h-183.574c-65.492-0.076-118.564-53.148-118.64-118.633v-527.606c0.076-65.492 53.148-118.564 118.633-118.64h257.952c13.686 0 24.781 11.095 24.781 24.781s-11.095 24.781-24.781 24.781h-149.062v43.548h984.756c13.686 0 24.781 11.095 24.781 24.781s-11.095 24.781-24.781 24.781h-984.756v43.548h1232.917v-43.548h-149.035c-13.686 0-24.781-11.095-24.781-24.781s11.095-24.781 24.781-24.781h149.035v-43.548h-984.756c-13.686 0-24.781-11.095-24.781-24.781s11.095-24.781 24.781-24.781h1093.532c65.492 0.076 118.564 53.148 118.64 118.633v527.606c-0.061 65.504-53.138 118.591-118.633 118.667h-0.007zM1485.221 758.515c13.686 0 24.781 11.095 24.781 24.781s-11.095 24.781-24.781 24.781h-73.275c-13.686 0-24.781-11.095-24.781-24.781s11.095-24.781 24.781-24.781v0zM1298.867 758.515c13.686 0 24.781 11.095 24.781 24.781s-11.095 24.781-24.781 24.781h-469c-13.686 0-24.781-11.095-24.781-24.781s11.095-24.781 24.781-24.781v0zM466.113 128.824c-13.686 0-24.781-11.095-24.781-24.781v0c-3.582-50.967-30.003-95.103-68.99-122.626l-0.515-0.345c-6.51-4.53-10.718-11.976-10.718-20.404 0-13.686 11.095-24.781 24.781-24.781 5.51 0 10.6 1.798 14.715 4.84l-0.068-0.048c52.195 36.977 86.79 95.828 90.361 162.912l0.023 0.532c-0.046 13.652-11.123 24.701-24.781 24.701-0.009 0-0.019 0-0.028 0h0.001zM643.539 128.824c-13.686 0-24.781-11.095-24.781-24.781v0-143.208c0-13.686 11.095-24.781 24.781-24.781s24.781 11.095 24.781 24.781v0 143.234c-0.015 13.675-11.104 24.755-24.781 24.755v0zM850.959 128.824c-13.686 0-24.781-11.095-24.781-24.781v0-143.208c0-13.686 11.095-24.781 24.781-24.781s24.781 11.095 24.781 24.781v143.234c-0.015 13.675-11.104 24.755-24.781 24.755v0zM1316.19-19.009c-39.607 27.851-66.067 72.096-69.478 122.66l-0.027 0.498c0 13.686-11.095 24.781-24.781 24.781s-24.781-11.095-24.781-24.781v0c3.594-67.617 38.189-126.468 89.721-162.999l0.662-0.446c4.048-2.994 9.138-4.792 14.648-4.792 13.686 0 24.781 11.095 24.781 24.781 0 8.428-4.208 15.874-10.637 20.351l-0.081 0.053zM1044.451 128.824c-13.686 0-24.781-11.095-24.781-24.781v0-143.208c0-13.686 11.095-24.781 24.781-24.781s24.781 11.095 24.781 24.781v0 143.234c-0.015 13.675-11.104 24.755-24.781 24.755v0z" />
<glyph unicode="&#xe907;" glyph-name="detail-arrow-l" horiz-adv-x="1755" d="M563.715-42.49c13.275 13.238 21.489 31.546 21.489 51.772s-8.214 38.534-21.487 51.77l-387.063 386.948 387.175 387.061c11.067 12.757 17.811 29.524 17.811 47.866 0 40.441-32.784 73.225-73.225 73.225-18.2 0-34.849-6.64-47.657-17.629l0.098 0.082-439.347-438.775c-13.275-13.238-21.489-31.546-21.489-51.772s8.214-38.534 21.487-51.77l438.777-438.777c13.209-13.105 31.402-21.204 51.486-21.204s38.277 8.099 51.491 21.208l-0.005-0.005zM73.225 448c0-40.378 32.733-73.11 73.11-73.11v0h1535.657c40.378 0 73.11 32.733 73.11 73.11s-32.733 73.11-73.11 73.11v0h-1535.657c-40.378 0-73.11-32.733-73.11-73.11v0z" />
<glyph unicode="&#xe908;" glyph-name="dishes" horiz-adv-x="840" d="M820.008 960h-800.001c-11.049 0-20.006-8.957-20.006-20.006v0-984.005c0-11.049 8.957-20.006 20.006-20.006v0h800.001c11.049 0 20.006 8.957 20.006 20.006v0 984.005c0 11.049-8.957 20.006-20.006 20.006v0zM800.001-24.005h-760.007v684h39.995c0-0.002 0-0.004 0-0.006 0-8.835 5.726-16.332 13.67-18.982l0.141-0.041c97.303-32.738 209.357-51.63 325.823-51.63 0.129 0 0.257 0 0.386 0h-0.020c0.109 0 0.239 0 0.369 0 116.464 0 228.517 18.892 333.259 53.777l-7.439-2.148c8.085 2.691 13.811 10.188 13.811 19.023 0 0.002 0 0.004 0 0.007v0h39.995zM120.002 674.636v5.366h600.010v-5.366c-89.642-28.751-192.762-45.323-299.754-45.323-0.088 0-0.177 0-0.265 0h0.014c-0.075 0-0.163 0-0.251 0-106.991 0-210.112 16.572-306.935 47.29l7.182-1.966zM800.001 700.008h-39.995c0 11.049-8.957 20.006-20.006 20.006h-640.005c-11.041-0.011-19.988-8.964-19.988-20.006v0h-40.013v219.998h760.007zM739.926 255.993c-11.039-0.010-19.986-8.951-20.006-19.986v-180.005h-267.921c-10.785-0.338-19.399-9.162-19.399-19.997s8.614-19.659 19.368-19.996l0.031-0.001h287.927c11.049 0 20.006 8.957 20.006 20.006v0 199.973c-0.010 11.045-8.961 19.996-20.005 20.006h-0.001zM372.010 56.002c-11.049 0-20.006-8.957-20.006-20.006s8.957-20.006 20.006-20.006c11.049 0 20.006 8.957 20.006 20.006v0c-0.010 11.045-8.961 19.996-20.005 20.006h-0.001zM580.004 759.99h159.997c11.049 0 20.006 8.957 20.006 20.006v0 79.989c0 11.049-8.957 20.006-20.006 20.006h-159.997c-11.049 0-20.006-8.957-20.006-20.006v0-80.007c0.011-11.041 8.964-19.988 20.006-19.988v0zM600.010 839.998h120.002v-39.995h-120.002zM340 800.003c11.049 0 20.006 8.957 20.006 20.006s-8.957 20.006-20.006 20.006c-11.049 0-20.006-8.957-20.006-20.006 0-0.006 0-0.013 0-0.019v0.001c0.011-11.041 8.964-19.988 20.006-19.988v0zM500.015 800.003c11.049 0 20.006 8.957 20.006 20.006s-8.957 20.006-20.006 20.006c-11.049 0-20.006-8.957-20.006-20.006 0-0.006 0-0.013 0-0.019v0.001c0.011-11.041 8.964-19.988 20.006-19.988v0zM420.007 800.003c11.049 0 20.006 8.957 20.006 20.006s-8.957 20.006-20.006 20.006c-11.049 0-20.006-8.957-20.006-20.006 0-0.006 0-0.013 0-0.019v0.001c0.011-11.041 8.964-19.988 20.006-19.988v0z" />
<glyph unicode="&#xe909;" glyph-name="download" horiz-adv-x="564" d="M11.854 264.89c7.138 7.673 17.274 12.474 28.533 12.53h0.010c11.268-0.055 21.405-4.857 28.521-12.506l0.022-0.024 213.16-225.846 213.16 225.898c7.115 7.745 17.29 12.582 28.595 12.582s21.48-4.837 28.569-12.554l0.025-0.028c7.327-7.909 11.821-18.533 11.821-30.206s-4.495-22.297-11.848-30.235l0.027 0.029-241.703-256c-7.107-7.759-17.285-12.607-28.595-12.607s-21.487 4.847-28.568 12.578l-0.026 0.029-241.703 256c-7.338 7.904-11.84 18.53-11.84 30.206s4.502 22.302 11.866 30.234l-0.026-0.028zM282.151-21.264c-22.411 0.714-40.307 19.053-40.307 41.572 0 0.391 0.005 0.781 0.016 1.169l-0.001-0.057v895.948c-0.009 0.331-0.015 0.721-0.015 1.112 0 22.519 17.896 40.858 40.242 41.571l0.065 0.002c22.411-0.714 40.307-19.053 40.307-41.572 0-0.391-0.005-0.781-0.016-1.169l0.001 0.057v-895.948c0.009-0.331 0.015-0.721 0.015-1.112 0-22.519-17.896-40.858-40.242-41.571l-0.065-0.002z" />
<glyph unicode="&#xe90a;" glyph-name="dry" d="M119.476 908.796c-28.279 0-51.204-22.925-51.204-51.204s22.925-51.204 51.204-51.204c28.279 0 51.204 22.925 51.204 51.204v0c0 28.279-22.925 51.204-51.204 51.204v0zM119.476 840.524c-9.426 0-17.068 7.642-17.068 17.068s7.642 17.068 17.068 17.068c9.426 0 17.068-7.642 17.068-17.068v0c0-9.426-7.642-17.068-17.068-17.068v0zM256 908.796c-28.279 0-51.204-22.925-51.204-51.204s22.925-51.204 51.204-51.204c28.279 0 51.204 22.925 51.204 51.204v0c0 28.279-22.925 51.204-51.204 51.204v0zM256 840.524c-9.426 0-17.068 7.642-17.068 17.068s7.642 17.068 17.068 17.068c9.426 0 17.068-7.642 17.068-17.068v0c0-9.426-7.642-17.068-17.068-17.068v0zM699.747 908.796c-28.279 0-51.204-22.925-51.204-51.204s22.925-51.204 51.204-51.204c28.279 0 51.204 22.925 51.204 51.204v0c0 28.279-22.925 51.204-51.204 51.204v0zM699.747 840.524c-9.426 0-17.068 7.642-17.068 17.068s7.642 17.068 17.068 17.068c9.426 0 17.068-7.642 17.068-17.068v0c0-9.426-7.642-17.068-17.068-17.068v0zM1006.932 362.66h-20.131c1.945 5.127 3.071 11.054 3.071 17.244 0 13.129-5.065 25.075-13.348 33.991l0.029-0.031c8.254 8.949 13.315 20.951 13.315 34.136s-5.061 25.187-13.347 34.171l0.032-0.035c8.225 8.965 13.276 20.957 13.311 34.129v0.007c-0.087 28.244-22.96 51.117-51.196 51.204h-119.445v375.456c0 9.426-7.642 17.068-17.068 17.068-0.007 0-0.014 0-0.020 0h-785.067c-9.426 0-17.068-7.642-17.068-17.068v0-989.864c0-9.426 7.642-17.068 17.068-17.068v0h938.68c8.804 0.049 16.026 6.757 16.889 15.34l0.006 0.072 32.595 308.899h1.715c9.426 0 17.068 7.642 17.068 17.068v68.214c0 9.426-7.642 17.068-17.068 17.068-0.007 0-0.014 0-0.020 0h0.001zM938.66 533.32c9.426 0 17.068-7.642 17.068-17.068s-7.642-17.068-17.068-17.068h-307.185c-9.426 0-17.068 7.642-17.068 17.068s7.642 17.068 17.068 17.068v0zM938.66 430.913h-307.185c-9.426 0-17.068 7.642-17.068 17.068s7.642 17.068 17.068 17.068h307.204c9.426 0 17.068-7.642 17.068-17.068s-7.642-17.068-17.068-17.068v0zM955.728 379.709c0-9.426-7.642-17.068-17.068-17.068v0h-307.185c-9.426 0-17.068 7.642-17.068 17.068s7.642 17.068 17.068 17.068h307.204c9.42 0 17.057-7.631 17.068-17.048v-0.001zM34.136 925.864h750.932v-136.524h-750.932zM34.136 755.204h750.932v-187.728h-140.801c-53.398 73.080-138.801 120.017-235.166 120.017-160.387 0-290.406-130.019-290.406-290.406s130.019-290.406 290.406-290.406c62.297 0 120.012 19.616 167.307 53.008l-0.913-0.612 10.923-103.602h-552.281zM593.583 413.864c-8.254-8.884-13.319-20.83-13.319-33.96 0-6.19 1.126-12.118 3.185-17.589l-0.114 0.344h-20.131c-9.426 0-17.068-7.642-17.068-17.068v0-68.272c0-9.426 7.642-17.068 17.068-17.068h1.715l6.492-61.645c-43.749-36.104-100.388-58-162.14-58-141.183 0-255.634 114.451-255.634 255.634 0 33.344 6.384 65.196 17.996 94.403l-0.606-1.727c5.625-1.926 11.096-3.756 16.721-5.779 31.761-13.002 68.622-20.549 107.245-20.549 2.255 0 4.504 0.026 6.746 0.077l-0.334-0.006c1.975-0.048 4.301-0.076 6.633-0.076 38.667 0 75.571 7.549 109.319 21.252l-1.947-0.699c28.283 11.682 61.123 18.465 95.547 18.465 2.345 0 4.682-0.031 7.011-0.094l-0.344 0.007c1.435 0.027 3.126 0.043 4.822 0.043 22.328 0 44.028-2.691 64.793-7.767l-1.863 0.385c2.308-4.626 5.037-8.61 8.231-12.167l-0.044 0.050c-8.254-8.949-13.315-20.951-13.315-34.136s5.061-25.187 13.347-34.171l-0.032 0.035zM582.314 529.911c-18.383 3.688-39.516 5.799-61.142 5.799-1.247 0-2.492-0.007-3.736-0.021l0.189 0.002c-1.941 0.047-4.228 0.073-6.521 0.073-38.645 0-75.528-7.548-109.254-21.249l1.944 0.698c-28.516-11.71-61.616-18.507-96.304-18.507-2.146 0-4.287 0.026-6.42 0.078l0.317-0.006c-1.925-0.052-4.192-0.082-6.466-0.082-34.459 0-67.328 6.803-97.34 19.138l1.706-0.621c-4.431 1.715-9.208 3.236-13.986 4.951 44.435 79.653 128.187 132.635 224.314 132.635 78.883 0 149.434-35.678 196.394-91.779l0.327-0.401c-11.575-6.729-20.173-17.502-23.93-30.341l-0.092-0.366zM34.136-29.864v51.185h555.864l5.471-51.204zM940.375-29.864h-310.614l-30.553 290.136h371.7zM989.864 294.408h-409.592v34.117h409.592z" />
<glyph unicode="&#xe90b;" glyph-name="export" horiz-adv-x="878" d="M804.34 175.682v-159.826h-731.197v159.826h-73.143v-159.826c-0.044-0.974-0.069-2.116-0.069-3.263 0-41.14 32.376-74.717 73.040-76.643l0.173-0.007h731.197c40.836 1.932 73.212 35.51 73.212 76.65 0 1.148-0.025 2.29-0.075 3.425l0.006-0.162v159.826zM79.913 560.492l50.633-55.957 272.434 302.409v-765.801h71.812v765.859l272.434-302.409 50.633 55.957-358.77 399.277z" />
<glyph unicode="&#xe90c;" glyph-name="for-home" d="M799.982-64h-575.964c-52.992 0.066-95.932 43.006-95.998 95.992v373.323h-74.649c-29.431 0.079-53.269 23.916-53.348 53.34v0.008c0.062 14.831 6.084 28.243 15.791 37.977l-0.001-0.001 474.059 454.455c5.733 5.478 13.519 8.85 22.093 8.85s16.36-3.372 22.105-8.862l-0.012 0.012 473.571-453.943c9.954-9.818 16.157-23.417 16.279-38.464v-0.023c-0.079-29.423-23.903-53.255-53.316-53.348h-74.682v-373.317c-0.053-52.972-42.961-95.905-95.919-95.998h-0.009zM79.742 469.313h80.254c17.667-0.013 31.986-14.332 31.999-31.998v-405.317c0.013-17.667 14.332-31.986 31.998-31.999h575.988c17.667 0.013 31.986 14.332 31.999 31.998v405.317c0.013 17.667 14.332 31.986 31.998 31.999h80.255l-432.246 414.339zM962.955 451.384v0zM526.476 115.996c-106.474 0.093-192.763 86.382-192.856 192.847v0.009c-0.007 0.265-0.012 0.578-0.012 0.891 0 18.854 15.284 34.139 34.139 34.139s34.139-15.284 34.139-34.139c0-0.313-0.004-0.626-0.013-0.937l0.001 0.046c0-68.803 55.776-124.579 124.579-124.579s124.579 55.776 124.579 124.579v0c-0.007 0.265-0.012 0.578-0.012 0.891 0 18.854 15.284 34.139 34.139 34.139s34.139-15.284 34.139-34.139c0-0.313-0.004-0.626-0.013-0.937l0.001 0.046c-0.093-106.458-86.355-192.737-192.798-192.856h-0.011z" />
<glyph unicode="&#xe90d;" glyph-name="for-work" d="M1022.116 715.551l-73.127 219.436c-4.996 14.657-18.642 25.011-34.707 25.013h-804.564c-16.065-0.002-29.711-10.356-34.63-24.755l-0.076-0.258-73.127-219.436c-1.067-3.135-1.737-6.753-1.855-10.509l-0.001-0.059v-37.547c0.133-59.345 28.636-112.005 72.662-145.154l0.465-0.335v-476.228c0-60.596 49.123-109.718 109.718-109.718v0h658.282c60.596 0 109.718 49.123 109.718 109.718v0 476.228c44.491 33.484 72.994 86.145 73.127 145.468v37.569c-0.13 3.819-0.809 7.435-1.962 10.832l0.078-0.265zM767.973 886.845h119.904l48.797-146.282h-168.701zM548.564 886.845h146.282v-146.282h-146.255zM329.127 886.845h146.282v-146.282h-146.282zM136.069 886.845h119.931v-146.282h-168.701zM841.127 9.127h-658.282c-20.197 0.016-36.564 16.392-36.564 36.591 0 0 0 0 0 0v0 442.532c10.937-2.352 23.501-3.7 36.38-3.7 41.537 0 79.801 14.014 110.322 37.571l-0.42-0.312c30.306-22.465 68.436-35.961 109.718-35.961s79.412 13.496 110.219 36.316l-0.501-0.355c30.302-22.463 68.427-35.957 109.705-35.957s79.403 13.494 110.206 36.312l-0.501-0.355c30.101-23.246 68.365-37.26 109.902-37.26 12.879 0 25.443 1.347 37.56 3.908l-1.18-0.209v-442.505c0-0.008 0-0.018 0-0.027 0-20.199-16.367-36.575-36.562-36.591h-0.002zM841.127 557.691c-32.847 0.023-62.263 14.695-82.070 37.836l-0.123 0.147c-6.75 7.661-16.583 12.469-27.539 12.469s-20.789-4.808-27.504-12.429l-0.035-0.040c-20.269-22.604-49.564-36.759-82.166-36.759s-61.897 14.156-82.075 36.656l-0.091 0.103c-6.917 7.326-16.696 11.886-27.54 11.886-10.042 0-19.171-3.911-25.946-10.293l0.019 0.018-1.611-1.611c-20.285-22.572-49.575-36.705-82.166-36.705s-61.881 14.132-82.076 36.603l-0.090 0.101c-6.913 7.324-16.687 11.884-27.526 11.884-10.037 0-19.162-3.91-25.932-10.291l0.019 0.018c-0.573-0.546-1.12-1.065-1.611-1.611-19.93-23.288-49.346-37.961-82.189-37.984h-0.004c-60.596 0-109.718 49.123-109.718 109.718v0h877.691c-0.016-60.584-49.132-109.691-109.718-109.691v0zM498.319 91.020c-113.052 0.14-204.66 91.748-204.8 204.786v0.014c0.627 24.97 21.018 44.972 46.080 44.972s45.453-20.002 46.079-44.914l0.001-0.058c0-62.209 50.431-112.64 112.64-112.64s112.64 50.431 112.64 112.64v0c0.627 24.97 21.018 44.972 46.080 44.972s45.453-20.002 46.079-44.914l0.001-0.058c-0.14-113.052-91.748-204.66-204.786-204.8h-0.014z" />
<glyph unicode="&#xe90e;" glyph-name="fridge" horiz-adv-x="601" d="M532.139 960.031h-463.331c-0.005 0-0.010 0-0.016 0-37.918 0-68.671-30.677-68.793-68.567v-886.87c0-0.009 0-0.020 0-0.031 0-37.849 30.683-68.533 68.533-68.533 0.097 0 0.194 0 0.291 0.001h463.316c0 0 0.001 0 0.002 0 37.959 0 68.761 30.641 69.022 68.538v886.883c-0.157 37.909-30.924 68.579-68.854 68.579-0.060 0-0.119 0-0.179 0h0.009zM556.681 4.441c-0.086-13.303-10.889-24.053-24.204-24.053-0.119 0-0.237 0.001-0.356 0.003h-463.313c-0.037 0-0.080 0-0.123 0-13.305 0-24.097 10.755-24.158 24.045v532.606h512.138v-532.6zM556.681 581.568h-512.199v309.961c0.061 13.296 10.853 24.051 24.158 24.051 0.043 0 0.086 0 0.13 0h463.324c0.001 0 0.003 0 0.005 0 13.381 0 24.261-10.71 24.536-24.025v-0.026zM489.836 781.858c-12.275-0.035-22.219-9.968-22.272-22.236v-89.076c-0.020-0.349-0.031-0.758-0.031-1.169 0-12.3 9.971-22.272 22.272-22.272s22.272 9.971 22.272 22.272c0 0.411-0.011 0.819-0.033 1.225l0.002-0.057v89.071c-0.052 12.252-9.961 22.171-22.204 22.241h-0.007zM489.836 336.566c12.292 0.035 22.245 9.994 22.272 22.284v111.329c-0.638 11.787-10.352 21.103-22.241 21.103s-21.603-9.316-22.238-21.046l-0.002-0.057v-111.327c0.026-12.271 9.945-22.217 22.204-22.287h0.007z" />
<glyph unicode="&#xe90f;" glyph-name="heater" d="M398.933 772.274h34.132c0.030 5.844 2.612 11.080 6.686 14.654l0.022 0.019c9.044 9.484 14.609 22.354 14.609 36.525s-5.565 27.042-14.629 36.546l0.020-0.021c-4.146 3.579-6.754 8.841-6.754 14.712s2.608 11.134 6.729 14.691l0.025 0.021c9.054 9.358 14.634 22.125 14.634 36.196 0 0.088 0 0.176-0.001 0.264v-0.014h-34.132c-0.030-5.844-2.612-11.080-6.686-14.654l-0.022-0.019c-9.044-9.484-14.609-22.354-14.609-36.525s5.565-27.042 14.629-36.546l-0.020 0.021c4.146-3.579 6.754-8.841 6.754-14.712s-2.608-11.134-6.729-14.691l-0.025-0.021c-9.054-9.358-14.634-22.125-14.634-36.196 0-0.088 0-0.176 0.001-0.264v0.014zM750.944 772.274h34.132c0.030 5.844 2.612 11.080 6.686 14.654l0.022 0.019c9.044 9.484 14.609 22.354 14.609 36.525s-5.565 27.042-14.629 36.546l0.020-0.021c-4.152 3.575-6.765 8.839-6.765 14.712s2.613 11.137 6.739 14.691l0.025 0.021c9.054 9.361 14.634 22.131 14.634 36.204 0 0.085 0 0.171-0.001 0.256v-0.013h-34.132c-0.030-5.844-2.612-11.080-6.686-14.654l-0.022-0.019c-9.044-9.484-14.609-22.354-14.609-36.525s5.565-27.042 14.629-36.546l-0.020 0.021c4.146-3.579 6.754-8.841 6.754-14.712s-2.608-11.134-6.729-14.691l-0.025-0.021c-9.054-9.358-14.634-22.125-14.634-36.196 0-0.088 0-0.176 0.001-0.264v0.014zM221.878 806.406h34.132c0.030 5.844 2.612 11.080 6.686 14.654l0.022 0.019c9.044 9.484 14.609 22.354 14.609 36.525s-5.565 27.042-14.629 36.546l0.020-0.021c-4.146 3.579-6.754 8.841-6.754 14.712s2.608 11.134 6.729 14.691l0.025 0.021c9.054 9.358 14.634 22.125 14.634 36.196 0 0.088 0 0.176-0.001 0.264v-0.014h-34.132c-0.030-5.844-2.612-11.080-6.686-14.654l-0.022-0.019c-9.044-9.484-14.609-22.354-14.609-36.525s5.565-27.042 14.629-36.546l-0.020 0.021c4.146-3.579 6.754-8.841 6.754-14.712s-2.608-11.134-6.729-14.691l-0.025-0.021c-9.054-9.358-14.634-22.125-14.634-36.196 0-0.088 0-0.176 0.001-0.264v0.014zM573.869 806.406h34.132c0.030 5.844 2.612 11.080 6.686 14.654l0.022 0.019c9.044 9.484 14.609 22.354 14.609 36.525s-5.565 27.042-14.629 36.546l0.020-0.021c-4.146 3.579-6.754 8.841-6.754 14.712s2.608 11.134 6.729 14.691l0.025 0.021c9.054 9.361 14.634 22.131 14.634 36.204 0 0.085 0 0.171-0.001 0.256v-0.013h-34.132c-0.030-5.844-2.612-11.080-6.686-14.654l-0.022-0.019c-9.044-9.484-14.609-22.354-14.609-36.525s5.565-27.042 14.629-36.546l-0.020 0.021c4.146-3.579 6.754-8.841 6.754-14.712s-2.608-11.134-6.729-14.691l-0.025-0.021c-9.054-9.358-14.634-22.125-14.634-36.196 0-0.088 0-0.176 0.001-0.264v0.014zM985.592 738.142h-12.809v34.132h-34.132v-34.132h-34.132v34.132h-34.132v-34.132h-733.858v-34.132h849.064c0.006 0 0.013 0 0.020 0 2.351 0 4.257-1.906 4.257-4.257 0-0.007 0-0.014 0-0.021v0.001-657.14c0-0.006 0-0.013 0-0.020 0-2.351-1.906-4.257-4.257-4.257-0.007 0-0.014 0-0.021 0h-712.534v-34.132h584.011l13.829-55.337c1.917-7.483 8.601-12.927 16.556-12.927h68.264c7.955 0 14.639 5.444 16.53 12.809l0.026 0.118 13.829 55.337c20.976 0.32 37.859 17.389 37.879 38.406v657.102c0 0 0 0 0 0 0 21.213-17.18 38.414-38.386 38.448h-0.003zM942.436-29.868h-41.625l-8.533 34.132h58.691zM34.132 42.653v657.14c0 0.006 0 0.013 0 0.020 0 2.351 1.906 4.257 4.257 4.257 0.007 0 0.014 0 0.021 0h63.987v34.054h-63.988c-21.203-0.022-38.386-17.205-38.408-38.406v-657.142c0.020-21.019 16.903-38.088 37.849-38.408h0.030l13.829-55.337c1.917-7.483 8.601-12.927 16.556-12.927h68.264c7.955 0 14.639 5.444 16.53 12.809l0.026 0.118 13.829 55.337h72.011v34.132h-200.516c-0.006 0-0.013 0-0.021 0-2.351 0-4.257 1.906-4.257 4.257 0 0.035 0 0.069 0.001 0.103v-0.005zM131.742 4.244l-8.533-34.132h-41.625l-8.533 34.132zM394.303 114.526h235.393v-39.232h-235.393v39.232zM955.736 652.792c0 9.425-7.641 17.066-17.066 17.066v0h-853.34c-9.425 0-17.066-7.641-17.066-17.066v0-494.914c0-9.425 7.641-17.066 17.066-17.066h733.878v34.132h-716.812v392.518h34.132c9.421-0.011 17.055-7.645 17.066-17.065v-290.143c0-28.276 22.922-51.198 51.198-51.198s51.198 22.922 51.198 51.198v290.142c0 9.425 7.641 17.066 17.066 17.066s17.066-7.641 17.066-17.066v0-290.142c0-28.276 22.922-51.198 51.198-51.198s51.198 22.922 51.198 51.198v0 290.142c0 9.425 7.641 17.066 17.066 17.066s17.066-7.641 17.066-17.066v0-290.142c0-28.276 22.922-51.198 51.198-51.198s51.198 22.922 51.198 51.198v290.142c0 9.425 7.641 17.066 17.066 17.066s17.066-7.641 17.066-17.066v0-290.142c0-28.276 22.922-51.198 51.198-51.198s51.198 22.922 51.198 51.198v290.142c0 9.425 7.641 17.066 17.066 17.066s17.066-7.641 17.066-17.066v0-290.142c0-28.276 22.922-51.198 51.198-51.198s51.198 22.922 51.198 51.198v0 290.142c0 9.425 7.641 17.066 17.066 17.066s17.066-7.641 17.066-17.066v0-281.609c0.045-32.971 26.76-59.686 59.727-59.731h25.603v-34.132h-68.264v-34.132h85.33c9.425 0 17.066 7.641 17.066 17.066v0zM921.565 243.188h-25.501c-14.129 0.022-25.577 11.47-25.599 25.597v281.611c0 28.276-22.922 51.198-51.198 51.198s-51.198-22.922-51.198-51.198v0-290.142c0-9.425-7.641-17.066-17.066-17.066s-17.066 7.641-17.066 17.066v0 290.142c0 28.276-22.922 51.198-51.198 51.198s-51.198-22.922-51.198-51.198v0-290.142c0-9.425-7.641-17.066-17.066-17.066s-17.066 7.641-17.066 17.066v0 290.142c0 28.276-22.922 51.198-51.198 51.198s-51.198-22.922-51.198-51.198v0-290.142c0-9.425-7.641-17.066-17.066-17.066s-17.066 7.641-17.066 17.066v0 290.142c0 28.276-22.922 51.198-51.198 51.198s-51.198-22.922-51.198-51.198v0-290.142c0-9.425-7.641-17.066-17.066-17.066s-17.066 7.641-17.066 17.066v0 290.142c0 28.276-22.922 51.198-51.198 51.198s-51.198-22.922-51.198-51.198v0-290.142c0-9.425-7.641-17.066-17.066-17.066s-17.066 7.641-17.066 17.066v0 290.142c-0.033 28.262-22.936 51.165-51.195 51.198h-34.233v34.132h819.169zM923.938 114.526h39.232v-39.232h-39.232v39.232zM845.474 114.526h39.232v-39.232h-39.232v39.232zM60.83 114.526h39.232v-39.232h-39.232v39.232zM139.294 114.526h39.232v-39.232h-39.232v39.232z" />
<glyph unicode="&#xe910;" glyph-name="info" d="M512-64v0c-282.77 0-512 229.23-512 512v0c0 282.77 229.23 512 512 512s512-229.23 512-512c0-282.77-229.23-512-512-512zM571.733 538.368l-146.773-18.347-5.205-24.32 28.757-5.291c18.773-4.523 22.528-11.264 18.432-30.037l-47.189-221.867c-12.373-57.429 6.741-84.395 51.712-84.395 0.299-0.002 0.652-0.004 1.006-0.004 36.134 0 68.89 14.461 92.796 37.912l-0.021-0.021 5.632 26.624c-11.915-9.667-27.229-15.566-43.917-15.701h-0.030c-17.579 0-23.979 12.373-19.456 34.133zM512 608c35.346 0 64 28.654 64 64s-28.654 64-64 64c-35.346 0-64-28.654-64-64v0c0-35.346 28.654-64 64-64v0z" />
<glyph unicode="&#xe911;" glyph-name="iron" horiz-adv-x="952" d="M892.256 564.803c0 3.173 0 6.397 0 9.689 0.577 70.453 1.357 166.953-34.395 252.543-2.281 5.555-7.649 9.396-13.914 9.396-8.284 0-15-6.716-15-15 0-2.158 0.456-4.21 1.276-6.064l-0.038 0.096c20.445-53.914 32.282-116.249 32.282-181.35 0-4.574-0.058-9.135-0.175-13.681l0.014 0.673h-236.253c1.154 101.336 14.508 229.364 118.237 305.535 23.090-17.066 42.651-37.275 58.499-60.242l0.551-0.845c2.742-3.965 7.265-6.53 12.387-6.53 8.292 0 15.014 6.722 15.014 15.014 0 3.17-0.983 6.111-2.66 8.534l0.033-0.050c-20.505 29.707-45.594 54.602-74.525 74.268l-0.985 0.631c-2.355 1.611-5.265 2.572-8.399 2.572s-6.044-0.961-8.451-2.605l0.052 0.033c-62.737-43.599-107.583-109.163-123.529-185.347l-0.342-1.951c-10.266-44.538-16.15-95.681-16.15-148.198 0-4.739 0.048-9.467 0.143-14.184l-0.011 0.706h-501.081c-20.178-0.019-36.531-16.372-36.55-36.548v-0.002c0.001-2.552 0.26-5.044 0.753-7.45l-0.041 0.238c-33.53-4.885-58.993-33.44-58.993-67.942 0-37.896 30.719-68.617 68.614-68.621h57.846v-218.13c0-8.284 6.716-15 15-15v0h184.448c8.284 0 15 6.716 15 15v0 73.338l49.209-49.209-194.273-194.425c-10.997-10.995-17.799-26.185-17.799-42.964 0-33.554 27.201-60.755 60.755-60.755 16.775 0 31.962 6.798 42.956 17.79l68.536 68.519c2.612 2.696 4.223 6.377 4.223 10.433 0 8.284-6.716 15-15 15-4.057 0-7.737-1.61-10.437-4.226l-68.532-68.515c-5.565-5.565-13.253-9.007-21.745-9.007-16.984 0-30.752 13.768-30.752 30.752 0 8.492 3.442 16.18 9.007 21.745l194.358 194.358 43.49-43.558-83.842-83.825c-2.612-2.696-4.223-6.377-4.223-10.433 0-8.284 6.716-15 15-15 4.057 0 7.737 1.61 10.437 4.226l83.905 83.871 194.273-194.341c10.947-10.719 25.95-17.333 42.498-17.333 33.559 0 60.764 27.205 60.764 60.764 0 16.548-6.614 31.55-17.344 42.508l0.010-0.011-194.341 194.341 194.12 194.086h127.485c0.002 0 0.004 0 0.006 0 37.889 0 68.604 30.715 68.604 68.604 0 34.852-25.989 63.634-59.644 68.024l-0.346 0.037zM626.19 565.363c0 3.088 0 6.21 0 9.401q0 7.975-0.119 16.341h236.372c0-5.6 0-11.063-0.119-16.375 0-3.19 0-6.295 0-9.384zM94.837 578.446h501.25c0-1.307 0-2.63 0-3.92 0-3.105 0-6.143 0-9.163h-501.25c-0.001 0-0.003 0-0.005 0-1.804 0-3.439 0.726-4.628 1.901l0.001-0.001c-1.174 1.163-1.901 2.775-1.901 4.558 0 0.026 0 0.053 0 0.079v-0.004c0 3.617 2.932 6.55 6.55 6.55v0zM68.621 458.122c-21.329 0-38.62 17.291-38.62 38.62s17.291 38.62 38.62 38.62v0h57.846v-77.241zM367.963 428.121h216.349l-108.123-108.174zM310.914 327.074h-154.414v208.289h154.414zM156.501 224.974v72.167h154.414v-72.082zM735.179-25.023c-5.57-5.554-13.257-8.988-21.745-8.988s-16.175 3.434-21.746 8.989l-350.772 350.756v87.015l394.264-394.264c5.559-5.571 8.997-13.261 8.997-21.754s-3.438-16.183-8.997-21.754l0.001 0.001zM540.838 255.246l-43.507 43.49 129.385 129.385h87.032zM910.939 469.423c-6.947-6.981-16.562-11.301-27.186-11.301-0.041 0-0.082 0-0.123 0h-542.716v77.241h542.722c0.001 0 0.003 0 0.004 0 21.329 0 38.62-17.291 38.62-38.62 0-10.67-4.327-20.329-11.322-27.319v0zM700.223 676.184c0-8.284-6.716-15-15-15s-15 6.716-15 15c0 8.284 6.716 15 15 15s15-6.716 15-15zM704.516 749.115c0-8.284-6.716-15-15-15s-15 6.716-15 15c0 8.284 6.716 15 15 15s15-6.716 15-15zM759.223 824.897c0-8.284-6.716-15-15-15s-15 6.716-15 15c0 8.284 6.716 15 15 15s15-6.716 15-15zM813.913 749.115c0-8.284-6.716-15-15-15s-15 6.716-15 15c0 8.284 6.716 15 15 15s15-6.716 15-15zM818.206 676.184c0-8.284-6.716-15-15-15s-15 6.716-15 15c0 8.284 6.716 15 15 15s15-6.716 15-15zM201.569 258.674c0-8.284-6.716-15-15-15s-15 6.716-15 15c0 8.284 6.716 15 15 15s15-6.716 15-15z" />
<glyph unicode="&#xe912;" glyph-name="kettle" horiz-adv-x="939" d="M641.856 960h-228.078c-93.24 0-171.752-49.712-233.974-147.903h-164.768c-8.305 0-15.037-6.732-15.037-15.037v0c1.571-99.946 27.923-193.402 73.157-274.934l-1.526 2.999q-12.941-58.031-22.74-123.026c-0.068-0.537-0.107-1.159-0.107-1.789 0-8.305 6.732-15.037 15.037-15.037 7.354 0 13.475 5.279 14.78 12.255l0.014 0.093q10.004 66.412 23.315 125.306c0.209 0.652 0.389 1.436 0.504 2.241l0.009 0.080c18.387 85.882 45.2 161.711 80.34 232.684l-2.568-5.735c16.606 32.912 35.188 61.27 56.526 87.281l-0.652-0.819h355.377c31.759-39.656 58.503-85.245 78.146-134.439l1.27-3.604c2.228-5.693 7.671-9.651 14.039-9.651 8.305 0 15.037 6.732 15.037 15.037 0 2.199-0.472 4.288-1.321 6.171l0.038-0.095c-19.498 48.357-42.654 90.050-70.192 128.384l1.232-1.804h12.099c96.863-0.117 175.353-78.608 175.47-175.459v-218.126c0-33.513 27.168-60.681 60.681-60.681s60.681 27.168 60.681 60.681v0 218.095c-0.187 163.846-132.948 296.622-296.771 296.832h-0.020zM413.778 929.926c58.175-0.175 110.868-23.503 149.376-61.25l-0.035 0.034h-298.681c38.479 37.701 91.168 61.027 149.304 61.215h0.037zM82.476 570.441c-29.87 61.859-48.762 134.126-52.176 210.42l-0.042 1.184h131.818c-2.896-5.279-5.772-10.641-8.587-16.167-28.256-55.825-52.595-120.926-69.638-188.921l-1.396-6.578zM908.636 445.134c0-16.904-13.704-30.608-30.608-30.608s-30.608 13.704-30.608 30.608v0 218.033c-0.129 113.474-92.088 205.427-205.553 205.544h-36.432c-21.157 24.129-45.846 44.493-73.398 60.468l-1.396 0.747h111.153c147.287-0.128 266.657-119.476 266.821-266.743v-0.016zM481.875 469.148v264.787c0 8.305-6.732 15.037-15.037 15.037h-106.819c-8.305 0-15.037-6.732-15.037-15.037v0-264.787c0-37.819 30.658-68.477 68.477-68.477s68.477 30.658 68.477 68.477v0zM375.057 469.148v26.705h22.268c8.305 0 15.037 6.732 15.037 15.037s-6.732 15.037-15.037 15.037h-22.268v39.769h22.268c8.305 0 15.037 6.732 15.037 15.037s-6.732 15.037-15.037 15.037h-22.268v39.769h22.268c8.305 0 15.037 6.732 15.037 15.037s-6.732 15.037-15.037 15.037h-22.268v53.409h76.807v-249.873c0.007-0.264 0.010-0.576 0.010-0.888 0-21.215-17.198-38.414-38.414-38.414s-38.414 17.198-38.414 38.414c0 0.312 0.004 0.624 0.011 0.934l-0.001-0.046zM743.293 50.358c27.612 17.656 47.157 45.854 53.017 78.786l0.105 0.712c2.486 9.823 4.083 21.193 4.431 32.877l0.006 0.237c-0.904 31.881-10.271 282.576-80.669 491.571-2.002 6.112-7.654 10.448-14.32 10.448-8.305 0-15.037-6.732-15.037-15.037 0-1.801 0.317-3.529 0.898-5.13l-0.033 0.105c63.372-187.898 76.293-410.841 78.676-470.577h-713.199c1.068 27.198 4.293 88.331 13.455 164.151 0.098 0.645 0.154 1.39 0.154 2.148 0 8.305-6.732 15.037-15.037 15.037-7.788 0-14.193-5.92-14.96-13.506l-0.005-0.063c-12.633-104.415-14.153-181.756-14.153-182.516 0-4.868 4.108-24.753 4.91-29.724 5.925-33.426 25.248-61.468 52.107-78.869l0.46-0.279c-36.127-20.738-62.863-54.379-74.137-94.492l-0.267-1.111c-0.328-1.178-0.517-2.53-0.517-3.926 0-8.284 6.635-15.018 14.881-15.178h778.558c8.261 0.16 14.896 6.894 14.896 15.178 0 1.396-0.189 2.749-0.541 4.033l0.025-0.107c-11.459 40.977-37.925 74.453-72.952 94.829l-0.753 0.404zM45.542-33.865c13.836 30.14 38.149 53.486 68.168 65.735l0.853 0.308h441.469c8.305 0 15.037 6.732 15.037 15.037s-6.732 15.037-15.037 15.037h-408.335c-0.015 0-0.033 0-0.050 0-43.205 0-79.121 31.208-86.435 72.312l-0.078 0.531-1.623 9.244h708.906l-1.623-9.244c-7.393-41.634-43.309-72.842-86.514-72.842-0.018 0-0.035 0-0.053 0h-54.208c-8.305 0-15.037-6.732-15.037-15.037s6.732-15.037 15.037-15.037h86.174c30.814-12.662 55.097-35.972 68.71-65.248l0.332-0.795z" />
<glyph unicode="&#xe913;" glyph-name="laptop" horiz-adv-x="1332" d="M1332.076 31.575c0 0.194 0 0.388 0 0.582-0.077 0.867-0.197 1.645-0.363 2.407l0.023-0.126v0.218c-0.18 0.807-0.372 1.472-0.598 2.122l0.040-0.132-0.194 0.51c-0.26 0.711-0.505 1.28-0.777 1.833l0.049-0.11-0.121 0.291-104.334 205.829v677.224c0 0 0 0 0 0.001 0 20.878-16.925 37.803-37.803 37.803-0.077 0-0.153 0-0.23-0.001h-1043.52c-20.853-0.028-37.751-16.925-37.779-37.776v-677.202l-104.455-206.12c-0.267-0.558-0.51-1.14-0.728-1.723l-0.194-0.51c-0.184-0.519-0.376-1.193-0.533-1.881l-0.025-0.133v-0.218c-0.195-0.621-0.381-1.397-0.517-2.191l-0.016-0.114c0-0.194 0-0.388 0-0.582s0-0.801 0-1.213v-49.498c0.083-24.725 20.131-44.739 44.861-44.766h1242.303c0 0 0 0 0 0 24.753 0 44.829 20.025 44.912 44.759v49.506c0 0.364 0 0.825 0 1.213zM145.582 920.96h1040.912v-661.088h-1040.912zM138.060 220.831h1056.004l86.67-170.962h-428.691l-21.522 78.032c-4.451 15.665-18.616 26.95-35.421 26.981h-258.194c-16.809-0.031-30.974-11.317-35.362-26.721l-0.063-0.26-21.522-78.032h-428.691zM811.669 49.869h-291.164l18.198 65.973h254.72zM1293.011-19.136c0-3.23-2.618-5.848-5.848-5.848v0h-1242.3c-3.23 0-5.848 2.618-5.848 5.848v0 29.99h1253.995zM1125.398 557.902c-10.72 0-19.411-8.691-19.411-19.411v0-197.87h-879.849v197.773c0 10.774-8.734 19.508-19.508 19.508s-19.508-8.734-19.508-19.508v0-206.241c0.014-16.892 13.704-30.583 30.595-30.596h896.617c16.892 0.014 30.583 13.704 30.596 30.595v206.242c0 0.029 0 0.063 0 0.097 0 10.72-8.691 19.411-19.411 19.411-0.043 0-0.085 0-0.128 0h0.007zM1114.309 879.42h-896.591c-16.892-0.014-30.583-13.704-30.596-30.595v-206.242c0-10.774 8.734-19.508 19.508-19.508s19.508 8.734 19.508 19.508v0 197.749h879.752v-197.87c0-10.774 8.734-19.508 19.508-19.508s19.508 8.734 19.508 19.508v0 206.241c0 0.029 0 0.063 0 0.097 0 16.903-13.696 30.607-30.595 30.621h-0.001z" />
<glyph unicode="&#xe914;" glyph-name="led-bulb" horiz-adv-x="513" d="M461.094 385.57h-414.979c-0.005 0-0.012 0-0.018 0-9.542 0-17.277-7.735-17.277-17.277 0-0.006 0-0.013 0-0.019v0.001c0.539-41.115 15.893-78.543 40.953-107.287l-0.17 0.199c16.251-17.318 26.753-40.202 28.364-65.502l0.016-0.308c0.042-28.629 23.239-51.826 51.864-51.868h207.512c28.629 0.042 51.826 23.239 51.868 51.864v0.004c1.626 25.608 12.129 48.492 28.433 65.867l-0.053-0.057c24.889 28.547 40.243 65.974 40.782 106.976l0.001 0.113c0 0.005 0 0.012 0 0.018 0 9.542-7.735 17.277-17.277 17.277-0.006 0-0.013 0-0.019 0h0.001zM409.629 281.578c-20.548-22.891-33.58-52.899-35.002-85.916l-0.010-0.286c-0.010-9.548-7.748-17.285-17.294-17.295h-207.472c-9.548 0.010-17.285 7.748-17.295 17.294v0.001c-1.432 33.302-14.464 63.311-35.125 86.33l0.113-0.128c-16.456 18.976-28.118 42.537-32.845 68.517l-0.134 0.884h378.135c-4.877-26.872-16.564-50.434-33.202-69.578l0.151 0.177zM430.186 544.764c-3.145 3.23-7.536 5.233-12.395 5.233-4.685 0-8.936-1.863-12.050-4.889l0.004 0.004-5.203-5.057c-42.139-40.765-112.42-109.012-112.42-171.763 0-9.542 7.735-17.277 17.277-17.277s17.277 7.735 17.277 17.277v0c0 48.112 66.305 112.383 101.922 146.937l5.24 5.075c3.239 3.144 5.25 7.539 5.25 12.403 0 4.691-1.87 8.946-4.905 12.060l0.004-0.004zM511.991 601.927c-5.932 32.694-34.181 57.162-68.145 57.162-4.231 0-8.374-0.38-12.396-1.107l0.422 0.063-374.617-65.957c-32.69-5.92-57.16-34.162-57.16-68.119 0-38.201 30.968-69.169 69.169-69.169 4.244 0 8.399 0.382 12.432 1.114l-0.422-0.064 374.617 65.957c32.684 5.922 57.147 34.16 57.147 68.111 0 4.237-0.381 8.385-1.111 12.411l0.063-0.422zM472.197 570.084c-5.181-7.366-13.026-12.559-22.107-14.186l-0.209-0.031-374.617-65.957c-1.575-0.254-3.39-0.399-5.24-0.399-19.104 0-34.591 15.487-34.591 34.591 0 16.718 11.86 30.666 27.625 33.889l0.223 0.038 374.599 65.957c1.796 0.331 3.863 0.52 5.974 0.52 19.104 0 34.591-15.487 34.591-34.591 0-7.425-2.339-14.304-6.321-19.939l0.073 0.109zM511.899 707.312c-5.922 32.684-34.16 57.147-68.111 57.147-4.237 0-8.385-0.381-12.411-1.111l0.422 0.063-374.617-65.957c-32.69-5.92-57.16-34.162-57.16-68.119 0-38.201 30.968-69.169 69.169-69.169 4.244 0 8.399 0.382 12.432 1.114l-0.422-0.064 374.617 65.957c32.687 5.91 57.156 34.146 57.156 68.098 0 4.255-0.384 8.42-1.12 12.463l0.064-0.423zM472.105 675.469c-5.176-7.372-13.023-12.567-22.108-14.187l-0.208-0.031-374.617-65.957c-1.801-0.333-3.874-0.523-5.991-0.523-19.094 0-34.573 15.479-34.573 34.573 0 16.977 12.237 31.096 28.371 34.019l0.211 0.032 374.617 65.957c1.814 0.338 3.901 0.531 6.034 0.531 19.084 0 34.554-15.47 34.554-34.554 0-7.447-2.356-14.343-6.362-19.985l0.072 0.107zM511.936 812.568c-5.957 32.685-34.209 57.139-68.171 57.139-4.222 0-8.356-0.378-12.369-1.102l0.421 0.063-374.617-65.957c-32.654-5.948-57.086-34.171-57.086-68.101 0-38.171 30.922-69.12 69.082-69.163h0.004c4.258 0.007 8.422 0.393 12.464 1.127l-0.427-0.064 374.617 65.957c32.675 5.966 57.118 34.212 57.118 68.168 0 4.217-0.377 8.346-1.099 12.354l0.063-0.421zM449.826 766.508l-374.617-65.957c-1.804-0.334-3.88-0.525-6-0.525-19.095 0-34.575 15.48-34.575 34.575 0 16.975 12.233 31.092 28.364 34.019l0.211 0.032 374.617 65.957c1.803 0.338 3.876 0.531 5.995 0.531 0.037 0 0.074 0 0.112 0h-0.006c19.075-0.038 34.524-15.51 34.524-34.591 0-16.97-12.22-31.085-28.34-34.027l-0.212-0.032zM426.155 902.856c-5.953 32.679-34.199 57.129-68.154 57.129-4.202 0-8.316-0.374-12.312-1.092l0.42 0.063-204.393-36.020c-32.69-5.92-57.16-34.162-57.16-68.119 0-38.201 30.968-69.169 69.169-69.169 4.244 0 8.399 0.382 12.432 1.114l-0.422-0.064 204.338 36.020c32.678 5.963 57.124 34.211 57.124 68.169 0 4.229-0.379 8.37-1.106 12.391l0.063-0.422zM364.027 856.777l-204.32-36.020c-1.552-0.247-3.341-0.387-5.163-0.387-19.104 0-34.591 15.487-34.591 34.591 0 16.697 11.83 30.631 27.566 33.877l0.224 0.039 204.32 36.002c1.801 0.338 3.874 0.531 5.991 0.531 0.006 0 0.013 0 0.019 0h-0.001c19.075-0.038 34.524-15.51 34.524-34.591 0-16.97-12.22-31.085-28.34-34.027l-0.212-0.032zM161.466 483.369q-5.167 5.936-10.462 11.707c-3.17 3.445-7.701 5.596-12.733 5.596-9.546 0-17.285-7.739-17.285-17.285 0-4.513 1.73-8.623 4.563-11.701l-0.011 0.012q4.947-5.386 9.839-10.993c32.557-37.54 49.065-68.65 49.065-92.431 0-9.547 7.739-17.286 17.286-17.286s17.286 7.739 17.286 17.286v0c-0.018 32.814-18.834 70.446-57.547 115.095zM357.377 108.917h-207.471c-28.646 0-51.868-23.222-51.868-51.868s23.222-51.868 51.868-51.868h207.49c28.646 0 51.868 23.222 51.868 51.868s-23.222 51.868-51.868 51.868v0zM357.377 39.754h-207.471c-0.168-0.006-0.365-0.009-0.563-0.009-9.552 0-17.295 7.743-17.295 17.295s7.743 17.295 17.295 17.295c0.198 0 0.395-0.003 0.591-0.010l-0.029 0.001h207.49c9.307-0.313 16.733-7.932 16.733-17.286s-7.426-16.974-16.704-17.285l-0.029-0.001zM357.377 178.080h-207.471c-28.646 0-51.868-23.222-51.868-51.868s23.222-51.868 51.868-51.868h207.49c28.646 0 51.868 23.222 51.868 51.868s-23.222 51.868-51.868 51.868v0zM357.377 108.917h-207.471c-0.168-0.006-0.365-0.009-0.563-0.009-9.552 0-17.295 7.743-17.295 17.295s7.743 17.295 17.295 17.295c0.198 0 0.395-0.003 0.591-0.010l-0.029 0.001h207.49c9.307-0.313 16.733-7.932 16.733-17.286s-7.426-16.974-16.704-17.285l-0.029-0.001zM357.377 39.754h-207.526c-0.005 0-0.012 0-0.018 0-9.542 0-17.277-7.735-17.277-17.277 0-0.006 0-0.013 0-0.019v0.001-47.031c0.021-21.767 17.661-39.407 39.426-39.428h163.209c21.771 0.021 39.415 17.658 39.446 39.425v47.034c0 0 0 0 0 0 0 9.539-7.723 17.274-17.257 17.295h-0.002zM340.063-24.572c0-2.671-2.166-4.837-4.837-4.837v0h-163.207c-2.667 0.010-4.826 2.17-4.837 4.836v29.755h172.88v-29.736z" />
<glyph unicode="&#xe915;" glyph-name="mail" horiz-adv-x="1303" d="M1140.378-64h-977.449c-89.919 0.106-162.788 72.953-162.929 162.853v698.218c0.106 89.941 72.988 162.823 162.919 162.929h977.459c89.926-0.141 162.788-73.003 162.929-162.915v-698.218c-0.141-89.914-73.010-162.761-162.919-162.867h-0.010zM162.929 867.022c-38.536-0.071-69.756-31.291-69.827-69.82v-698.211c0.035-38.55 31.277-69.791 69.823-69.827h977.452c38.536 0.071 69.756 31.291 69.827 69.82v698.087c-0.071 38.536-31.291 69.756-69.82 69.827h-0.007zM651.653 354.898c-0.011 0-0.025 0-0.039 0-10.828 0-20.787 3.716-28.672 9.943l0.098-0.074-418.898 325.858c-11.655 8.564-19.135 22.219-19.135 37.622 0 25.709 20.842 46.551 46.551 46.551 11.347 0 21.746-4.060 29.823-10.806l-0.074 0.060 390.346-303.575 390.346 303.575c8.003 6.686 18.402 10.746 29.749 10.746 25.709 0 46.551-20.842 46.551-46.551 0-15.402-7.48-29.058-19.006-37.531l-0.129-0.091-418.898-325.858c-7.788-6.152-17.747-9.869-28.575-9.869-0.014 0-0.027 0-0.041 0h0.002z" />
<glyph unicode="&#xe916;" glyph-name="microwave" horiz-adv-x="1336" d="M1316.668 790.373c10.814 0 19.581 8.767 19.581 19.581v54.472c-0.055 52.762-42.812 95.519-95.569 95.575h-1145.105c-52.762-0.055-95.519-42.812-95.575-95.569v-746.065c0.055-52.762 42.812-95.519 95.569-95.575h20.12v-49.474c0.014-20.604 16.713-37.304 37.316-37.318h116.467c20.604 0.014 37.304 16.713 37.318 37.316v49.475h108.726c10.514 0.382 18.892 8.997 18.892 19.569s-8.378 19.187-18.857 19.568l-0.035 0.001h-319.941c-31.158 0.028-56.41 25.279-56.437 56.435v746.063c0.028 31.158 25.279 56.41 56.435 56.437h877.256v-33.654c-6.229 2.39-13.435 3.775-20.964 3.775-33.193 0-60.101-26.908-60.101-60.101 0-0.005 0-0.010 0-0.015v0.001-678.946c0-0.004 0-0.009 0-0.014 0-33.193 26.908-60.101 60.101-60.101 7.529 0 14.735 1.384 21.376 3.913l-0.413-0.138v-33.654h-465.863c-10.514-0.382-18.892-8.997-18.892-19.569s8.378-19.187 18.857-19.568l0.035-0.001h526.667v-49.474c0.014-20.604 16.713-37.304 37.316-37.318h116.467c20.604 0.014 37.304 16.713 37.318 37.316v49.475h15.893c52.762 0.055 95.519 42.812 95.575 95.569v600.24c-0.382 10.514-8.997 18.892-19.569 18.892s-19.187-8.378-19.568-18.857l-0.001-0.035v-600.235c-0.028-31.158-25.279-56.41-56.435-56.437h-228.664v858.934h228.709c31.158-0.028 56.41-25.279 56.437-56.435v-54.475c0-10.806 8.753-19.567 19.555-19.581h0.001zM267.701 22.791v-47.63h-112.875v47.63zM1185.645 22.791v-47.63h-112.875v47.63zM951.864 130.959c-11.572 0.014-20.95 9.391-20.964 20.962v678.947c0 11.578 9.386 20.964 20.964 20.964s20.964-9.386 20.964-20.964v0-678.946c-0.014-11.572-9.391-20.95-20.962-20.964h-0.001zM1260.231 596.093v233.708c-0.028 21.992-17.849 39.813-39.838 39.841h-131.73c-21.992-0.028-39.813-17.849-39.841-39.838v-233.686c0.028-21.992 17.849-39.813 39.838-39.841h131.73c21.984 0.028 39.8 17.835 39.841 39.813v0.004zM1221.094 596.093c0-0.389-0.315-0.704-0.704-0.704v0h-131.728c-0.389 0-0.704 0.315-0.704 0.704v0 233.708c0 0.389 0.315 0.704 0.704 0.704v0h131.728c0.389 0 0.704-0.315 0.704-0.704v0zM1154.539 277.875c-45.481 0-82.351-36.87-82.351-82.351s36.87-82.351 82.351-82.351c45.481 0 82.351 36.87 82.351 82.351v0c-0.083 45.448-36.903 82.268-82.343 82.351h-0.008zM1154.539 152.311c-23.866 0-43.214 19.347-43.214 43.214s19.347 43.214 43.214 43.214c23.866 0 43.214-19.347 43.214-43.214v0c-0.028-23.855-19.358-43.186-43.211-43.214h-0.003zM1154.539 500.494c-45.481 0-82.351-36.87-82.351-82.351s36.87-82.351 82.351-82.351c45.481 0 82.351 36.87 82.351 82.351v0c-0.083 45.448-36.903 82.268-82.343 82.351h-0.008zM1154.539 374.93c-23.866 0-43.214 19.347-43.214 43.214s19.347 43.214 43.214 43.214c23.866 0 43.214-19.347 43.214-43.214v0c-0.028-23.855-19.358-43.186-43.211-43.214h-0.003zM851.51 207.656v567.503c-0.028 28.987-23.519 52.479-52.504 52.507h-666.308c-28.987-0.028-52.479-23.519-52.507-52.504v-567.482c0.028-28.987 23.519-52.479 52.504-52.507h666.283c28.984 0.028 52.476 23.502 52.531 52.477v0.005zM119.353 207.656v567.503c0 7.384 5.986 13.369 13.369 13.369v0h666.281c7.384 0 13.369-5.986 13.369-13.369v-567.479c0-7.384-5.986-13.369-13.369-13.369v0h-666.305c-7.365 0.014-13.331 5.98-13.345 13.344v0.001z" />
<glyph unicode="&#xe917;" glyph-name="mobile-phone" horiz-adv-x="562" d="M478.959 960h-396.387c-45.578-0.062-82.509-36.994-82.572-82.566v-858.845c0.062-45.578 36.994-82.509 82.566-82.572h396.393c45.578 0.062 82.509 36.994 82.572 82.566v858.845c-0.062 45.578-36.994 82.509-82.566 82.572h-0.006zM392.743 926.968l-9.911-49.539h-204.060l-9.911 49.539zM528.498 18.59c-0.041-27.343-22.196-49.498-49.535-49.539h-396.391c-27.343 0.041-49.498 22.196-49.539 49.535v858.843c0.041 27.343 22.196 49.498 49.535 49.539h52.531l13.865-69.235c1.566-7.625 8.221-13.279 16.197-13.282h231.226c7.976 0.003 14.631 5.657 16.179 13.175l0.018 0.107 13.865 69.235h52.527c27.343-0.041 49.498-22.196 49.539-49.535v-0.004zM181.668 35.097h-99.097c-8.888-0.304-15.977-7.582-15.977-16.516s7.089-16.212 15.949-16.515l0.028-0.001h99.097c8.888 0.304 15.977 7.582 15.977 16.516s-7.089 16.212-15.949 16.515l-0.028 0.001zM247.733 35.097h-16.525c-8.888-0.304-15.977-7.582-15.977-16.516s7.089-16.212 15.949-16.515l0.028-0.001h16.525c8.888 0.304 15.977 7.582 15.977 16.516s-7.089 16.212-15.949 16.515l-0.028 0.001z" />
<glyph unicode="&#xe918;" glyph-name="notice" horiz-adv-x="1067" d="M880.151 960h-693.045c-103.307-0.108-187.025-83.826-187.134-187.123v-427.489c0.108-103.307 83.826-187.025 187.123-187.134h441.456l211.298-211.325c6.771-6.76 16.119-10.94 26.443-10.94 20.664 0 37.417 16.747 37.427 37.409v186.348c92.641 12.235 163.414 90.654 163.538 185.629v427.491c-0.123 103.292-83.817 186.995-187.093 187.134h-0.013zM992.404 345.416c-0.077-61.965-50.288-112.176-112.246-112.253h-13.839c-20.664-0.015-37.411-16.763-37.427-37.425v-131.944l-158.385 158.385c-6.749 6.705-16.049 10.849-26.317 10.849-0.044 0-0.088 0-0.132 0h-456.951c-61.976 0.062-112.203 50.279-112.28 112.246v427.594c0.077 61.974 50.304 112.191 112.274 112.253h693.051c61.965-0.077 112.176-50.288 112.253-112.246v-0.007zM809.068 695.003h-550.878c-20.67 0-37.427-16.757-37.427-37.427s16.757-37.427 37.427-37.427h550.878c20.67 0 37.427 16.757 37.427 37.427s-16.757 37.427-37.427 37.427v0zM809.068 485.413h-550.878c-0.3 0.009-0.653 0.014-1.007 0.014-20.67 0-37.427-16.757-37.427-37.427s16.757-37.427 37.427-37.427c0.354 0 0.707 0.005 1.059 0.015l-0.052-0.001h550.878c0.3-0.009 0.653-0.014 1.007-0.014 20.67 0 37.427 16.757 37.427 37.427s-16.757 37.427-37.427 37.427c-0.354 0-0.707-0.005-1.059-0.015l0.052 0.001z" />
<glyph unicode="&#xe919;" glyph-name="on-appointment" d="M1008.981 338.816c0 0 0 0 0 0 8.28 0 14.994 6.7 15.019 14.974v318.85c-0.049 41.406-33.602 74.96-75.003 75.008h-157.317v137.344c-0.048 41.361-33.529 74.887-74.868 75.008h-409.612c-41.351-0.121-74.832-33.647-74.88-75.003v-137.349h-157.312c-41.406-0.049-74.96-33.602-75.008-75.003v-509.274c0.049-41.406 33.602-74.96 75.003-75.008h363.567v-62.379h-18.987c-38.084-0.049-68.943-30.908-68.992-68.987v-0.005c0.024-11.584 9.408-20.968 20.99-20.992h280.791c11.584 0.024 20.968 9.408 20.992 20.99v0.002c-0.049 38.084-30.908 68.943-68.987 68.992h-18.949v62.379h363.563c41.406 0.049 74.96 33.602 75.008 75.003v120.453c0.054 0.48 0.085 1.036 0.085 1.599 0 8.295-6.724 15.019-15.019 15.019s-15.019-6.724-15.019-15.019c0-0.563 0.031-1.119 0.091-1.666l-0.006 0.067v-120.448c-0.024-24.85-20.163-44.989-45.011-45.013h-874.114c-0.025 0-0.055 0-0.085 0-24.869 0-45.032 20.148-45.056 45.011v509.271c0.024 24.865 20.187 45.013 45.056 45.013 0.030 0 0.060 0 0.090 0h157.307v-29.867h-151.253c-11.584-0.024-20.968-9.408-20.992-20.99v-503.469c0-8.295 6.724-15.019 15.019-15.019v0h867.84c11.584 0.024 20.968 9.408 20.992 20.99v497.325c-0.024 11.584-9.408 20.968-20.99 20.992h-151.255v29.867h157.312c0.025 0 0.056 0 0.086 0 24.809 0 44.934-20.051 45.055-44.831v-318.86c0.024-8.217 6.642-14.88 14.839-14.976h0.009zM468.523 88.363h86.912v-62.379h-86.912zM604.373-4.011c18.293-0.024 33.64-12.613 37.874-29.598l0.057-0.269h-260.651c4.291 17.254 19.637 29.843 37.928 29.867h0.003zM232.32 178.347h-142.336v479.275h142.336zM761.685 178.347h-499.371v706.645c0 0.025 0 0.056 0 0.086 0 24.824 20.075 44.959 44.876 45.056h409.609c24.85-0.024 44.989-20.163 45.013-45.011v-0.002zM934.016 657.621v-479.275h-142.336v479.275zM684.715 418.133h-345.6c-0.48 0.054-1.036 0.085-1.599 0.085-8.295 0-15.019-6.724-15.019-15.019s6.724-15.019 15.019-15.019c0.563 0 1.119 0.031 1.666 0.091l-0.067-0.006h345.6c7.578 0.835 13.42 7.202 13.42 14.933s-5.842 14.098-13.352 14.927l-0.067 0.006zM512 870.016c-0.215 0.001-0.469 0.001-0.724 0.001-43.021 0-82.706-14.283-114.572-38.365l0.479 0.347c-3.308-2.774-5.397-6.909-5.397-11.532 0-8.295 6.724-15.019 15.019-15.019 3.109 0 5.998 0.945 8.394 2.563l-0.053-0.034c26.457 19.98 59.896 32.002 96.144 32.002 0.249 0 0.499-0.001 0.748-0.002h-0.039c0.030 0 0.066 0 0.102 0 89.544 0 162.133-72.59 162.133-162.133s-72.59-162.133-162.133-162.133c-89.544 0-162.133 72.59-162.133 162.133 0 30.369 8.35 58.788 22.878 83.086l-0.41-0.739c1.58 2.341 2.522 5.226 2.522 8.331 0 8.295-6.724 15.019-15.019 15.019-5.757 0-10.757-3.239-13.278-7.993l-0.039-0.081c-16.696-27.883-26.569-61.514-26.569-97.451 0-106.039 85.961-192 192-192s192 85.961 192 192c0 106.039-85.961 192-192 192-0.019 0-0.039 0-0.058 0h0.003zM442.88 600.789c10.003-9.842 23.737-15.918 38.891-15.918s28.887 6.076 38.898 15.926l93.86 93.86c8.416 8.188 13.637 19.622 13.637 32.276 0 24.86-20.153 45.013-45.013 45.013-12.962 0-24.644-5.478-32.857-14.246l-0.023-0.025-68.267-68.267-8.533 8.533c-8.175 8.169-19.465 13.222-31.936 13.222-24.952 0-45.179-20.228-45.179-45.179 0-12.481 5.061-23.78 13.243-31.957v0zM430.933 676.437c2.737 2.715 6.506 4.393 10.667 4.393s7.93-1.678 10.668-4.394l14.847-14.847c3.845-3.771 9.117-6.098 14.933-6.098s11.088 2.327 14.937 6.102l-0.003-0.003 74.325 74.709c2.846 2.957 6.837 4.794 11.258 4.794 3.85 0 7.375-1.393 10.098-3.704l-0.023 0.019c3-2.776 4.871-6.733 4.871-11.128 0-4.123-1.647-7.861-4.319-10.592l-93.864-93.864c-4.53-4.518-10.781-7.311-17.685-7.311s-13.155 2.793-17.686 7.312l0.001-0.001-33.024 33.408c-2.746 2.722-4.446 6.496-4.446 10.667s1.7 7.944 4.445 10.666l0.001 0.001zM684.8 327.979h-345.6c-0.48 0.054-1.036 0.085-1.599 0.085-8.295 0-15.019-6.724-15.019-15.019s6.724-15.019 15.019-15.019c0.563 0 1.119 0.031 1.666 0.091l-0.067-0.006h345.6c0.48-0.054 1.036-0.085 1.599-0.085 8.295 0 15.019 6.724 15.019 15.019s-6.724 15.019-15.019 15.019c-0.563 0-1.119-0.031-1.666-0.091l0.067 0.006z" />
<glyph unicode="&#xe91a;" glyph-name="oven" d="M136.533 38.41h750.933c9.423 0 17.062 7.639 17.062 17.062v0 614.4c0 9.423-7.639 17.062-17.062 17.062v0h-750.933c-9.423 0-17.062-7.639-17.062-17.062v-614.4c0-9.423 7.639-17.062 17.062-17.062v0zM238.963 652.79h546.133c9.423 0 17.062-7.639 17.062-17.062s-7.639-17.062-17.062-17.062h-546.133c-9.423 0-17.062 7.639-17.062 17.062s7.639 17.062 17.062 17.062v0zM153.634 652.79h37.062c-1.859-5.086-2.934-10.958-2.934-17.081 0-28.269 22.916-51.185 51.185-51.185 0.005 0 0.011 0 0.016 0h546.132c0.005 0 0.010 0 0.016 0 28.269 0 51.185 22.916 51.185 51.185 0 6.123-1.075 11.995-3.047 17.438l0.113-0.356h37.062v-511.99h-119.491v71.205c20.043 7.25 34.109 26.116 34.109 48.267 0 28.268-22.906 51.185-51.169 51.205h-25.879c-27.88 41.398-74.575 68.267-127.545 68.267-0.061 0-0.122 0-0.183 0h-136.524c-52.994-0.113-99.698-26.941-127.373-67.727l-0.345-0.54h-25.896c-28.265-0.020-51.171-22.937-51.171-51.205 0-22.151 14.065-41.017 33.752-48.154l0.356-0.113v-71.205h-119.491zM290.168 243.19c-9.423 0-17.062 7.639-17.062 17.062s7.639 17.062 17.062 17.062h443.724c9.423 0 17.062-7.639 17.062-17.062s-7.639-17.062-17.062-17.062v0zM716.829 209.067v-68.267h-409.62v68.267zM360.217 311.457c21.539 21.051 51.017 34.059 83.533 34.124h136.546c0.032 0 0.070 0 0.108 0 32.511 0 61.981-13.025 83.475-34.141l-0.018 0.017zM153.615 106.676h716.79v-34.124h-716.79zM964.274 960h-904.548c-32.968-0.045-59.681-26.758-59.726-59.722v-904.552c0.045-32.968 26.758-59.681 59.722-59.726h904.552c32.968 0.045 59.681 26.758 59.726 59.722v904.552c-0.045 32.968-26.758 59.681-59.722 59.726h-0.004zM989.876-4.274c-0.011-14.135-11.467-25.591-25.601-25.602h-904.549c-14.135 0.011-25.591 11.467-25.602 25.601v725.293h955.733zM989.876 755.2h-955.753v145.074c0.011 14.135 11.467 25.591 25.601 25.602h904.549c14.135-0.011 25.591-11.467 25.602-25.601v-0.001zM512.010 891.733c-28.28 0-51.205-22.925-51.205-51.205s22.925-51.205 51.205-51.205c28.28 0 51.205 22.925 51.205 51.205v0c0 28.28-22.925 51.205-51.205 51.205v0zM512.010 823.467c-9.423 0-17.062 7.639-17.062 17.062s7.639 17.062 17.062 17.062c9.423 0 17.062-7.639 17.062-17.062v0c0-9.423-7.639-17.062-17.062-17.062v0zM341.333 891.733c-28.28 0-51.205-22.925-51.205-51.205s22.925-51.205 51.205-51.205c28.28 0 51.205 22.925 51.205 51.205v0c0 28.28-22.925 51.205-51.205 51.205v0zM341.333 823.467c-9.423 0-17.062 7.639-17.062 17.062s7.639 17.062 17.062 17.062c9.423 0 17.062-7.639 17.062-17.062v0c0-9.423-7.639-17.062-17.062-17.062v0zM682.667 891.733c-28.28 0-51.205-22.925-51.205-51.205s22.925-51.205 51.205-51.205c28.28 0 51.205 22.925 51.205 51.205v0c0 28.28-22.925 51.205-51.205 51.205v0zM682.667 823.467c-9.423 0-17.062 7.639-17.062 17.062s7.639 17.062 17.062 17.062c9.423 0 17.062-7.639 17.062-17.062v0c0-9.423-7.639-17.062-17.062-17.062v0zM503.45 430.928c0-9.423 7.639-17.062 17.062-17.062s17.062 7.639 17.062 17.062v0c0.004 0.274 0.007 0.598 0.007 0.922 0 13.198-4.185 25.418-11.299 35.407l0.127-0.187c-3.682 4.943-5.895 11.17-5.895 17.914s2.213 12.971 5.952 17.994l-0.057-0.080c6.988 9.799 11.172 22.017 11.172 35.213 0 0.32-0.002 0.639-0.007 0.957l0.001-0.048c0 9.423-7.639 17.062-17.062 17.062s-17.062-7.639-17.062-17.062v0c0.008-0.255 0.013-0.554 0.013-0.855 0-6.46-2.218-12.403-5.934-17.107l0.044 0.058c-6.991-10.111-11.167-22.634-11.167-36.131s4.176-26.020 11.307-36.345l-0.14 0.214c3.672-4.649 5.89-10.593 5.89-17.056 0-0.305-0.005-0.609-0.015-0.912l0.001 0.044zM597.319 430.928c0-9.428 7.643-17.072 17.072-17.072s17.072 7.643 17.072 17.072v0c0.004 0.274 0.007 0.598 0.007 0.922 0 13.198-4.185 25.418-11.299 35.407l0.127-0.187c-3.682 4.943-5.895 11.17-5.895 17.914s2.213 12.971 5.952 17.994l-0.057-0.080c6.988 9.799 11.172 22.017 11.172 35.213 0 0.32-0.002 0.639-0.007 0.957l0.001-0.048c0 9.428-7.643 17.072-17.072 17.072s-17.072-7.643-17.072-17.072v0c0.008-0.255 0.013-0.554 0.013-0.855 0-6.46-2.218-12.403-5.934-17.107l0.044 0.058c-6.991-10.111-11.167-22.634-11.167-36.131s4.176-26.020 11.307-36.345l-0.14 0.214c3.672-4.649 5.89-10.593 5.89-17.056 0-0.305-0.005-0.609-0.015-0.912l0.001 0.044zM409.58 430.928c0-9.428 7.643-17.072 17.072-17.072s17.072 7.643 17.072 17.072v0c0.004 0.274 0.007 0.598 0.007 0.922 0 13.198-4.185 25.418-11.299 35.407l0.127-0.187c-3.682 4.943-5.895 11.17-5.895 17.914s2.213 12.971 5.952 17.994l-0.057-0.080c6.988 9.799 11.172 22.017 11.172 35.213 0 0.32-0.002 0.639-0.007 0.957l0.001-0.048c0 9.428-7.643 17.072-17.072 17.072s-17.072-7.643-17.072-17.072v0c0.008-0.255 0.013-0.554 0.013-0.855 0-6.46-2.218-12.403-5.934-17.107l0.044 0.058c-6.991-10.111-11.167-22.634-11.167-36.131s4.176-26.020 11.307-36.345l-0.14 0.214c3.672-4.649 5.89-10.593 5.89-17.056 0-0.305-0.005-0.609-0.015-0.912l0.001 0.044z" />
<glyph unicode="&#xe91b;" glyph-name="pc" horiz-adv-x="1536" d="M1504.007 127.956h-96.007v703.985c-0.067 70.655-57.318 127.917-127.963 128h-1024.037c-70.66-0.067-127.921-57.338-127.971-127.995v-703.99h-96.007c-0.009 0-0.019 0-0.029 0-17.669 0-31.993-14.324-31.993-31.993 0-0.010 0-0.021 0-0.031v0.002-32.022c0.1-70.646 57.351-127.888 127.992-127.971h1280.008c70.649 0.083 127.9 57.324 128 127.961v32.032c0 0.009 0 0.019 0 0.029 0 17.669-14.324 31.993-31.993 31.993v0zM192.015 831.942c0.050 35.324 28.664 63.948 63.979 64.015h1024.035c35.322-0.066 63.936-28.691 63.985-64.010v-703.99h-1152zM1408-0.044h-1280c-35.324 0.050-63.948 28.664-64.015 63.979v0.006h530.745l22.635-22.605c5.797-5.766 13.782-9.336 22.601-9.358h256.033c8.823 0.022 16.808 3.592 22.607 9.359l-0.001-0.001 22.635 22.605h530.745c-0.083-35.299-28.684-63.89-63.979-63.956h-0.006z" />
<glyph unicode="&#xe91c;" glyph-name="phone" horiz-adv-x="640" d="M512 896v0c35.346 0 64-28.654 64-64v-768c0-35.346-28.654-64-64-64h-384c-35.346 0-64 28.654-64 64v768c0 35.346 28.654 64 64 64h384zM128 960c-70.692 0-128-57.308-128-128v0-768c0-70.692 57.308-128 128-128v0h384c70.692 0 128 57.308 128 128v0 768c0 70.692-57.308 128-128 128v0zM320 64c35.346 0 64 28.654 64 64s-28.654 64-64 64c-35.346 0-64-28.654-64-64v0c0-35.346 28.654-64 64-64v0z" />
<glyph unicode="&#xe91d;" glyph-name="saving-bulb" horiz-adv-x="996" d="M498.034 828.574c8.304 0 15.035 6.731 15.035 15.035v0 101.356c0 8.304-6.731 15.035-15.035 15.035s-15.035-6.731-15.035-15.035v0-101.356c0-8.304 6.731-15.035 15.035-15.035v0zM217.536 721.19c2.691-2.561 6.34-4.136 10.357-4.136 8.304 0 15.035 6.731 15.035 15.035 0 4.017-1.575 7.666-4.142 10.363l-71.665 71.665c-2.691 2.561-6.34 4.136-10.357 4.136-8.304 0-15.035-6.731-15.035-15.035 0-4.017 1.575-7.666 4.142-10.363l-0.006 0.006zM116.391 477.054h-101.356c-8.304 0-15.035-6.731-15.035-15.035s6.731-15.035 15.035-15.035h101.356c8.304 0 15.035 6.731 15.035 15.035s-6.731 15.035-15.035 15.035v0zM217.536 202.724l-71.671-71.671c-2.884-2.745-4.678-6.613-4.678-10.899 0-8.304 6.731-15.035 15.035-15.035 4.287 0 8.155 1.794 10.893 4.672l71.677 71.677c2.884 2.745 4.678 6.613 4.678 10.899 0 8.304-6.731 15.035-15.035 15.035-4.287 0-8.155-1.794-10.893-4.672l-0.006-0.006zM778.532 202.724c-2.691 2.561-6.34 4.136-10.357 4.136-8.304 0-15.035-6.731-15.035-15.035 0-4.017 1.575-7.666 4.142-10.363l71.665-71.665c2.691-2.561 6.34-4.136 10.357-4.136 8.304 0 15.035 6.731 15.035 15.035 0 4.017-1.575 7.666-4.142 10.363l0.006-0.006zM981.050 477.054h-101.356c-8.304 0-15.035-6.731-15.035-15.035s6.731-15.035 15.035-15.035h101.356c8.304 0 15.035 6.731 15.035 15.035s-6.731 15.035-15.035 15.035v0zM828.929 814.117l-71.671-71.671c-2.561-2.691-4.136-6.34-4.136-10.357 0-8.304 6.731-15.035 15.035-15.035 4.017 0 7.666 1.575 10.363 4.142l71.665 71.665c2.561 2.691 4.136 6.34 4.136 10.357 0 8.304-6.731 15.035-15.035 15.035-4.017 0-7.666-1.575-10.363-4.142l0.006 0.006zM795.091 492.352c0.003 0.529 0.005 1.154 0.005 1.78 0 164.545-132.696 298.097-296.914 299.482l-0.131 0.001c-0.073 0-0.159 0-0.246 0-59.839 0-115.487-17.943-161.858-48.742l1.081 0.675c-46.516-30.829-83.261-72.973-106.815-122.593l-0.779-1.823c-0.891-1.864-1.412-4.052-1.412-6.361 0-8.304 6.732-15.036 15.036-15.036 5.995 0 11.171 3.509 13.586 8.584l0.039 0.091c43.192 92.256 135.252 155.016 241.969 155.016 147.105 0 266.356-119.252 266.356-266.356 0-1.634-0.015-3.265-0.044-4.892l0.003 0.244c0.001-0.269 0.002-0.588 0.002-0.907 0-73.061-28.802-139.395-75.671-188.266l0.091 0.095c-28.038-29.334-52.010-57.372-58.16-96.642h-262.449c-7.745 40.777-35.555 69.375-60.561 95.065-47.69 48.921-77.105 115.854-77.105 189.658 0 0.351 0.001 0.701 0.002 1.052v-0.054c0 0.012 0 0.025 0 0.039 0 18.644 1.837 36.86 5.34 54.475l-0.293-1.768c0.175 0.861 0.275 1.852 0.275 2.865 0 8.306-6.733 15.039-15.039 15.039-7.292 0-13.372-5.19-14.748-12.078l-0.016-0.096c-3.555-17.556-5.59-37.736-5.59-58.391 0-0.030 0-0.059 0-0.089v0.005c-0.001-0.32-0.002-0.698-0.002-1.076 0-81.939 32.665-156.248 85.683-210.617l-0.061 0.063c31.717-32.594 54.147-58.598 54.147-96.729 0-0.14 0-0.263 0-0.403l0.859-88.231c0-0.015 0-0.033 0-0.051 0-28.554 15.11-53.579 37.77-67.516l0.344-0.197v-16.525c0.040-41.502 33.673-75.136 75.172-75.176h92.212c41.502 0.040 75.136 33.673 75.176 75.172v16.529c22.982 14.128 38.080 39.128 38.096 67.656v0.002s-0.105 98.271-0.315 99.253c2.856 34.837 23.972 59.58 51.011 87.845 51.94 54.146 83.921 127.789 83.921 208.901 0 0.344-0.001 0.687-0.002 1.030v-0.053zM592.31 11.176c-0.030-24.899-20.206-45.075-45.103-45.105h-92.211c-24.899 0.030-45.075 20.206-45.105 45.103v5.803c3.306-0.494 7.127-0.781 11.014-0.789h160.4c3.896 0.009 7.717 0.295 11.454 0.84l-0.432-0.052zM581.288 46.222h-160.357c-27.074 0.060-49.006 21.991-49.066 49.060v1.005h152.349c8.304 0 15.035 6.731 15.035 15.035s-6.731 15.035-15.035 15.035h-152.349v50.257h258.12l0.456-50.117h-36.081c-8.304 0-15.035-6.731-15.035-15.035s6.731-15.035 15.035-15.035h36.011v-0.999c0 0 0 0 0 0 0-27.119-21.955-49.111-49.060-49.171h-0.006zM595.762 490.372c-2.116-2.571-3.399-5.896-3.399-9.521 0-8.304 6.731-15.035 15.035-15.035 4.949 0 9.34 2.391 12.079 6.081l0.029 0.040 29.79 38.324c6.306 8.059 10.113 18.34 10.113 29.509 0 26.572-21.541 48.112-48.112 48.112-15.402 0-29.114-7.237-37.92-18.497l-0.080-0.106-97.097-125.047-55.725 61.665c-8.838 9.749-21.55 15.846-35.686 15.846-26.569 0-48.107-21.538-48.107-48.107 0-12.432 4.716-23.763 12.457-32.301l-0.036 0.040 94.224-104.229c8.88-9.653 21.572-15.68 35.672-15.68 15.37 0 29.068 7.162 37.938 18.331l0.076 0.1 59.58 76.63c2.116 2.571 3.399 5.896 3.399 9.521 0 8.304-6.731 15.035-15.035 15.035-4.949 0-9.34-2.391-12.079-6.081l-0.029-0.040-59.58-76.63c-3.354-4.228-8.492-6.915-14.257-6.915-5.288 0-10.048 2.261-13.366 5.868l-0.012 0.013-94.224 104.229c-2.747 3.15-4.422 7.297-4.422 11.835 0 9.968 8.081 18.049 18.049 18.049 5.179 0 9.849-2.181 13.14-5.676l0.008-0.009 67.746-74.965c2.776-3.013 6.742-4.895 11.147-4.895 4.802 0 9.081 2.235 11.855 5.722l0.024 0.031 108.102 139.224c3.334 3.994 8.314 6.516 13.884 6.516 9.968 0 18.049-8.081 18.049-18.049 0-3.983-1.29-7.665-3.475-10.65l0.035 0.051z" />
</font>
</defs>
</svg>
